<?xml version="1.0" encoding="UTF-8" standalone="no"?>
<svg
   xmlns:dc="http://purl.org/dc/elements/1.1/"
   xmlns:cc="http://creativecommons.org/ns#"
   xmlns:rdf="http://www.w3.org/1999/02/22-rdf-syntax-ns#"
   xmlns:svg="http://www.w3.org/2000/svg"
   xmlns="http://www.w3.org/2000/svg"
   xmlns:sodipodi="http://sodipodi.sourceforge.net/DTD/sodipodi-0.dtd"
   xmlns:inkscape="http://www.inkscape.org/namespaces/inkscape"
   width="37.55827mm"
   height="38.865398mm"
   viewBox="0 0 37.55827 38.865398"
   version="1.1"
   id="svg3031"
   inkscape:version="1.0.2-2 (e86c870879, 2021-01-15)"
   sodipodi:docname="ale-logo.svg">
  <defs
     id="defs3025">
    <inkscape:path-effect
       effect="bspline"
       id="path-effect2776"
       is_visible="true"
       lpeversion="1"
       weight="33.333333"
       steps="2"
       helper_size="0"
       apply_no_weight="true"
       apply_with_weight="true"
       only_selected="false" />
    <inkscape:path-effect
       effect="bspline"
       id="path-effect2778"
       is_visible="true"
       lpeversion="1"
       weight="33.333333"
       steps="2"
       helper_size="0"
       apply_no_weight="true"
       apply_with_weight="true"
       only_selected="false" />
    <inkscape:path-effect
       effect="bspline"
       id="path-effect2780"
       is_visible="true"
       lpeversion="1"
       weight="33.333333"
       steps="2"
       helper_size="0"
       apply_no_weight="true"
       apply_with_weight="true"
       only_selected="false" />
    <inkscape:path-effect
       effect="bspline"
       id="path-effect2782"
       is_visible="true"
       lpeversion="1"
       weight="33.333333"
       steps="2"
       helper_size="0"
       apply_no_weight="true"
       apply_with_weight="true"
       only_selected="false" />
    <inkscape:path-effect
       effect="bspline"
       id="path-effect2784"
       is_visible="true"
       lpeversion="1"
       weight="33.333333"
       steps="2"
       helper_size="0"
       apply_no_weight="true"
       apply_with_weight="true"
       only_selected="false" />
    <inkscape:path-effect
       effect="bspline"
       id="path-effect2786"
       is_visible="true"
       lpeversion="1"
       weight="33.333333"
       steps="2"
       helper_size="0"
       apply_no_weight="true"
       apply_with_weight="true"
       only_selected="false" />
    <inkscape:path-effect
       effect="bspline"
       id="path-effect2788"
       is_visible="true"
       lpeversion="1"
       weight="33.333333"
       steps="2"
       helper_size="0"
       apply_no_weight="true"
       apply_with_weight="true"
       only_selected="false" />
    <inkscape:path-effect
       effect="bspline"
       id="path-effect2790"
       is_visible="true"
       lpeversion="1"
       weight="33.333333"
       steps="2"
       helper_size="0"
       apply_no_weight="true"
       apply_with_weight="true"
       only_selected="false" />
  </defs>
  <sodipodi:namedview
     id="base"
     pagecolor="#ffffff"
     bordercolor="#666666"
     borderopacity="1.0"
     inkscape:pageopacity="0.0"
     inkscape:pageshadow="2"
     inkscape:zoom="1.4"
     inkscape:cx="73.12703"
     inkscape:cy="136.93092"
     inkscape:document-units="mm"
     inkscape:current-layer="layer1"
     inkscape:document-rotation="0"
     showgrid="false"
     fit-margin-top="0"
     fit-margin-left="0"
     fit-margin-right="0"
     fit-margin-bottom="0"
     inkscape:window-width="1366"
     inkscape:window-height="745"
     inkscape:window-x="1358"
     inkscape:window-y="-8"
     inkscape:window-maximized="1" />
  <metadata
     id="metadata3028">
    <rdf:RDF>
      <cc:Work
         rdf:about="">
        <dc:format>image/svg+xml</dc:format>
        <dc:type
           rdf:resource="http://purl.org/dc/dcmitype/StillImage" />
        <dc:title></dc:title>
      </cc:Work>
    </rdf:RDF>
  </metadata>
  <g
     inkscape:label="Layer 1"
     inkscape:groupmode="layer"
     id="layer1"
     transform="translate(-119.56015,-78.085159)">
    <path
       style="fill:none;stroke:#000000;stroke-width:0.264583px;stroke-linecap:butt;stroke-linejoin:miter;stroke-opacity:1"
       d="m 131.59026,99.183668 4.9768,0.004 -0.0746,-12.12123 c -1.78647,4.36468 -3.56435,8.57948 -4.90223,12.11718 z"
       id="path2084-1-4-8-61"
       sodipodi:nodetypes="cccc" />
    <path
       id="path1043-9-5-9-7"
       style="fill:none;stroke:#000000;stroke-width:0.274749px;stroke-linecap:butt;stroke-linejoin:miter;stroke-opacity:1"
       d="m 144.36647,78.287975 -0.0242,6.390693 12.61723,0.0181 c -0.29811,-2.042325 -0.59632,-4.084906 -1.7241,-5.14697 -1.12777,-1.062061 -3.08506,-1.14354 -5.04301,-1.224732 z"
       sodipodi:nodetypes="cccscc" />
    <path
       style="fill:none;stroke:#000000;stroke-width:0.264583px;stroke-linecap:butt;stroke-linejoin:miter;stroke-opacity:1"
       d="m 156.95953,110.34543 c -0.25201,2.14209 -0.50399,4.28396 -1.85664,5.35311 -1.35265,1.06915 -3.80619,1.06581 -6.26003,1.06248"
       id="path1111-3-62"
       inkscape:original-d="m 156.95953,110.34543 c -0.2517,2.14213 -0.50369,4.28399 -0.75594,6.42559 -2.45335,-0.003 -4.90689,-0.006 -7.36073,-0.01"
       inkscape:path-effect="#path-effect2776" />
    <path
       style="fill:none;stroke:#000000;stroke-width:0.264583px;stroke-linecap:butt;stroke-linejoin:miter;stroke-opacity:1"
       d="m 148.84286,116.76142 -12.29403,0.01"
       id="path1115-7-3" />
    <path
       style="fill:none;stroke:#000000;stroke-width:0.264583px;stroke-linecap:butt;stroke-linejoin:miter;stroke-opacity:1"
       d="m 124.31184,116.81827 c -2.12585,-0.0157 -4.25196,-0.0315 -4.5737,-1.60552 -0.32175,-1.57405 1.16114,-4.70642 2.64411,-7.83895"
       id="path1117-6-3"
       inkscape:original-d="m 124.31184,116.81827 c -2.12585,-0.0155 -4.25196,-0.0312 -6.37834,-0.0472 1.48321,-3.13222 2.9661,-6.26459 4.44875,-9.39727"
       inkscape:path-effect="#path-effect2778" />
    <path
       style="fill:none;stroke:#000000;stroke-width:0.264583px;stroke-linecap:butt;stroke-linejoin:miter;stroke-opacity:1"
       d="m 141.65151,78.21745 c -1.85272,0.0032 -3.7057,0.0063 -5.22455,1.274342 -1.51885,1.268009 -2.70321,3.800637 -3.88754,6.333206"
       id="path1121-2-3"
       inkscape:original-d="m 141.65151,78.21745 c -1.85272,0.0034 -3.7057,0.0066 -5.55894,0.0095 -1.18415,2.532997 -2.3685,5.065628 -3.55315,7.598048"
       inkscape:path-effect="#path-effect2780" />
    <path
       style="fill:none;stroke:#000000;stroke-width:0.264583px;stroke-linecap:butt;stroke-linejoin:miter;stroke-opacity:1"
       d="m 136.54883,116.77102 -0.0105,-11.16176 -7.49665,-0.0888 -4.72986,11.29777"
       id="path1125-7-2"
       sodipodi:nodetypes="cccc" />
    <path
       style="fill:none;stroke:#000000;stroke-width:0.264583px;stroke-linecap:butt;stroke-linejoin:miter;stroke-opacity:1"
       d="M 122.38225,107.37375 132.53942,85.824998"
       id="path1127-7-4" />
    <path
       style="fill:none;stroke:#000000;stroke-width:0.264583px;stroke-linecap:butt;stroke-linejoin:miter;stroke-opacity:1"
       d="m 141.65151,78.21745 0.0192,32.27209 15.28886,-0.14411"
       id="path1129-5-7"
       sodipodi:nodetypes="ccc" />
    <path
       style="fill:none;stroke:#000000;stroke-width:0.22114px;stroke-linecap:butt;stroke-linejoin:miter;stroke-opacity:1"
       d="m 144.32925,93.820188 -0.0242,6.390702"
       id="path1388-6-4"
       sodipodi:nodetypes="cc" />
    <path
       style="fill:none;stroke:#000000;stroke-width:0.264583px;stroke-linecap:butt;stroke-linejoin:miter;stroke-opacity:1"
       d="m 150.63975,93.829248 c 2.10251,0.003 4.20475,0.006 5.25457,0.274064 1.04983,0.268065 1.04749,0.800903 1.04516,1.333486"
       id="path1567-19"
       inkscape:path-effect="#path-effect2782"
       inkscape:original-d="m 150.63975,93.829248 c 2.10251,0.003 4.20475,0.006 6.30673,0.009 -0.002,0.53313 -0.004,1.06597 -0.007,1.59855" />
    <path
       style="fill:none;stroke:#000000;stroke-width:0.264583px;stroke-linecap:butt;stroke-linejoin:miter;stroke-opacity:1"
       d="m 150.62933,100.16283 c 2.10251,-0.003 4.20475,-0.006 5.25457,-0.27406 1.04983,-0.268061 1.04749,-0.800899 1.04516,-1.333482"
       id="path1567-1-7"
       inkscape:path-effect="#path-effect2784"
       inkscape:original-d="m 150.62933,100.16283 c 2.10251,-0.003 4.20475,-0.006 6.30673,-0.009 -0.002,-0.533122 -0.004,-1.065962 -0.007,-1.598542" />
    <path
       style="fill:none;stroke:#000000;stroke-width:0.264583px;stroke-linecap:butt;stroke-linejoin:miter;stroke-opacity:1"
       d="m 144.32925,93.820238 c 2.10376,0.003 4.20726,0.006 6.3105,0.009"
       id="path1595-1"
       inkscape:path-effect="#path-effect2786"
       inkscape:original-d="m 144.32925,93.820238 c 2.10376,0.003 4.20726,0.006 6.3105,0.009" />
    <path
       style="fill:none;stroke:#000000;stroke-width:0.264583px;stroke-linecap:butt;stroke-linejoin:miter;stroke-opacity:1"
       d="m 156.9397,95.361688 c -0.003,1.089829 -0.007,2.1794 -0.0104,3.2687"
       id="path1599-8"
       inkscape:path-effect="#path-effect2788"
       inkscape:original-d="m 156.9397,95.361688 c -0.003,1.08983 -0.007,2.1794 -0.0104,3.2687" />
    <path
       style="fill:none;stroke:#000000;stroke-width:0.264583px;stroke-linecap:butt;stroke-linejoin:miter;stroke-opacity:1"
       d="m 150.62933,100.16283 c -2.10783,0.016 -4.21592,0.0321 -6.32428,0.0481"
       id="path1603-3"
       inkscape:path-effect="#path-effect2790"
       inkscape:original-d="m 150.62933,100.16283 c -2.10783,0.0163 -4.21592,0.0323 -6.32428,0.0481" />
    <path
       style="fill:#f4a950;fill-opacity:1;stroke:#f4a950;stroke-width:0.0357143;stroke-opacity:1"
       d="m 121.99374,116.52939 c -1.45477,-0.21331 -2.1179,-0.78245 -2.11621,-1.81626 0.001,-0.82833 0.49034,-2.42641 1.32953,-4.34511 0.53325,-1.2192 11.8972,-25.303012 12.60918,-26.722842 2.01765,-4.023578 3.32579,-5.047876 6.68396,-5.233669 l 1.01581,-0.0562 v 16.158279 16.158282 l 6.92169,-0.0499 c 3.80693,-0.0275 7.23491,-0.0702 7.61775,-0.0949 l 0.69606,-0.045 -0.0659,0.61543 c -0.0959,0.89501 -0.37779,2.18479 -0.61389,2.80825 -0.57953,1.53041 -1.51473,2.19039 -3.59439,2.53664 -0.3858,0.0642 -3.43423,0.12026 -8.19736,0.15066 l -7.58315,0.0484 v -5.5709 -5.57089 l -0.49609,-0.0596 c -0.27285,-0.0328 -2.02821,-0.06 -3.90081,-0.0604 l -3.4047,-7.9e-4 -2.35135,5.62239 -2.35135,5.6224 -0.85853,-0.0118 c -0.47218,-0.006 -1.0753,-0.0436 -1.34024,-0.0824 z m 14.76213,-17.493492 c -0.0325,-0.16242 -0.0591,-2.92182 -0.0591,-6.13201 0,-5.32698 -0.0135,-5.84191 -0.15526,-5.89629 -0.0854,-0.0328 -0.17223,-0.0426 -0.19297,-0.0219 -0.0622,0.0622 -2.32689,5.57585 -3.53769,8.61295 -0.62159,1.55915 -1.21107,3.03681 -1.30996,3.28367 l -0.1798,0.44885 h 2.7469 2.7469 z"
       id="path2983" />
    <path
       style="fill:#f4a950;fill-opacity:1;stroke:#f4a950;stroke-width:0.0357143;stroke-opacity:1"
       d="m 144.44532,97.009808 v -2.98284 l 5.36254,0.0376 c 5.89143,0.0413 6.26645,0.0742 6.70774,0.58719 0.20856,0.24246 0.21395,0.30231 0.21395,2.37409 v 2.12535 l -0.23856,0.2211 c -0.54829,0.50813 -1.88779,0.61679 -7.62807,0.61879 l -4.4176,0.002 z"
       id="path2985" />
    <path
       style="fill:#f4a950;fill-opacity:1;stroke:#f4a950;stroke-width:0.0357143;stroke-opacity:1"
       d="m 144.53982,81.471812 v -3.023809 l 1.53553,0.0043 c 2.7615,0.0078 6.32166,0.17032 7.00057,0.319608 1.70927,0.375859 2.53255,1.113687 3.04209,2.726346 0.18952,0.599824 0.61154,2.614471 0.61154,2.919371 0,0.0429 -2.74269,0.078 -6.09486,0.078 h -6.09487 z"
       id="path2987" />
  </g>
</svg>
