<?xml version="1.0" encoding="UTF-8" standalone="no"?>
<svg
   xmlns:dc="http://purl.org/dc/elements/1.1/"
   xmlns:cc="http://creativecommons.org/ns#"
   xmlns:rdf="http://www.w3.org/1999/02/22-rdf-syntax-ns#"
   xmlns:svg="http://www.w3.org/2000/svg"
   xmlns="http://www.w3.org/2000/svg"
   xmlns:sodipodi="http://sodipodi.sourceforge.net/DTD/sodipodi-0.dtd"
   xmlns:inkscape="http://www.inkscape.org/namespaces/inkscape"
   width="54.461613mm"
   height="51.2533mm"
   viewBox="0 0 54.461613 51.253299"
   version="1.1"
   id="svg3031"
   inkscape:version="1.0.2-2 (e86c870879, 2021-01-15)"
   sodipodi:docname="alecurso-logomark.svg">
  <defs
     id="defs3025">
    <inkscape:path-effect
       effect="bspline"
       id="path-effect923"
       is_visible="true"
       lpeversion="1"
       weight="33.333333"
       steps="2"
       helper_size="0"
       apply_no_weight="true"
       apply_with_weight="true"
       only_selected="false" />
    <inkscape:path-effect
       effect="bspline"
       id="path-effect919"
       is_visible="true"
       lpeversion="1"
       weight="33.333333"
       steps="2"
       helper_size="0"
       apply_no_weight="true"
       apply_with_weight="true"
       only_selected="false" />
    <inkscape:path-effect
       effect="bspline"
       id="path-effect895"
       is_visible="true"
       lpeversion="1"
       weight="33.333333"
       steps="2"
       helper_size="0"
       apply_no_weight="true"
       apply_with_weight="true"
       only_selected="false" />
    <inkscape:path-effect
       effect="bspline"
       id="path-effect872"
       is_visible="true"
       lpeversion="1"
       weight="33.333333"
       steps="2"
       helper_size="0"
       apply_no_weight="true"
       apply_with_weight="true"
       only_selected="false" />
    <rect
       x="63.968086"
       y="118.71013"
       width="128.02209"
       height="37.417732"
       id="rect866" />
    <inkscape:path-effect
       effect="bspline"
       id="path-effect2776"
       is_visible="true"
       lpeversion="1"
       weight="33.333333"
       steps="2"
       helper_size="0"
       apply_no_weight="true"
       apply_with_weight="true"
       only_selected="false" />
    <inkscape:path-effect
       effect="bspline"
       id="path-effect2778"
       is_visible="true"
       lpeversion="1"
       weight="33.333333"
       steps="2"
       helper_size="0"
       apply_no_weight="true"
       apply_with_weight="true"
       only_selected="false" />
    <inkscape:path-effect
       effect="bspline"
       id="path-effect2780"
       is_visible="true"
       lpeversion="1"
       weight="33.333333"
       steps="2"
       helper_size="0"
       apply_no_weight="true"
       apply_with_weight="true"
       only_selected="false" />
    <inkscape:path-effect
       effect="bspline"
       id="path-effect2782"
       is_visible="true"
       lpeversion="1"
       weight="33.333333"
       steps="2"
       helper_size="0"
       apply_no_weight="true"
       apply_with_weight="true"
       only_selected="false" />
    <inkscape:path-effect
       effect="bspline"
       id="path-effect2784"
       is_visible="true"
       lpeversion="1"
       weight="33.333333"
       steps="2"
       helper_size="0"
       apply_no_weight="true"
       apply_with_weight="true"
       only_selected="false" />
    <inkscape:path-effect
       effect="bspline"
       id="path-effect2786"
       is_visible="true"
       lpeversion="1"
       weight="33.333333"
       steps="2"
       helper_size="0"
       apply_no_weight="true"
       apply_with_weight="true"
       only_selected="false" />
    <inkscape:path-effect
       effect="bspline"
       id="path-effect2788"
       is_visible="true"
       lpeversion="1"
       weight="33.333333"
       steps="2"
       helper_size="0"
       apply_no_weight="true"
       apply_with_weight="true"
       only_selected="false" />
    <inkscape:path-effect
       effect="bspline"
       id="path-effect2790"
       is_visible="true"
       lpeversion="1"
       weight="33.333333"
       steps="2"
       helper_size="0"
       apply_no_weight="true"
       apply_with_weight="true"
       only_selected="false" />
  </defs>
  <sodipodi:namedview
     id="base"
     pagecolor="#ffffff"
     bordercolor="#666666"
     borderopacity="1.0"
     inkscape:pageopacity="0.0"
     inkscape:pageshadow="2"
     inkscape:zoom="1.4"
     inkscape:cx="81.553558"
     inkscape:cy="119.4192"
     inkscape:document-units="mm"
     inkscape:current-layer="layer1"
     inkscape:document-rotation="0"
     showgrid="false"
     fit-margin-top="0"
     fit-margin-left="0"
     fit-margin-right="0"
     fit-margin-bottom="0"
     inkscape:window-width="1366"
     inkscape:window-height="745"
     inkscape:window-x="1358"
     inkscape:window-y="-8"
     inkscape:window-maximized="1"
     inkscape:snap-intersection-paths="true"
     inkscape:snap-midpoints="true" />
  <metadata
     id="metadata3028">
    <rdf:RDF>
      <cc:Work
         rdf:about="">
        <dc:format>image/svg+xml</dc:format>
        <dc:type
           rdf:resource="http://purl.org/dc/dcmitype/StillImage" />
        <dc:title></dc:title>
      </cc:Work>
    </rdf:RDF>
  </metadata>
  <g
     inkscape:label="Layer 1"
     inkscape:groupmode="layer"
     id="layer1"
     transform="translate(-111.21173,-78.085159)">
    <path
       style="fill:#f4a950;fill-opacity:1;stroke:#f4a950;stroke-width:0.0357143;stroke-opacity:1"
       d="m 121.69422,116.27811 c -1.45477,-0.21331 -2.1179,-0.78245 -2.11621,-1.81626 10e-4,-0.82833 0.49034,-2.42641 1.32953,-4.34511 0.53325,-1.2192 11.8972,-25.303009 12.60918,-26.722839 2.01765,-4.02358 3.32579,-5.047877 6.68396,-5.23367 l 1.01581,-0.0562 v 16.15828 l 0.1547,15.975949 6.93403,-10e-4 c 3.80693,-0.0275 7.06787,0.0634 7.45071,0.0387 l 0.69606,-0.045 -0.0659,0.61543 c -0.0959,0.89501 -0.37779,2.18479 -0.61389,2.80825 -0.57953,1.53041 -1.94904,2.35743 -4.0287,2.70368 -0.3858,0.0642 -2.99992,-0.0468 -7.76305,-0.0164 l -7.58315,0.0484 v -5.5709 -5.57089 l -0.49609,-0.0596 c -0.27285,-0.0328 -2.02821,-0.06 -3.90081,-0.0604 l -3.4047,-7.9e-4 -2.35135,5.62239 -2.35135,5.6224 -0.85853,-0.0118 c -0.47218,-0.006 -1.0753,-0.0436 -1.34024,-0.0824 z m 14.76213,-17.493489 c -0.0325,-0.16242 -0.0591,-2.92182 -0.0591,-6.13201 0,-5.32698 -0.0135,-5.84191 -0.15526,-5.89629 -0.0854,-0.0328 -0.17223,-0.0426 -0.19297,-0.0219 -0.0622,0.0622 -2.32689,5.57585 -3.53769,8.61295 -0.62159,1.55915 -1.21107,3.03681 -1.30996,3.28367 l -0.1798,0.44885 h 2.7469 2.7469 z"
       id="path2983"
       sodipodi:nodetypes="ccscscccccccccsccccccccccccsccsccccc" />
    <path
       style="fill:#f4a950;fill-opacity:1;stroke:#f4a950;stroke-width:0.0357143;stroke-opacity:1"
       d="m 144.1458,96.758531 v -2.98284 l 5.36254,0.0376 c 5.89143,0.0413 6.26645,0.0742 6.70774,0.58719 0.20856,0.24246 0.21395,0.30231 0.21395,2.37409 v 2.12535 l -0.23856,0.2211 c -0.54829,0.50813 -1.88779,0.61679 -7.62807,0.61879 l -4.4176,0.002 z"
       id="path2985" />
    <path
       style="fill:#f4a950;fill-opacity:1;stroke:#f4a950;stroke-width:0.0357143;stroke-opacity:1"
       d="m 144.2403,81.220531 v -3.023806 l 1.53553,0.0043 c 2.7615,0.0078 6.32166,0.17032 7.00057,0.319608 1.70927,0.375859 2.53255,1.113688 3.04209,2.726348 0.18952,0.59982 0.61154,2.61447 0.61154,2.91937 0,0.0429 -2.74269,0.078 -6.09486,0.078 h -6.09487 z"
       id="path2987" />
    <g
       aria-label="ALECURSOS"
       transform="translate(47.211975,0.88934852)"
       id="text864"
       style="font-style:normal;font-weight:normal;font-size:10.5833px;line-height:1.25;font-family:sans-serif;white-space:pre;shape-inside:url(#rect866);fill:#f4a950;fill-opacity:1;stroke:none;stroke-width:0.1;stroke-miterlimit:4;stroke-dasharray:none;stroke-opacity:1">
      <path
         d="m 68.082181,128.3664 v -0.25321 q 0.258381,-0.0517 0.382404,-0.11369 0.129191,-0.062 0.191202,-0.17053 0.06201,-0.11369 0.06201,-0.29972 0,-0.1757 -0.04134,-0.37724 -0.04134,-0.2067 -0.118855,-0.45992 L 68.3664,126.02547 h -2.408114 l -0.175699,0.50643 q -0.134358,0.3824 -0.175699,0.57877 -0.04134,0.19637 -0.04134,0.35657 0,0.31005 0.155028,0.45475 0.160197,0.14469 0.485757,0.1912 v 0.25321 h -2.206576 v -0.25321 q 0.289387,-0.0465 0.50126,-0.3359 0.21704,-0.28938 0.418577,-0.82682 l 2.154901,-5.72056 h 0.816485 l 1.756993,5.7619 q 0.124023,0.40308 0.21704,0.61495 0.09819,0.21187 0.232543,0.33073 0.134359,0.11886 0.366902,0.1757 v 0.25321 z m -1.984369,-2.79052 h 2.160068 l -0.981849,-3.33312 z"
         style="font-style:normal;font-variant:normal;font-weight:normal;font-stretch:normal;font-family:'Cambria Math';-inkscape-font-specification:'Cambria Math';fill:#f4a950;fill-opacity:1;stroke:none;stroke-width:0.1;stroke-miterlimit:4;stroke-dasharray:none;stroke-opacity:1"
         id="path898" />
      <path
         d="m 72.758883,127.89098 h 1.353918 q 0.222208,0 0.372069,-0.0258 0.149862,-0.0258 0.253214,-0.0775 0.10852,-0.0568 0.191202,-0.14986 0.08785,-0.0982 0.165364,-0.25322 0.07752,-0.15503 0.144694,-0.38757 0.07235,-0.23771 0.175699,-0.70796 h 0.52193 l -0.103352,2.07738 h -4.645697 v -0.25321 q 0.320393,-0.0827 0.428913,-0.18087 0.108521,-0.10335 0.139526,-0.28939 0.03617,-0.18603 0.03617,-0.56843 v -4.47 q 0,-0.35657 -0.02584,-0.51676 -0.02584,-0.16537 -0.08785,-0.25322 -0.05684,-0.093 -0.155029,-0.14469 -0.09819,-0.0568 -0.335896,-0.12402 v -0.25322 h 2.175571 v 0.25322 q -0.227375,0.062 -0.32556,0.11368 -0.09302,0.0465 -0.155029,0.12919 -0.06201,0.0827 -0.09302,0.25322 -0.03101,0.17053 -0.03101,0.5426 z"
         style="font-style:normal;font-variant:normal;font-weight:normal;font-stretch:normal;font-family:'Cambria Math';-inkscape-font-specification:'Cambria Math';fill:#f4a950;fill-opacity:1;stroke:none;stroke-width:0.1;stroke-miterlimit:4;stroke-dasharray:none;stroke-opacity:1"
         id="path900" />
      <path
         d="m 81.698877,121.31259 v 1.56063 H 81.19245 q -0.07751,-0.25322 -0.160197,-0.44442 -0.08268,-0.1912 -0.170531,-0.32039 -0.08785,-0.12919 -0.19637,-0.20671 -0.103353,-0.0775 -0.248046,-0.10335 -0.144694,-0.031 -0.346231,-0.031 h -1.63297 v 2.70784 h 1.105872 q 0.227375,0 0.356566,-0.062 0.129191,-0.0672 0.211873,-0.22221 0.08785,-0.15503 0.165364,-0.48576 h 0.485757 v 1.98437 H 80.27778 q -0.07235,-0.31006 -0.160197,-0.46508 -0.08785,-0.1602 -0.211872,-0.22738 -0.118856,-0.0672 -0.361734,-0.0672 h -1.105872 v 2.98172 h 1.607132 q 0.253213,0 0.408242,-0.0413 0.160197,-0.0465 0.273884,-0.14986 0.113688,-0.10852 0.201538,-0.27905 0.08785,-0.17053 0.144693,-0.3514 0.06201,-0.18604 0.165364,-0.53743 h 0.511595 l -0.09819,1.81383 h -4.785222 v -0.25321 q 0.320393,-0.0827 0.428913,-0.18087 0.10852,-0.10335 0.139526,-0.28939 0.03617,-0.18603 0.03617,-0.56843 v -4.47 q 0,-0.35657 -0.02584,-0.51676 -0.02584,-0.16537 -0.08785,-0.25322 -0.05684,-0.093 -0.155029,-0.14469 -0.09819,-0.0568 -0.335896,-0.12402 v -0.25322 z"
         style="font-style:normal;font-variant:normal;font-weight:normal;font-stretch:normal;font-family:'Cambria Math';-inkscape-font-specification:'Cambria Math';fill:#f4a950;fill-opacity:1;stroke:none;stroke-width:0.1;stroke-miterlimit:4;stroke-dasharray:none;stroke-opacity:1"
         id="path902" />
      <path
         d="m 87.713994,121.46245 v 1.43144 h -0.511595 q -0.124023,-0.44959 -0.315226,-0.71314 -0.191202,-0.26871 -0.444415,-0.3824 -0.253214,-0.11369 -0.60978,-0.11369 -0.532266,0 -0.950844,0.35657 -0.41341,0.3514 -0.651121,1.06453 -0.237711,0.70796 -0.237711,1.71565 0,1.01286 0.19637,1.73116 0.19637,0.71313 0.578774,1.08003 0.382405,0.36173 0.940509,0.36173 0.423745,0 0.692462,-0.11885 0.268716,-0.12402 0.449583,-0.38757 0.186035,-0.26355 0.351399,-0.77515 h 0.511595 v 1.47794 q -0.485757,0.12919 -0.997352,0.19121 -0.506428,0.0672 -1.116208,0.0672 -1.312577,0 -1.984368,-0.88883 -0.671792,-0.88883 -0.671792,-2.65099 0,-1.10587 0.346231,-1.93786 0.351399,-0.83199 1.028358,-1.28674 0.676959,-0.45475 1.617467,-0.45475 0.470254,0 0.868161,0.0517 0.397908,0.0465 0.909503,0.18086 z"
         style="font-style:normal;font-variant:normal;font-weight:normal;font-stretch:normal;font-family:'Cambria Math';-inkscape-font-specification:'Cambria Math';fill:#f4a950;fill-opacity:1;stroke:none;stroke-width:0.1;stroke-miterlimit:4;stroke-dasharray:none;stroke-opacity:1"
         id="path904" />
      <path
         d="m 94.096013,125.92728 q 0,0.56327 -0.103353,0.97152 -0.09819,0.38757 -0.294555,0.68729 -0.180867,0.26872 -0.449583,0.45992 -0.268717,0.18603 -0.651121,0.29455 -0.382404,0.10852 -0.899167,0.10852 -0.625283,0 -1.074867,-0.13952 -0.444415,-0.13953 -0.73897,-0.45475 -0.289387,-0.3204 -0.418578,-0.74931 -0.129191,-0.43408 -0.129191,-1.1007 v -3.4003 q 0,-0.40308 -0.02584,-0.5426 -0.02584,-0.1447 -0.07751,-0.22738 -0.04651,-0.0827 -0.139526,-0.13952 -0.09302,-0.062 -0.346231,-0.12919 v -0.25322 h 2.170403 v 0.25322 q -0.289387,0.0723 -0.403075,0.16536 -0.113687,0.0878 -0.155028,0.26872 -0.04134,0.18086 -0.04134,0.60461 v 3.65868 q 0,0.50126 0.103352,0.84232 0.10852,0.34107 0.299722,0.53227 0.191203,0.18603 0.454752,0.27388 0.263549,0.0827 0.656288,0.0827 0.361734,0 0.635618,-0.12402 0.273884,-0.12919 0.454751,-0.38757 0.186035,-0.25838 0.253214,-0.63562 0.06718,-0.37724 0.06718,-1.01285 v -3.22977 q 0,-0.44958 -0.04651,-0.61495 -0.04134,-0.16536 -0.144694,-0.25321 -0.09819,-0.0879 -0.41341,-0.17053 v -0.25322 h 2.061883 v 0.25322 q -0.299722,0.0775 -0.41341,0.17053 -0.10852,0.093 -0.149861,0.26871 -0.04134,0.1757 -0.04134,0.59945 z"
         style="font-style:normal;font-variant:normal;font-weight:normal;font-stretch:normal;font-family:'Cambria Math';-inkscape-font-specification:'Cambria Math';fill:#f4a950;fill-opacity:1;stroke:none;stroke-width:0.1;stroke-miterlimit:4;stroke-dasharray:none;stroke-opacity:1"
         id="path906" />
      <path
         d="m 97.341283,125.302 v 1.75699 q 0,0.37207 0.02584,0.5426 0.03101,0.16537 0.08785,0.25322 0.05684,0.0827 0.155029,0.13952 0.09819,0.0517 0.335896,0.11886 v 0.25321 h -2.180739 v -0.25321 q 0.320393,-0.0827 0.428913,-0.18087 0.108521,-0.10335 0.139526,-0.28939 0.03617,-0.18603 0.03617,-0.56843 v -4.47 q 0,-0.35657 -0.02584,-0.51676 -0.02584,-0.16537 -0.08785,-0.25322 -0.05684,-0.093 -0.155029,-0.14469 -0.09819,-0.0568 -0.335896,-0.12402 v -0.25322 h 2.557976 q 1.209224,0 1.808671,0.43925 0.59945,0.43925 0.59945,1.36425 0,0.70797 -0.39274,1.20406 -0.387579,0.49609 -1.167891,0.77514 v 0.0413 q 0.315226,0.12919 0.537434,0.37207 0.227375,0.23771 0.501267,0.74413 l 0.46508,0.84749 q 0.20154,0.37207 0.34623,0.56844 0.1447,0.19637 0.29456,0.29973 0.14986,0.10335 0.3979,0.14469 v 0.25321 h -1.43143 q -0.19637,-0.27388 -0.37207,-0.58911 -0.175699,-0.31522 -0.346231,-0.64078 l -0.454751,-0.863 q -0.206705,-0.39274 -0.341063,-0.57877 -0.129191,-0.18603 -0.242879,-0.25838 -0.10852,-0.0775 -0.237711,-0.10335 -0.124023,-0.031 -0.377237,-0.031 z m 0,-3.51399 v 3.06957 h 0.583941 q 0.449584,0 0.728636,-0.062 0.279052,-0.0672 0.516762,-0.24804 0.237711,-0.18087 0.377237,-0.50126 0.144694,-0.32556 0.144694,-0.79582 0,-0.49092 -0.170532,-0.81648 -0.165364,-0.32556 -0.506427,-0.4961 -0.341064,-0.17053 -0.919838,-0.17053 -0.465086,0 -0.754473,0.0207 z"
         style="font-style:normal;font-variant:normal;font-weight:normal;font-stretch:normal;font-family:'Cambria Math';-inkscape-font-specification:'Cambria Math';fill:#f4a950;fill-opacity:1;stroke:none;stroke-width:0.1;stroke-miterlimit:4;stroke-dasharray:none;stroke-opacity:1"
         id="path908" />
      <path
         d="m 102.6536,126.75927 q 0.10336,0.45475 0.27906,0.7183 0.1757,0.26355 0.45475,0.39274 0.27905,0.12402 0.7183,0.12402 0.60461,0 0.925,-0.31522 0.32556,-0.31523 0.32556,-0.91984 0,-0.38757 -0.13436,-0.65112 -0.13435,-0.26355 -0.43924,-0.49609 -0.30489,-0.23255 -0.93018,-0.5426 -0.60461,-0.29973 -0.95601,-0.58395 -0.3514,-0.28938 -0.5271,-0.62528 -0.17053,-0.33589 -0.17053,-0.7338 0,-0.57878 0.26872,-1.00252 0.27388,-0.42891 0.79581,-0.66146 0.5271,-0.23254 1.20406,-0.23254 0.39274,0 0.76481,0.0413 0.37724,0.0413 0.94051,0.18604 v 1.39525 h -0.5116 q -0.11885,-0.45475 -0.29972,-0.70796 -0.18087,-0.25321 -0.42374,-0.3514 -0.24288,-0.10335 -0.63046,-0.10335 -0.33589,0 -0.60461,0.12402 -0.26355,0.12402 -0.41858,0.37724 -0.15502,0.24804 -0.15502,0.59428 0,0.3669 0.12919,0.62011 0.13435,0.25321 0.41341,0.47025 0.27905,0.21705 0.82682,0.48576 0.66145,0.33073 1.02319,0.61495 0.3669,0.28422 0.56844,0.65112 0.2067,0.36173 0.2067,0.84749 0,0.5426 -0.17053,0.91984 -0.17053,0.37207 -0.47542,0.60978 -0.29972,0.23254 -0.72347,0.34106 -0.41858,0.10335 -0.91984,0.10335 -0.81131,0 -1.87068,-0.27388 v -1.41593 z"
         style="font-style:normal;font-variant:normal;font-weight:normal;font-stretch:normal;font-family:'Cambria Math';-inkscape-font-specification:'Cambria Math';fill:#f4a950;fill-opacity:1;stroke:none;stroke-width:0.1;stroke-miterlimit:4;stroke-dasharray:none;stroke-opacity:1"
         id="path910" />
      <path
         d="m 110.188,128.44908 q -0.62011,0 -1.13171,-0.20153 -0.50642,-0.20671 -0.87332,-0.63562 -0.36174,-0.43408 -0.56328,-1.10587 -0.19637,-0.67179 -0.19637,-1.60713 0,-1.15239 0.3514,-1.97921 0.3514,-0.82682 1.00252,-1.25573 0.65629,-0.43408 1.51928,-0.43408 0.91984,0 1.54512,0.40824 0.63046,0.40308 0.94568,1.19372 0.32039,0.78548 0.32039,1.91719 0,1.20923 -0.36173,2.04122 -0.36173,0.83198 -1.02319,1.24539 -0.65629,0.41341 -1.53479,0.41341 z m -1.70014,-3.69485 q 0,1.58646 0.45991,2.41328 0.46509,0.82682 1.35392,0.82682 0.56327,0 0.95601,-0.35656 0.39274,-0.36174 0.58911,-1.0542 0.19637,-0.69246 0.19637,-1.61747 0,-1.12654 -0.23254,-1.86551 -0.22738,-0.74414 -0.62528,-1.08003 -0.39791,-0.3359 -0.92501,-0.3359 -0.46509,0 -0.80098,0.21704 -0.33073,0.21704 -0.55294,0.62012 -0.21704,0.3979 -0.32039,0.96634 -0.0982,0.56844 -0.0982,1.26607 z"
         style="font-style:normal;font-variant:normal;font-weight:normal;font-stretch:normal;font-family:'Cambria Math';-inkscape-font-specification:'Cambria Math';fill:#f4a950;fill-opacity:1;stroke:none;stroke-width:0.1;stroke-miterlimit:4;stroke-dasharray:none;stroke-opacity:1"
         id="path912" />
      <path
         d="m 114.8182,126.75927 q 0.10335,0.45475 0.27905,0.7183 0.1757,0.26355 0.45475,0.39274 0.27905,0.12402 0.7183,0.12402 0.60461,0 0.92501,-0.31522 0.32556,-0.31523 0.32556,-0.91984 0,-0.38757 -0.13436,-0.65112 -0.13436,-0.26355 -0.43925,-0.49609 -0.30489,-0.23255 -0.93017,-0.5426 -0.60462,-0.29973 -0.95601,-0.58395 -0.3514,-0.28938 -0.5271,-0.62528 -0.17053,-0.33589 -0.17053,-0.7338 0,-0.57878 0.26871,-1.00252 0.27389,-0.42891 0.79582,-0.66146 0.52709,-0.23254 1.20405,-0.23254 0.39274,0 0.76481,0.0413 0.37724,0.0413 0.94051,0.18604 v 1.39525 h -0.51159 q -0.11886,-0.45475 -0.29973,-0.70796 -0.18086,-0.25321 -0.42374,-0.3514 -0.24288,-0.10335 -0.63045,-0.10335 -0.3359,0 -0.60461,0.12402 -0.26355,0.12402 -0.41858,0.37724 -0.15503,0.24804 -0.15503,0.59428 0,0.3669 0.12919,0.62011 0.13436,0.25321 0.41341,0.47025 0.27905,0.21705 0.82682,0.48576 0.66146,0.33073 1.02319,0.61495 0.3669,0.28422 0.56844,0.65112 0.2067,0.36173 0.2067,0.84749 0,0.5426 -0.17053,0.91984 -0.17053,0.37207 -0.47542,0.60978 -0.29972,0.23254 -0.72347,0.34106 -0.41858,0.10335 -0.91983,0.10335 -0.81132,0 -1.87069,-0.27388 v -1.41593 z"
         style="font-style:normal;font-variant:normal;font-weight:normal;font-stretch:normal;font-family:'Cambria Math';-inkscape-font-specification:'Cambria Math';fill:#f4a950;fill-opacity:1;stroke:none;stroke-width:0.1;stroke-miterlimit:4;stroke-dasharray:none;stroke-opacity:1"
         id="path914" />
    </g>
  </g>
</svg>
