<svg
   xmlns="http://www.w3.org/2000/svg" width="27" height="38" viewBox="0 0 27 37.8">
   <defs>
         <rect x="69.9" y="104.5" width="36.5" height="13"/>
   </defs>
   <g transform="translate(-115.01444 -118.88409)">
         <g transform="matrix(0.07440722 0 0 0.07440722 109.46366 118.56406)">
            <polygon points="437.4 100.6 404.3 470.8 255.8 512 107.6 470.9 74.6 100.6 " fill="#264de4"/>
            <polygon points="256 130.9 256 480.5 376 447.2 404.3 130.9 " fill="#2965f1"/>
            <polygon points="256 313.6 256 268.2 150.3 268.2 154.4 313.6 " class="a"/>
            <polygon points="256 176.3 255.8 176.3 142.1 176.3 146.3 221.7 256 221.7 " class="a"/>
            <polygon points="256 386.2 255.8 386.2 205.2 372.6 202 336.3 177.4 336.3 156.4 336.3 162.8 407.6 255.8 433.5 256 433.4 " class="a"/>
            <polygon points="255.8 221.7 319.8 221.7 315.7 268.2 255.8 268.2 255.8 313.6 311.8 313.6 306.5 372.5 255.8 386.2 255.8 433.4 348.9 407.6 349.6 400 360.3 280.4 361.4 268.2 369.6 176.3 255.8 176.3 " fill="#fff"/>
         </g>
         <path d="m120.9 121.4v-2.4h2.3 2.3v0.8 0.8h-1.6c-0.9 0-1.6 0-1.6 0 0 0-0.1 0.1-0.1 0.9 0 0.7 0 0.8 0.1 0.9 0 0 0.8 0 1.6 0h1.6v0.8 0.8h-2.3-2.3z" style="stroke-width:0.01;stroke:#000"/>
         <path d="m126.4 123.4v-0.4h1.6 1.6l0-0.3c0-0.2 0-0.4 0-0.6l0-0.2h-1.6-1.6v-1.4-1.4h2.2 2.2v0.4 0.4h-1.5-1.5v0.6 0.6h1.5 1.5v1.4 1.4h-2.2-2.2z" style="stroke-width:0.01;stroke:#000"/>
         <path d="m131.7 123.4v-0.4h1.5c1.4 0 1.6 0 1.6-0.1 0 0 0-0.3 0-0.6v-0.5h-1.6-1.6v-1.4-1.4h2.2 2.2v0.4 0.4h-1.5-1.5v0.6 0.6h1.5 1.5v1.4 1.4h-2.2-2.2z" style="stroke-width:0.01;stroke:#000"/>
   </g>
   <style>  .a{fill:#ebebeb;}</style>
</svg>