<svg xmlns="http://www.w3.org/2000/svg" width="400" height="400" viewBox="0 0 400 400">
    <path d="M22 0.5C21.2 0.7 20.2 1.2 19.7 1.7 19.3 2.1 18.3 2.8 17.7 3.1 14.2 5 12.1 6.7 8.1 10.8 7.9 11.1 7.4 11.6 7 11.9 6.1 12.8 3.7 16.3 3.1 17.6 2.9 18.2 2.3 19.1 1.8 19.6 1.3 20.2 0.7 21.3 0.4 22.2 -0.1 24.1-0.2 377 0.3 376.6 0.5 376.5 0.6 377 0.5 377.7 0.4 378.5 0.4 378.8 0.7 378.6 1 378.5 1.1 378.6 1 378.9 0.7 379.6 2.3 381.3 2.8 381 3 380.9 3 381.1 2.9 381.5 2.7 382.3 5.1 385.7 5.6 385.4 5.8 385.3 5.9 385.4 5.8 385.7 5.5 386.5 7.1 388.9 7.8 388.6 8.2 388.5 8.4 388.5 8.3 388.7 8.2 388.9 8.3 389.5 8.7 390 9.2 390.9 9.2 391 9.1 390.1 9 389.6 9 389.1 9.2 389 9.4 388.9 9.6 389.3 9.6 390 9.6 390.7 9.9 391.3 10.4 391.6 11.4 392.2 11.6 392.1 11.4 391.3 11.2 390.8 11.3 390.8 11.7 391.4 11.9 391.8 12.2 392.4 12.2 392.6 12.2 392.9 13.1 393.7 14.1 394.5 16.1 396.1 16.7 396.3 16.2 395.5 16 395.2 16.1 395.2 16.4 395.4 16.6 395.5 16.8 395.8 16.6 395.9 16.3 396.2 17.2 397.2 17.7 397.2 18 397.2 17.9 397 17.6 396.8 17.3 396.6 17.2 396.4 17.4 396.4 17.6 396.4 18.3 397 19 397.6 20.8 399.5 22.3 400.2 23.4 399.7 24 399.4 24.5 399.4 24.6 399.6 24.9 400.2 375.1 400.1 375.4 399.6 375.6 399.3 375.9 399.3 376.4 399.6 377.4 400.1 379.4 399.3 381.2 397.5 381.9 396.8 382.4 396.4 382.2 396.7 381.7 397.6 382.8 397.2 384.2 396 385 395.3 385.6 394.4 385.6 394.1 385.6 393.5 385.7 393.5 386 394 386.3 394.5 386.5 394.5 386.9 394.1 387.3 393.7 387.3 393.6 386.9 393.6 386.6 393.6 386.5 393.4 386.6 393.2 386.8 392.8 387 392.9 387.2 393.2 387.5 393.6 387.8 393.5 388.7 392.6 393.4 388.1 394.7 386.4 394.2 385.5 394 385.3 394.1 385.2 394.3 385.3 394.9 385.7 396.1 384.2 395.8 383.5 395.6 383.2 395.6 383.1 395.8 383.3 396.2 383.7 397.2 382.9 397.2 382.3 397.2 382 397 382 396.8 382.3 396.7 382.6 396.4 382.7 396.3 382.5 396.2 382.4 396.3 382 396.6 381.7 396.9 381.4 397.2 381.3 397.2 381.4 397.2 382 398.8 379.6 399.4 378.3 399.7 377.5 399.8 376.8 399.6 376.3 399.3 375.9 399.3 375.6 399.6 375.4 400.2 375 400.2 23.4 399.6 21.6 399.3 20.9 398.7 19.9 398.2 19.4 397.6 18.9 397.2 18.2 397.2 18 397.2 17.7 396.4 16.5 395.4 15.2 394.4 14 393.6 12.8 393.6 12.7 393.6 12.6 393 11.9 392.4 11.1 391.7 10.4 391 9.7 390.9 9.5 389.9 8.4 386.6 5.6 386.3 5.6 386.1 5.6 385.2 5 384.3 4.2 383.4 3.4 382.4 2.8 382 2.8 381.7 2.8 381 2.3 380.5 1.8 380 1.3 378.9 0.6 378.1 0.4 376.1-0.1 24-0.1 22 0.5M242 62.4C261.4 63.4 273.4 64.4 276.8 65.4 278.5 65.9 280.8 66.5 281.9 66.6 282.9 66.8 285.4 67.5 287.3 68.2 289.2 69 290.9 69.6 291.1 69.6 292.4 69.6 301.2 74.4 305.1 77.1 312.9 82.6 322.2 92.5 325.6 99 328.4 104.1 330.4 108.4 330.8 110 331.1 111 331.6 112.5 332.1 113.3 332.5 114.2 333.1 116.2 333.4 117.9 333.8 119.6 334.4 122.1 334.8 123.6 335.7 126.3 336.3 132.2 337.5 150.2 339.8 184.7 338.1 269.9 334.8 279.3 334.4 280.5 334 282.3 333.8 283.4 333.7 284.5 333 286.6 332.4 288.1 331.7 289.5 331.2 291 331.2 291.3 331.2 291.6 330.6 293.1 329.8 294.6 329 296.2 328.4 297.5 328.4 297.7 328.4 298.1 325.7 302.7 324.3 304.7 318.6 313 308.6 322.8 302.8 325.8 302 326.2 300.9 326.9 300.2 327.4 299.5 327.9 298.6 328.4 298 328.6 297.5 328.8 296.3 329.3 295.4 329.8 294.5 330.3 292.8 331 291.6 331.4 290.4 331.8 288.9 332.4 288.2 332.7 287.5 333.1 285.4 333.7 283.4 334.2 281.4 334.7 278.8 335.4 277.6 335.7 275.5 336.3 265.4 337.6 256.2 338.5 241.6 339.8 148.5 339.2 135.9 337.6 132.6 337.2 128.5 336.7 127 336.6 125.5 336.4 122.9 335.9 121.2 335.4 119.6 334.9 117.2 334.3 116.1 334 114.9 333.8 112.7 333.1 111.2 332.4 109.7 331.7 108.2 331.2 108 331.2 107.7 331.2 106.6 330.7 105.4 330 104.3 329.4 103 328.8 102.5 328.6 97.1 327 85.2 317 78.8 308.8 74.9 303.8 69.9 294.7 68.8 290.6 68.5 289.7 68 288.5 67.7 287.8 67.3 287.1 66.6 284.9 66.2 282.8 65.7 280.7 65 277.9 64.7 276.6 61.8 265.1 60.5 187.8 62.6 152.2 63.7 132.9 64.5 125.5 65.6 122.6 65.9 121.9 66.3 120 66.7 118.2 67 116.5 67.6 114.4 68 113.6 68.4 112.8 68.9 111.4 69.2 110.4 69.4 109.4 70.2 107.6 70.8 106.4 71.4 105.2 72 103.8 72.2 103.2 72.4 102.7 72.9 101.6 73.4 100.9 74 100.2 74.6 99.2 74.8 98.7 77.6 91.3 92.8 77.2 103.2 72.4 104.2 71.9 105.8 71.1 106.8 70.6 107.8 70.1 109.4 69.5 110.4 69.2 111.4 68.9 112.8 68.4 113.6 68 114.4 67.6 116.5 67 118.2 66.7 120 66.3 122.2 65.8 123.1 65.4 126 64.4 136.4 63.5 156.8 62.4 166 62 232.6 61.9 242 62.4M154.8 86C136.8 87 132.1 87.3 130.1 87.8 124.9 89 119.4 90.5 118.6 91 118.2 91.3 116.9 91.8 115.8 92.2 106.8 95.6 95.7 106.7 92.2 115.8 91.8 116.9 91.2 118.2 91 118.6 90.5 119.4 88.9 125.3 87.8 130.2 85.2 142 85.1 235.6 87.6 263.8 88.3 271.7 90.8 280.3 94.5 287.4 97.7 293.6 106.3 302.4 111.8 305.1 112.7 305.5 113.9 306.2 114.6 306.5 116.4 307.5 123.1 310 123.9 310 124.3 310 126.1 310.4 127.8 310.8 133.3 312.3 134.6 312.4 151.5 313 173.8 313.8 226 313.8 248.4 313 265.1 312.4 266.5 312.3 272.3 310.9 274 310.4 276.4 309.9 277.7 309.6 279 309.4 280.1 309 280.2 308.8 280.3 308.6 281.4 308.2 282.5 307.8 291.1 305 301.2 296 306 287 306.9 285.3 307.6 283.7 307.6 283.5 307.6 283.4 308.1 282.2 308.6 281 309.2 279.8 309.9 277.6 310.2 276.1 310.5 274.6 311.2 272.1 311.6 270.4 312.4 267.4 312.7 263.7 313.6 245.2 315.4 207.9 314.2 134.5 311.6 127.1 311.2 125.9 310.8 124.2 310.6 123.2 308.3 109.3 291.5 92.4 277.1 89.6 275.8 89.3 273.7 88.8 272.5 88.4 265.9 86.1 183.7 84.5 154.8 86M279.1 111.3C285.3 113 289.7 119.2 289.7 126 289.7 136.6 279.4 144.3 269.6 141 249.6 134.2 258.9 105.5 279.1 111.3M214 131C215.2 131.3 217.8 132 219.8 132.5 221.8 133.1 224.1 133.8 225 134.3 225.9 134.7 227.3 135.3 228.1 135.6 229.8 136.1 235.5 139 236.4 139.8 236.7 140.1 237.6 140.6 238.3 141 243.9 143.8 255.9 155.8 259.7 162.4 262.4 167 264.4 170.9 264.8 172.3 265.1 173.1 265.6 174.3 266 175 266.4 175.7 266.9 177.2 267.2 178.4 267.5 179.6 268.1 181.9 268.6 183.5 270.9 190.5 271 209.9 268.8 216.6 268.4 217.9 267.7 220.3 267.3 221.8 263.3 236.4 251.9 251 237 260.6 235.5 261.6 234 262.4 233.8 262.4 233.6 262.4 232.8 262.8 232 263.3 231.2 263.9 229.9 264.5 229 264.8 228.1 265.1 226.8 265.6 226 266.1 225.2 266.5 223 267.3 221 267.8 219 268.4 216.6 269.1 215.6 269.4 208.4 271.5 190.7 271.1 182.4 268.8 173.4 266.2 171.1 265.2 162.3 260 155 255.8 145.3 246 140.1 237.8 138.6 235.4 135.2 228.7 135.2 228.2 135.2 228 134.8 227.1 134.4 226.3 133.9 225.4 133.3 223.6 133 222.3 132.6 220.9 131.9 218.4 131.4 216.7 129.4 210.3 129.2 191.5 131.1 185.1 131.4 183.9 132.1 181.5 132.6 179.6 133.1 177.7 134 175.1 134.6 173.8 136.6 169.3 138.6 165.4 139.4 164.2 139.9 163.5 140.6 162.4 141 161.7 143.5 156.7 158 142.4 161.9 140.9 162.3 140.8 163.5 140.1 164.5 139.3 165.6 138.6 166.7 138 167 138 167.2 138 168 137.6 168.8 137.1 169.6 136.5 170.9 135.9 171.8 135.6 172.7 135.3 174.2 134.7 175.2 134.2 176.2 133.7 177.8 133.1 178.6 133 179.5 132.9 181.6 132.3 183.3 131.7 188.9 129.9 208.6 129.4 214 131M192.9 153.6C191.5 153.8 189.1 154.4 187.4 155 185.8 155.5 184.2 156 183.9 156 182.1 156 173.5 161.2 169.6 164.7 161.4 171.9 157.1 179.1 154.1 191 152.9 195.8 153.6 208.1 155.3 213.3 161.2 230.9 174 242.2 192.2 246 194.9 246.6 206.3 246.5 208.8 245.8 219.1 243.2 224.1 240.8 230.2 235.4 237.7 229 242 222.2 245 212.4L246.6 207.4 246.6 199.8C246.5 194.1 246.4 191.7 245.9 190.2 245.6 189.1 245 187.1 244.6 185.8 238.8 164.8 215.6 150.4 192.9 153.6M393.6 386.6C393.6 386.9 391.1 389.6 390.8 389.6 390.6 389.6 391.2 388.9 392 388 393.4 386.4 393.6 386.3 393.6 386.6" fill="#fbf9f9"/><path d="M156.8 62.4C136.4 63.5 126 64.4 123.1 65.4 122.2 65.8 120 66.3 118.2 66.7 116.5 67 114.4 67.6 113.6 68 112.8 68.4 111.4 68.9 110.4 69.2 109.4 69.5 107.8 70.1 106.8 70.6 105.8 71.1 104.2 71.9 103.2 72.4 92.8 77.2 77.6 91.3 74.8 98.7 74.6 99.2 74 100.2 73.4 100.9 72.9 101.6 72.4 102.7 72.2 103.2 72 103.8 71.4 105.2 70.8 106.4 70.2 107.6 69.4 109.4 69.2 110.4 68.9 111.4 68.4 112.8 68 113.6 67.6 114.4 67 116.5 66.7 118.2 66.3 120 65.9 121.9 65.6 122.6 60.9 135.1 60.1 258.3 64.7 276.6 65 277.9 65.7 280.7 66.2 282.8 66.6 284.9 67.3 287.1 67.7 287.8 68 288.5 68.5 289.7 68.8 290.6 69.9 294.7 74.9 303.8 78.8 308.8 85.2 317 97.1 327 102.5 328.6 103 328.8 104.3 329.4 105.4 330 106.6 330.7 107.7 331.2 108 331.2 108.2 331.2 109.7 331.7 111.2 332.4 112.7 333.1 114.9 333.8 116.1 334 117.2 334.3 119.6 334.9 121.2 335.4 122.9 335.9 125.5 336.4 127 336.6 128.5 336.7 132.6 337.2 135.9 337.6 148.5 339.2 241.6 339.8 256.2 338.5 265.4 337.6 275.5 336.3 277.6 335.7 278.8 335.4 281.4 334.7 283.4 334.2 285.4 333.7 287.5 333.1 288.2 332.7 288.9 332.4 290.4 331.8 291.6 331.4 292.8 331 294.5 330.3 295.4 329.8 296.3 329.3 297.5 328.8 298 328.6 298.6 328.4 299.5 327.9 300.2 327.4 300.9 326.9 302 326.2 302.8 325.8 308.6 322.8 318.6 313 324.3 304.7 325.7 302.7 328.4 298.1 328.4 297.7 328.4 297.5 329 296.2 329.8 294.6 330.6 293.1 331.2 291.6 331.2 291.3 331.2 291 331.7 289.5 332.4 288.1 333 286.6 333.7 284.5 333.8 283.4 334 282.3 334.4 280.5 334.8 279.3 338.1 269.9 339.8 184.7 337.5 150.2 336.3 132.2 335.7 126.3 334.8 123.6 334.4 122.1 333.8 119.6 333.4 117.9 333.1 116.2 332.5 114.2 332.1 113.3 331.6 112.5 331.1 111 330.8 110 330.4 108.4 328.4 104.1 325.6 99 322.2 92.5 312.9 82.6 305.1 77.1 301.2 74.4 292.4 69.6 291.1 69.6 290.9 69.6 289.2 69 287.3 68.2 285.4 67.5 282.9 66.8 281.9 66.6 280.8 66.5 278.5 65.9 276.8 65.4 273.4 64.4 261.4 63.4 242 62.4 232.6 61.9 166 62 156.8 62.4M248.3 86.2C265.2 87 269.8 87.4 272.5 88.4 273.7 88.8 275.8 89.3 277.1 89.6 291.5 92.4 308.3 109.3 310.6 123.2 310.8 124.2 311.2 125.9 311.6 127.1 314.2 134.5 315.4 207.9 313.6 245.2 312.7 263.7 312.4 267.4 311.6 270.4 311.2 272.1 310.5 274.6 310.2 276.1 309.9 277.6 309.2 279.8 308.6 281 308.1 282.2 307.6 283.4 307.6 283.5 307.6 283.7 306.9 285.3 306 287 301.2 296 291.1 305 282.5 307.8 281.4 308.2 280.3 308.6 280.2 308.8 280.1 309 279 309.4 277.7 309.6 276.4 309.9 274 310.4 272.3 310.9 266.5 312.3 265.1 312.4 248.4 313 226 313.8 173.8 313.8 151.5 313 134.6 312.4 133.3 312.3 127.8 310.8 126.1 310.4 124.3 310 123.9 310 123.1 310 116.4 307.5 114.6 306.5 113.9 306.2 112.7 305.5 111.8 305.1 106.3 302.4 97.7 293.6 94.5 287.4 90.8 280.3 88.3 271.7 87.6 263.8 85.1 235.6 85.2 142 87.8 130.2 88.9 125.3 90.5 119.4 91 118.6 91.2 118.2 91.8 116.9 92.2 115.8 95.7 106.7 106.8 95.6 115.8 92.2 116.9 91.8 118.2 91.3 118.6 91 119.4 90.5 124.9 89 130.1 87.8 132.1 87.3 136.8 87 154.8 86 166.1 85.4 235 85.5 248.3 86.2M268.7 111.4C258.9 114.6 255.2 127.9 262 136 271.5 147.3 289.7 140.8 289.7 126 289.7 115.1 279.5 108 268.7 111.4M189.7 130.4C187.8 130.6 185 131.2 183.3 131.7 181.6 132.3 179.5 132.9 178.6 133 177.8 133.1 176.2 133.7 175.2 134.2 174.2 134.7 172.7 135.3 171.8 135.6 170.9 135.9 169.6 136.5 168.8 137.1 168 137.6 167.2 138 167 138 166.7 138 165.6 138.6 164.5 139.3 163.5 140.1 162.3 140.8 161.9 140.9 158 142.4 143.5 156.7 141 161.7 140.6 162.4 139.9 163.5 139.4 164.2 138.6 165.4 136.6 169.3 134.6 173.8 134 175.1 133.1 177.7 132.6 179.6 132.1 181.5 131.4 183.9 131.1 185.1 129.2 191.5 129.4 210.3 131.4 216.7 131.9 218.4 132.6 220.9 133 222.3 133.3 223.6 133.9 225.4 134.4 226.3 134.8 227.1 135.2 228 135.2 228.2 135.2 228.7 138.6 235.4 140.1 237.8 145.3 246 155 255.8 162.3 260 171.1 265.2 173.4 266.2 182.4 268.8 190.7 271.1 208.4 271.5 215.6 269.4 216.6 269.1 219 268.4 221 267.8 223 267.3 225.2 266.5 226 266.1 226.8 265.6 228.1 265.1 229 264.8 229.9 264.5 231.2 263.9 232 263.3 232.8 262.8 233.6 262.4 233.8 262.4 234 262.4 235.5 261.6 237 260.6 251.9 251 263.3 236.4 267.3 221.8 267.7 220.3 268.4 217.9 268.8 216.6 271 209.9 270.9 190.5 268.6 183.5 268.1 181.9 267.5 179.6 267.2 178.4 266.9 177.2 266.4 175.7 266 175 265.6 174.3 265.1 173.1 264.8 172.3 264.4 170.9 262.4 167 259.7 162.4 255.9 155.8 243.9 143.8 238.3 141 237.6 140.6 236.7 140.1 236.4 139.8 235.5 139 229.8 136.1 228.1 135.6 227.3 135.3 225.9 134.7 225 134.3 224.1 133.8 221.8 133.1 219.8 132.5 217.8 132 215.2 131.3 214 131 211.4 130.2 195 129.8 189.7 130.4M213.2 155.1C228.7 160 240.7 171.8 244.6 185.8 245 187.1 245.6 189.1 245.9 190.2 246.4 191.7 246.5 194.1 246.6 199.8L246.6 207.4 245 212.4C242 222.2 237.7 229 230.2 235.4 224.1 240.8 219.1 243.2 208.8 245.8 206.3 246.5 194.9 246.6 192.2 246 174 242.2 161.2 230.9 155.3 213.3 153.6 208.1 152.9 195.8 154.1 191 157.1 179.1 161.4 171.9 169.6 164.7 173.5 161.2 182.1 156 183.9 156 184.2 156 185.8 155.5 187.4 155 194.4 152.6 205.3 152.6 213.2 155.1M399.5 375.4C399.4 375.6 399.3 375.9 399.5 376.2 399.6 376.5 399.5 376.8 399.2 377 399 377.1 398.8 377.5 398.8 377.7 398.8 378 399.1 377.8 399.4 377.3 400 376.4 400.1 374.8 399.5 375.4M392 388C391.2 388.9 390.6 389.6 390.8 389.6 391.1 389.6 393.6 386.9 393.6 386.6 393.6 386.3 393.4 386.4 392 388M9.1 389.1C9 389.3 9 389.8 9.2 390.2 9.5 390.9 9.5 390.9 9.6 389.9 9.6 388.8 9.4 388.5 9.1 389.1M21.8 398.8C21.7 399 21.8 399.3 22 399.4 22.6 399.7 24.9 400 24.6 399.7 24.5 399.5 24.1 399.4 23.9 399.4 23.6 399.3 23.1 399.3 22.7 399.3 22.3 399.2 22.1 399 22.2 398.8 22.3 398.6 22.4 398.4 22.2 398.4 22.1 398.4 21.9 398.6 21.8 398.8M377.5 399C376.8 399.3 376.2 399.5 376 399.4 375.8 399.3 375.6 399.3 375.4 399.5 375.3 399.7 375.5 399.9 375.9 399.8 376.8 399.7 378.8 398.9 378.8 398.6 378.8 398.3 378.7 398.3 377.5 399" fill="#fbf9f9"/>
</svg>