<?xml version="1.0" encoding="UTF-8" standalone="no"?>
<svg
   xmlns:dc="http://purl.org/dc/elements/1.1/"
   xmlns:cc="http://creativecommons.org/ns#"
   xmlns:rdf="http://www.w3.org/1999/02/22-rdf-syntax-ns#"
   xmlns:svg="http://www.w3.org/2000/svg"
   xmlns="http://www.w3.org/2000/svg"
   xmlns:sodipodi="http://sodipodi.sourceforge.net/DTD/sodipodi-0.dtd"
   xmlns:inkscape="http://www.inkscape.org/namespaces/inkscape"
   id="svg"
   width="400"
   height="400"
   viewBox="0, 0, 400,400"
   version="1.1"
   sodipodi:docname="linkedin-icon2.svg"
   inkscape:version="1.0.2-2 (e86c870879, 2021-01-15)">
  <metadata
     id="metadata186">
    <rdf:RDF>
      <cc:Work
         rdf:about="">
        <dc:format>image/svg+xml</dc:format>
        <dc:type
           rdf:resource="http://purl.org/dc/dcmitype/StillImage" />
        <dc:title></dc:title>
      </cc:Work>
    </rdf:RDF>
  </metadata>
  <defs
     id="defs184" />
  <sodipodi:namedview
     pagecolor="#ffffff"
     bordercolor="#666666"
     borderopacity="1"
     objecttolerance="10"
     gridtolerance="10"
     guidetolerance="10"
     inkscape:pageopacity="0"
     inkscape:pageshadow="2"
     inkscape:window-width="1366"
     inkscape:window-height="745"
     id="namedview182"
     showgrid="false"
     inkscape:zoom="1.3975"
     inkscape:cx="43.649374"
     inkscape:cy="171.37746"
     inkscape:window-x="1358"
     inkscape:window-y="-8"
     inkscape:window-maximized="1"
     inkscape:current-layer="svg" />
  <g
     id="svgg">
    <path
       id="path0"
       d="M10.284 10.284 L 0.000 20.569 -0.000 200.000 L -0.000 379.431 10.284 389.716 L 20.569 400.000 200.000 400.000 L 379.431 400.000 389.716 389.716 L 400.000 379.431 400.000 200.000 L 400.000 20.569 389.716 10.284 L 379.431 0.000 200.000 0.000 L 20.569 0.000 10.284 10.284 M111.345 64.946 C 125.835 72.438,131.661 94.855,123.314 110.996 C 108.039 140.536,60.915 129.178,60.455 95.845 C 60.080 68.627,86.934 52.322,111.345 64.946 M303.420 154.614 C 336.559 170.046,340.292 181.464,340.350 267.550 L 340.397 337.748 310.596 338.497 L 280.795 339.246 280.795 282.074 C 280.795 219.085,279.511 212.853,264.987 205.343 C 251.709 198.476,239.620 200.145,228.438 210.388 L 218.543 219.451 217.699 279.262 L 216.854 339.073 187.897 339.073 L 158.940 339.073 158.940 246.358 L 158.940 153.642 188.079 153.642 L 217.219 153.642 217.219 163.434 L 217.219 173.225 225.828 164.898 C 244.238 147.092,277.732 142.653,303.420 154.614 M121.325 156.821 C 125.874 161.371,125.874 331.344,121.325 335.894 C 117.012 340.207,71.067 340.207,66.755 335.894 C 62.205 331.344,62.205 161.371,66.755 156.821 C 71.067 152.509,117.012 152.509,121.325 156.821 "
       stroke="none"
       fill="#000000"
       fill-rule="evenodd" />
  </g>
  <path
     style="fill:#ffffff;stroke:none;stroke-width:0.715564;fill-opacity:1"
     d="m 77.370159,338.08705 c -7.467957,-0.85743 -10.211314,-1.8196 -10.750785,-3.77059 -1.762788,-6.37511 -2.202642,-23.77622 -2.21043,-87.44705 -0.0081,-66.2049 0.530602,-85.41482 2.498385,-89.09166 1.355589,-2.53294 7.130656,-3.21603 27.189272,-3.21603 21.173709,0 26.079189,0.65246 27.206949,3.61868 1.55067,4.07858 2.27504,24.23621 2.63486,73.3226 0.44645,60.90529 -0.71008,102.03671 -2.93153,104.25815 -2.15841,2.15842 -31.482154,3.72142 -43.636721,2.3259 z"
     id="path188" />
  <path
     style="fill:#ffffff;stroke:none;stroke-width:0.715564;fill-opacity:1"
     d="M 86.784718,126.61686 C 73.257062,123.33731 63.04973,112.69485 61.323162,100.06991 59.229951,84.764024 66.666135,70.707185 80.3003,64.196861 c 5.433317,-2.594413 5.765389,-2.658096 13.796301,-2.645804 6.848999,0.01048 8.901599,0.282603 12.239919,1.622685 11.59801,4.655736 17.94913,13.163668 20.08572,26.90674 1.54591,9.943638 -2.16409,21.171648 -9.38179,28.393248 -7.87046,7.87472 -19.00338,10.87107 -30.255732,8.14313 z"
     id="path190" />
  <path
     style="fill:#ffffff;stroke:none;stroke-width:0.715564;fill-opacity:1"
     d="m 159.21288,246.51163 v -92.30769 h 28.98032 28.98032 v 9.738 9.738 l 5.99542,-5.67516 c 13.54968,-12.8259 26.8603,-18.50857 45.26893,-19.32655 14.41027,-0.64031 25.87955,1.84484 39.04184,8.45952 19.08994,9.59362 26.15155,19.52832 29.47899,41.47285 2.16622,14.28614 2.64232,27.11374 3.06909,82.68921 l 0.42923,55.8973 -12.80454,0.44698 c -7.0425,0.24584 -20.42714,0.65245 -29.74365,0.90357 l -16.93912,0.45659 -0.3173,-53.93862 c -0.27335,-46.46699 -0.48201,-54.78114 -1.50631,-60.02091 -1.45671,-7.45166 -3.94416,-12.75968 -7.40238,-15.79603 -3.73591,-3.28017 -12.07877,-7.0394 -17.68381,-7.96818 -9.88916,-1.63869 -17.44639,1.33818 -28.52014,11.23437 l -7.2929,6.51739 -0.51116,37.53217 c -0.28114,20.64269 -0.72074,47.59477 -0.97688,59.89352 l -0.46571,22.36136 H 187.753 159.21288 Z"
     id="path192" />
</svg>
