<svg id="svg" xmlns="http://www.w3.org/2000/svg" xmlns:xlink="http://www.w3.org/1999/xlink" width="400" height="400" viewBox="0, 0, 400,400" version="1.1"><g id="svgg"><path id="path0" d="M10.284 10.284 L 0.000 20.569 -0.000 200.000 L -0.000 379.431 10.284 389.716 L 20.569 400.000 200.000 400.000 L 379.431 400.000 389.716 389.716 L 400.000 379.431 400.000 200.000 L 400.000 20.569 389.716 10.284 L 379.431 0.000 200.000 0.000 L 20.569 0.000 10.284 10.284 M111.345 64.946 C 125.835 72.438,131.661 94.855,123.314 110.996 C 108.039 140.536,60.915 129.178,60.455 95.845 C 60.080 68.627,86.934 52.322,111.345 64.946 M303.420 154.614 C 336.559 170.046,340.292 181.464,340.350 267.550 L 340.397 337.748 310.596 338.497 L 280.795 339.246 280.795 282.074 C 280.795 219.085,279.511 212.853,264.987 205.343 C 251.709 198.476,239.620 200.145,228.438 210.388 L 218.543 219.451 217.699 279.262 L 216.854 339.073 187.897 339.073 L 158.940 339.073 158.940 246.358 L 158.940 153.642 188.079 153.642 L 217.219 153.642 217.219 163.434 L 217.219 173.225 225.828 164.898 C 244.238 147.092,277.732 142.653,303.420 154.614 M121.325 156.821 C 125.874 161.371,125.874 331.344,121.325 335.894 C 117.012 340.207,71.067 340.207,66.755 335.894 C 62.205 331.344,62.205 161.371,66.755 156.821 C 71.067 152.509,117.012 152.509,121.325 156.821 " stroke="none" fill="#000000" fill-rule="evenodd">
    </path></g>
</svg>