<svg xmlns="http://www.w3.org/2000/svg" viewBox="0 0 45.3 51.9" width="45" height="52">
  <path d="M34.4 3 33.1 2.3 31.7 1.6H31.2L30 1.1C27.7 0.3 25.3 0 22.9 0 10.3 0 0 10.3 0 22.9 0 33.8 7.8 43.3 18.5 45.3v6.6C32.2 49.8 44.3 39 45.2 24.7 45.9 16 41.7 7.7 34.4 3ZM17.5 8.6c0.8-0.1 1.6 0.2 2.1 0.9 1.8 2 1.9 4.9 0.4 7.1-2-0.4-3.7-1.9-4.5-3.8-0.3-0.6-0.4-1.2-0.4-1.8 0.1-1.3 1.1-2.3 2.4-2.4zm-6.9 6.8H11c0.7 0 1.4 0.2 2 0.5 1.9 0.8 3.3 2.4 3.8 4.3-1.7 1.2-4 1.4-5.9 0.6C10.3 20.5 9.8 20.2 9.2 19.8 8.1 19.1 7.8 17.6 8.5 16.5 9.1 15.7 9.9 15.2 10.6 15.4ZM13 29.5C12.4 29.8 11.7 30 11 30 9.6 30.1 8.4 29.2 8.3 27.8 8.2 27 8.5 26.2 9.1 25.7c0.5-0.4 1-0.8 1.7-1 0.7-0.3 1.5-0.5 2.3-0.5 1.3 0 2.5 0.3 3.6 1-0.4 1.9-1.7 3.4-3.5 4.1zm7.7 4.5c-0.3 0.6-0.6 1.1-1 1.7-1 1-2.6 1.1-3.7 0.1-0.5-0.5-0.8-1.2-0.8-1.9 0-0.6 0.2-1.2 0.4-1.8 0.8-2 2.5-3.4 4.6-3.8 1.1 1.7 1.3 3.8 0.5 5.6zm3.8-22.8c0.3-0.6 0.6-1.1 1-1.7 0.5-0.6 1.3-1 2.2-0.9 1.4 0.1 2.5 1.3 2.5 2.7 0 0.6-0.2 1.3-0.4 1.8C29 15 27.3 16.3 25.3 16.7 24 15 23.7 12.8 24.7 10.9Zm1.3 24.2c-1.8-2-1.9-4.9-0.4-7.1 2 0.4 3.7 1.8 4.6 3.6 0.3 0.6 0.4 1.2 0.4 1.8-0.3 1.5-1.7 2.6-3.3 2.3-0.5-0.1-0.9-0.3-1.3-0.6zm8.4-5.9c-0.7 0-1.4-0.2-2-0.5-1.9-0.8-3.3-2.4-3.8-4.3 1.1-0.7 2.3-1.1 3.6-1 0.8 0 1.5 0.2 2.3 0.5 0.6 0.3 1.1 0.6 1.7 1 1.1 0.8 1.3 2.3 0.5 3.4-0.5 0.7-1.3 1.1-2.1 1z" fill="#00a818"/>
  <path d="m207.1 125.8c-3.7 0-7.1 2-8.8 5.3 0-0.8 0.4-1.8 0.4-2.5v-1.5h-7v34.9h7v-20.1c0-5.6 3.1-9.2 8.5-9.2h1.4v-7h-1.5zm-283.4 12.8c-1.8-3.2-5.1-5.2-8.8-5.2-6.1 0-11 5-11 11.1 0 6.1 4.9 11 11 11 3.6 0.1 7-1.9 8.8-5l6.4 3.8c-3.4 5.1-9.1 8.2-15.2 8.3-9.9 0.6-18.3-7-18.9-16.9-0.6-9.9 7-18.3 16.9-18.9h2c6.2-0.1 11.9 3 15.2 8.3zm12.5-11h7.2v19c-0.2 4.5 3.3 8.3 7.8 8.4h0.4c4.6-0.1 8.2-3.9 8.2-8.5v-19h7.2v19.6c0.2 8.3-6.4 15.1-14.7 15.3h-0.8c-8.3 0.3-15.2-6.2-15.5-14.4v-20.4zm65 11c-1.8-3.2-5.1-5.2-8.8-5.2-6.1 0-11 5-11 11.1 0 6.1 4.9 11 11 11 3.6 0.1 7-1.9 8.8-5l6.4 3.8c-3.4 5.1-9.1 8.2-15.2 8.3-9.9 0.6-18.3-7-18.9-16.9-0.6-9.9 7-18.3 16.9-18.9h2c6.2-0.1 11.9 3 15.2 8.3zm12.5-11h7.2v19c-0.2 4.5 3.3 8.3 7.8 8.4h0.4c4.6-0.1 8.2-3.9 8.2-8.5v-19h7.2v19.6c0 8.6-6.9 15.5-15.5 15.5-8.6 0-15.5-6.9-15.5-15.5zm40 12.7c0-8.7 5.6-13.6 12.4-13.6 4.3-0.3 8.3 2.1 10.1 6 1.7-4 5.8-6.4 10.2-6 6.7 0 12.4 5 12.4 13.6v21.2h-7v-21.2c0.4-3.1-1.7-5.9-4.8-6.4-0.3 0-0.6-0.1-0.8-0.1-3.5 0-6 2.1-6 7.4v20.1h-7.2v-20.2c0-5.3-2.5-7.4-6-7.4-3.1 0-5.7 2.5-5.7 5.6 0 0.3 0 0.6 0.1 0.8v21.2h-7.7zm54.3-22.8h7.2v14.3c2.7-3.3 6.8-5.2 11-5 9.9 0 17.9 8 17.9 17.9 0 9.9-8 17.9-17.9 17.9-4.3 0.2-8.4-1.7-11-5v4.2h-7.2zm17.7 16.1c-6.1-0.2-11.2 4.5-11.5 10.6-0.2 6.1 4.5 11.2 10.6 11.5 6.1 0.3 11.2-4.5 11.5-10.6v-0.4c0.3-5.8-4.2-10.7-10-11-0.2-0.1-0.4-0.1-0.6-0.1zm57.3 20.5c-3.7 5.1-9.5 8.1-15.8 8.3-9.8 0.4-18.1-7.3-18.5-17.1-0.4-9.8 7.3-18.1 17.1-18.5h1.4c10.1 0.4 18 8.9 17.6 19v1.3h-28c0.7 5.2 5.1 9 10.3 9 3.9-0.1 7.6-2.1 9.8-5.3zm-6.7-13.1c-1-4.7-5.2-8-10-8-4.7 0-8.7 3.4-9.6 8z" fill="#00a818"/>
</svg>