<?xml version="1.0" encoding="UTF-8" standalone="no"?>
<svg
   xmlns:dc="http://purl.org/dc/elements/1.1/"
   xmlns:cc="http://creativecommons.org/ns#"
   xmlns:rdf="http://www.w3.org/1999/02/22-rdf-syntax-ns#"
   xmlns:svg="http://www.w3.org/2000/svg"
   xmlns="http://www.w3.org/2000/svg"
   xmlns:sodipodi="http://sodipodi.sourceforge.net/DTD/sodipodi-0.dtd"
   xmlns:inkscape="http://www.inkscape.org/namespaces/inkscape"
   viewBox="0 0 45.275671 51.900003"
   version="1.1"
   id="svg1640"
   sodipodi:docname="cucumber.svg"
   inkscape:version="1.0.1 (3bc2e813f5, 2020-09-07)"
   width="45.275669"
   height="51.900002">
  <metadata
     id="metadata1646">
    <rdf:RDF>
      <cc:Work
         rdf:about="">
        <dc:format>image/svg+xml</dc:format>
        <dc:type
           rdf:resource="http://purl.org/dc/dcmitype/StillImage" />
        <dc:title></dc:title>
      </cc:Work>
    </rdf:RDF>
  </metadata>
  <defs
     id="defs1644" />
  <sodipodi:namedview
     pagecolor="#ffffff"
     bordercolor="#666666"
     borderopacity="1"
     objecttolerance="10"
     gridtolerance="10"
     guidetolerance="10"
     inkscape:pageopacity="0"
     inkscape:pageshadow="2"
     inkscape:window-width="1366"
     inkscape:window-height="705"
     id="namedview1642"
     showgrid="false"
     inkscape:zoom="1.1850081"
     inkscape:cx="27.718724"
     inkscape:cy="97.049275"
     inkscape:window-x="1358"
     inkscape:window-y="-8"
     inkscape:window-maximized="1"
     inkscape:current-layer="svg1640"
     inkscape:document-rotation="0"
     units="mm"
     width="300mm"
     fit-margin-top="0"
     fit-margin-left="0"
     fit-margin-right="0"
     fit-margin-bottom="0" />
  <path
     fill="#00a818"
     d="M 34.4,3 33.1,2.3 31.7,1.6 H 31.2 L 30,1.1 C 27.7,0.3 25.3,0 22.9,0 10.3,0 0,10.3 0,22.9 0,33.8 7.8,43.3 18.5,45.3 v 6.6 C 32.2,49.8 44.3,39 45.2,24.7 45.9,16 41.7,7.7 34.4,3 Z M 17.5,8.6 c 0.8,-0.1 1.6,0.2 2.1,0.9 1.8,2 1.9,4.9 0.4,7.1 -2,-0.4 -3.7,-1.9 -4.5,-3.8 -0.3,-0.6 -0.4,-1.2 -0.4,-1.8 0.1,-1.3 1.1,-2.3 2.4,-2.4 z m -6.9,6.8 H 11 c 0.7,0 1.4,0.2 2,0.5 1.9,0.8 3.3,2.4 3.8,4.3 -1.7,1.2 -4,1.4 -5.9,0.6 C 10.3,20.5 9.8,20.2 9.2,19.8 8.1,19.1 7.8,17.6 8.5,16.5 9.1,15.7 9.9,15.2 10.6,15.4 Z M 13,29.5 C 12.4,29.8 11.7,30 11,30 9.6,30.1 8.4,29.2 8.3,27.8 8.2,27 8.5,26.2 9.1,25.7 c 0.5,-0.4 1,-0.8 1.7,-1 0.7,-0.3 1.5,-0.5 2.3,-0.5 1.3,0 2.5,0.3 3.6,1 -0.4,1.9 -1.7,3.4 -3.5,4.1 z m 7.7,4.5 c -0.3,0.6 -0.6,1.1 -1,1.7 -1,1 -2.6,1.1 -3.7,0.1 -0.5,-0.5 -0.8,-1.2 -0.8,-1.9 0,-0.6 0.2,-1.2 0.4,-1.8 0.8,-2 2.5,-3.4 4.6,-3.8 1.1,1.7 1.3,3.8 0.5,5.6 z m 3.8,-22.8 c 0.3,-0.6 0.6,-1.1 1,-1.7 0.5,-0.6 1.3,-1 2.2,-0.9 1.4,0.1 2.5,1.3 2.5,2.7 0,0.6 -0.2,1.3 -0.4,1.8 C 29,15 27.3,16.3 25.3,16.7 24,15 23.7,12.8 24.7,10.9 Z m 1.3,24.2 c -1.8,-2 -1.9,-4.9 -0.4,-7.1 2,0.4 3.7,1.8 4.6,3.6 0.3,0.6 0.4,1.2 0.4,1.8 -0.3,1.5 -1.7,2.6 -3.3,2.3 -0.5,-0.1 -0.9,-0.3 -1.3,-0.6 z m 8.4,-5.9 c -0.7,0 -1.4,-0.2 -2,-0.5 -1.9,-0.8 -3.3,-2.4 -3.8,-4.3 1.1,-0.7 2.3,-1.1 3.6,-1 0.8,0 1.5,0.2 2.3,0.5 0.6,0.3 1.1,0.6 1.7,1 1.1,0.8 1.3,2.3 0.5,3.4 -0.5,0.7 -1.3,1.1 -2.1,1 z"
     id="path1638-7"
     sodipodi:nodetypes="cccccsscccccccccccscccccccccccsccccccscccccccsccccccscccccccccccc" />
  <path
     fill="#00a818"
     d="m 207.13693,125.81682 c -3.7,0 -7.1,2 -8.8,5.3 0,-0.8 0.4,-1.8 0.4,-2.5 v -1.5 h -7 v 34.9 h 7 v -20.1 c 0,-5.6 3.1,-9.2 8.5,-9.2 h 1.4 v -7 h -1.5 z m -283.400001,12.8 c -1.8,-3.2 -5.1,-5.2 -8.8,-5.2 -6.1,0 -11,5 -11,11.1 0,6.1 4.9,11 11,11 3.6,0.1 7,-1.9 8.8,-5 l 6.399995,3.8 c -3.399995,5.1 -9.099995,8.2 -15.199995,8.3 -9.9,0.6 -18.299999,-7 -18.899999,-16.9 -0.6,-9.9 6.999999,-18.3 16.899999,-18.9 h 2 c 6.2,-0.1 11.9,3 15.199995,8.3 z m 12.499993,-11 h 7.2 v 19 c -0.2,4.5 3.3,8.3 7.8,8.4 h 0.4 c 4.6,-0.1 8.2,-3.9 8.2,-8.5 v -19 h 7.2 v 19.6 c 0.2,8.3 -6.4,15.1 -14.7,15.3 h -0.8 c -8.3,0.3 -15.2,-6.2 -15.5,-14.4 v -20.4 z m 65.0000104,11 c -1.79999997,-3.2 -5.1,-5.2 -8.80001,-5.2 -6.1000004,0 -11.0000004,5 -11.0000004,11.1 0,6.1 4.9,11 11.0000004,11 3.60001,0.1 7.00001003,-1.9 8.80001,-5 l 6.4,3.8 c -3.4,5.1 -9.1,8.2 -15.20001,8.3 -9.9000004,0.6 -18.3000004,-7 -18.9000004,-16.9 -0.6,-9.9 7,-18.3 16.9000004,-18.9 h 2 c 6.20001,-0.1 11.90001,3 15.20001,8.3 z m 12.4999996,-11 h 7.2 v 19 c -0.2,4.5 3.3,8.3 7.8,8.4 h 0.4 c 4.6,-0.1 8.2,-3.9 8.2,-8.5 v -19 h 7.2 v 19.6 c 0,8.6 -6.9,15.5 -15.5,15.5 -8.6,0 -15.5,-6.9 -15.5,-15.5 z m 40,12.7 c 0,-8.7 5.6,-13.6 12.4,-13.6 4.3,-0.3 8.3,2.1 10.1,6 1.7,-4 5.8,-6.4 10.2,-6 6.7,0 12.4,5 12.4,13.6 v 21.2 h -7 v -21.2 c 0.4,-3.1 -1.7,-5.9 -4.8,-6.4 -0.3,0 -0.6,-0.1 -0.8,-0.1 -3.5,0 -6,2.1 -6,7.4 v 20.1 h -7.2 v -20.2 c 0,-5.3 -2.5,-7.4 -6,-7.4 -3.1,0 -5.7,2.5 -5.7,5.6 0,0.3 0,0.6 0.1,0.8 v 21.2 h -7.7 z m 54.299998,-22.8 h 7.2 v 14.3 c 2.7,-3.3 6.8,-5.2 11,-5 9.9,0 17.9,8 17.9,17.9 0,9.9 -8,17.9 -17.9,17.9 -4.3,0.2 -8.4,-1.7 -11,-5 v 4.2 h -7.2 z m 17.7,16.1 c -6.1,-0.2 -11.2,4.5 -11.5,10.6 -0.2,6.1 4.5,11.2 10.6,11.5 6.1,0.3 11.2,-4.5 11.5,-10.6 v -0.4 c 0.3,-5.8 -4.2,-10.7 -10,-11 -0.2,-0.1 -0.4,-0.1 -0.6,-0.1 z m 57.3,20.5 c -3.7,5.1 -9.5,8.1 -15.8,8.3 -9.8,0.4 -18.1,-7.3 -18.5,-17.1 -0.4,-9.8 7.3,-18.1 17.1,-18.5 h 1.4 c 10.1,0.4 18,8.9 17.6,19 v 1.3 h -28 c 0.7,5.2 5.1,9 10.3,9 3.9,-0.1 7.6,-2.1 9.8,-5.3 z m -6.7,-13.1 c -1,-4.7 -5.2,-8 -10,-8 -4.7,0 -8.7,3.4 -9.6,8 z"
     id="path1638"
     sodipodi:nodetypes="ccsccccsscccccssccccscccccccccscccccccccssccccscccccccccsccssccscccsccccssccssscccsccccscccccccsccccccscccccccccscc" />
</svg>
