<svg xmlns="http://www.w3.org/2000/svg" width="400" height="400" viewBox="0 0 400 400">
    <path d="M63.6 77.5C60.9 78 62.3 79.8 73 89.1 77.4 93 81.5 96.6 82 97.2 82.6 97.7 84.3 99.4 86 100.8 87.6 102.2 89.6 104 90.4 104.8 93.2 107.5 99.3 113 101 114.4 103.2 116.2 115.8 127.5 119.2 130.8 119.7 131.3 124 135.1 128.6 139.2 133.2 143.2 137.5 147 138 147.6 139.5 149 142.8 152.1 150.8 159.1 158.4 165.9 164.5 171.4 166.8 173.6 167.6 174.4 169.6 176.2 171.2 177.6 172.8 179 174.6 180.6 175.2 181.2 175.7 181.7 179.3 184.9 183 188.1 186.7 191.4 190.1 194.4 190.4 194.8 190.8 195.2 192.7 197 194.8 198.8 196.9 200.6 198.7 202.4 198.9 202.7 199.1 202.9 200 203.6 201 204.2L202.7 205.2 204.3 204.4C205.1 204 207 202.5 208.4 201.1 209.9 199.7 212.4 197.4 214 196 219.4 191.2 220.5 190.2 223.2 187.8 224.7 186.5 227.2 184.2 228.8 182.8 230.4 181.4 232.4 179.6 233.2 178.8 235.7 176.4 241.9 170.8 247.6 165.8 253 161.1 260.1 154.7 262 152.8 262.5 152.2 265.3 149.8 268 147.4 270.8 145 273.9 142.2 275 141.2 279.6 137.1 284.6 132.5 285.9 131.4 286.6 130.7 288.5 128.9 290.3 127.4 292 125.9 293.8 124.2 294.4 123.6 294.9 123.1 298.4 120 302 116.9 308.5 111.1 309.5 110.3 312.6 107.3 316 104.1 322 98.7 327.2 94.2 332.2 89.9 334.5 87.8 339.8 82.7 342.7 80 343.8 78.5 343.2 77.9 342.8 77.4 66.1 77 63.6 77.5M43 96.2C41.8 97.1 41.8 290.5 43 291.4 43.4 291.7 43.9 291.8 44.2 291.7 44.8 291.3 54.8 282.5 58.2 279.4 60.3 277.4 67.6 270.7 69.2 269.3 70 268.6 72.3 266.5 74.4 264.7 76.6 262.8 78.6 261 79.1 260.6 79.5 260.1 81.2 258.6 82.8 257.2 84.4 255.8 86.3 254.1 87 253.4 87.7 252.8 89.8 250.8 91.8 249 93.8 247.3 95.6 245.6 95.8 245.4 96 245.1 99.4 242.1 103.4 238.6 107.4 235.1 111 231.9 111.4 231.4 111.9 231 113.6 229.4 115.2 228 116.8 226.6 118.6 224.9 119.2 224.4 119.7 223.8 123.4 220.6 127.2 217.2 131.1 213.9 134.4 210.9 134.6 210.6 134.8 210.3 136.7 208.6 138.8 206.8 142.9 203.1 146.1 200.2 149.6 196.9L151.7 194.9 151.3 193.3C151 192.3 150.3 191.3 149.5 190.7 148.8 190.1 147.4 188.9 146.4 188 145.4 187 141.5 183.6 137.8 180.3 134.1 177 130.5 173.8 130 173.2 129.4 172.7 127.6 171 126 169.6 124.4 168.2 122.7 166.6 122.2 166.2 121.8 165.7 118.2 162.5 114.2 159 110.2 155.5 106.6 152.3 106.2 151.8 105.7 151.4 104 149.8 102.4 148.4 100.7 147 98.9 145.3 98.2 144.6 97.5 143.9 95.5 142 93.6 140.4 91.7 138.7 89.9 137.1 89.6 136.7 89.3 136.4 85.9 133.3 82 130 78.2 126.6 74.5 123.4 74 122.8 73.4 122.3 71.7 120.6 70 119.2 68.4 117.8 66.7 116.2 66.2 115.8 65.8 115.3 62.2 112.2 58.4 108.8 52.1 103.2 49.7 101 45.3 96.9 43.6 95.4 43.9 95.5 43 96.2M358.9 98.3C357.6 99.6 355.2 101.8 353.6 103.2 352 104.6 350.1 106.3 349.4 107 348.7 107.7 345.3 110.7 341.8 113.8 338.3 116.9 334.9 119.9 334.2 120.6 333.5 121.3 331.6 123 330 124.4 328.3 125.8 326.5 127.6 325.8 128.2 325.1 128.9 321.6 132 318 135.2 314.4 138.3 311 141.3 310.6 141.8 310.1 142.2 308.9 143.4 307.8 144.4 306.7 145.3 304.1 147.7 302 149.6 299.9 151.5 296.1 154.9 293.6 157.2 291.1 159.4 288.4 161.9 287.6 162.6 286.8 163.3 284.6 165.3 282.6 167 280.6 168.8 278.5 170.7 278 171.2 277.4 171.8 275.6 173.5 273.8 175 272.1 176.5 270.3 178.2 269.8 178.6 269.4 179.1 265.9 182.2 262 185.6 256.4 190.5 254.9 192 254.5 193.3L253.9 194.8 255.9 196.7C257 197.8 259.4 200 261.2 201.6 263.1 203.3 264.9 204.9 265.2 205.3 265.5 205.6 269 208.7 272.8 212 276.7 215.4 280.2 218.5 280.7 219 281.1 219.4 282.9 221.1 284.6 222.6 286.3 224.1 288.1 225.8 288.6 226.2 289 226.7 291.1 228.6 293.2 230.4 295.3 232.3 297.3 234.1 297.6 234.4 297.9 234.8 299 235.7 300 236.5 301 237.3 302.5 238.6 303.4 239.4 304.3 240.3 305.9 241.7 307 242.7 309 244.5 315.8 250.7 318.2 253 319.9 254.6 320.4 255 327 260.8 332 265.2 338.2 270.8 341.8 274.2 343.8 276.1 349.7 281.3 355.8 286.6 357.8 288.4 359.7 290.2 360.1 290.7 361 291.8 362 291.9 362.9 290.9 363.9 289.8 363.8 97.8 362.9 96.7 362 95.7 361.6 95.8 358.9 98.3M169.2 212.2C168 213 163.7 216.9 159.4 221 158.6 221.7 156.7 223.5 155 225 153.2 226.5 151.3 228.3 150.6 229 149.8 229.7 148.8 230.6 148.1 231.2 143.6 235.1 136 241.9 135.2 242.8 134.6 243.3 132.8 245 131.2 246.4 129.6 247.8 127.8 249.4 127.2 250 126.7 250.5 123.1 253.8 119.2 257.2 111.3 264.1 105.2 269.6 103.4 271.4 102.7 272.1 100.8 273.9 99 275.4 95.8 278.2 88.8 284.4 87.6 285.6 87.2 285.9 85.6 287.4 84 288.8 82.3 290.2 80.6 291.9 80 292.4 79.5 293 77.4 294.9 75.4 296.6 73.4 298.4 71.3 300.3 70.8 300.8 70.2 301.4 68 303.3 65.9 305.2 59.6 310.6 41.7 310 202.9 310 298 310 342.3 309.9 342.8 309.6 344.2 308.9 343.7 308.3 337.3 302.8 333.9 299.8 330.5 296.8 329.7 296 328.9 295.3 326.5 293.1 324.4 291.3 322.3 289.4 320.4 287.6 320.2 287.4 320 287.1 316.7 284.1 312.8 280.8 309 277.4 305.3 274.2 304.8 273.6 304.2 273.1 302.5 271.4 300.8 270 299.2 268.6 297.3 266.9 296.6 266.2 295.9 265.5 294 263.7 292.2 262.2 290.5 260.7 288.8 259.1 288.4 258.8 288.1 258.4 284.6 255.3 280.6 251.8 276.6 248.3 273.2 245.2 273 245 272.8 244.7 270.9 243 268.8 241.2 266.7 239.4 264.8 237.6 264.4 237.2 264.1 236.8 261.4 234.4 258.4 231.8 253.6 227.6 247.2 221.9 243.8 218.6 234.1 209.4 235.1 209.5 225.6 218.4 224.8 219.2 222.8 221 221.2 222.4 219.6 223.8 217.7 225.5 217 226.2 215.1 227.9 213.9 229 209.4 232.9 203.6 237.9 203.5 238 202.8 238 202.1 238 186.5 224.4 176.5 215 172.4 211.1 171.3 210.7 169.2 212.2" fill="#fbf9f9"/><path d="M24.8 0.3C24.8 0.5 23.9 0.8 22.8 0.9 20.6 1.2 19.6 1.7 19.6 2.6 19.6 2.9 18.8 3.4 17.9 3.6 17 3.9 15.9 4.1 15.5 4.3 15.1 4.4 14.8 4.8 14.8 5.2 14.8 5.7 14.4 6.1 13.7 6.2 12.3 6.6 11.6 7.1 11.6 8 11.6 8.3 11.1 8.8 10.4 9.1 9.7 9.4 9.1 9.9 9 10.6 8.8 11.2 8.4 11.6 8 11.6 7.1 11.6 6.6 12.3 6.2 13.7 6.1 14.4 5.7 14.8 5.2 14.8 4.6 14.8 4.3 15.2 4 16.5 3.8 17.4 3.5 18.5 3.4 18.8 3.3 19.1 2.8 19.6 2.3 19.8 1.6 20.1 1.3 20.7 1.1 22.2 0.9 23.3 0.6 24.5 0.4 24.9 -0.1 25.8-0.1 374.7 0.3 375 0.5 375.1 0.8 376.3 1 377.6 1.2 379.7 1.4 380.1 2.2 380.4 2.9 380.7 3.3 381.3 3.8 382.9 4.2 384.3 4.7 385.1 5.3 385.4 5.8 385.6 6.3 386.2 6.3 386.6 6.5 387.7 7.2 388.4 7.9 388.4 8.3 388.4 8.9 389 9.2 389.7 9.6 390.6 10.1 391 10.7 391 11.3 391 11.6 391.2 11.8 392.1 11.9 392.9 12.3 393.3 13.3 393.5 14.2 393.7 14.6 394.1 14.7 394.7 14.8 395.4 15.4 395.8 17.2 396.3 18.5 396.7 19.6 397.2 19.6 397.4 19.6 398.2 21 399.1 22.6 399.4 25.4 400 373.4 400.1 376 399.6 379.1 398.9 380.1 398.5 380.3 397.6 380.4 397.2 380.8 396.8 381.1 396.8 382.6 396.8 385.2 395.5 385.2 394.8 385.2 394.3 385.6 393.9 386.3 393.8 387.8 393.4 388.4 392.9 388.4 391.8 388.4 391.1 388.6 390.9 389.2 391.1 390.3 391.4 391.2 390.5 391.2 389.4 391.2 388.7 391.4 388.4 392 388.4 392.9 388.4 393.4 387.8 393.8 386.3 393.9 385.6 394.3 385.2 394.8 385.2 395.5 385.2 396.8 382.6 396.8 381.1 396.8 380.7 397 380.4 397.4 380.4 398.3 380.4 398.8 379.4 399.4 376.5 400.2 373 400.3 27.5 399.6 23.9 399.3 22.8 399.1 21.4 399 20.9 398.9 20.4 398.4 19.9 397.9 19.8 397.2 19.6 396.8 19 396.3 17.3 395.8 15.7 395.3 14.9 394.7 14.6 394.2 14.4 393.7 13.8 393.7 13.3 393.6 12.6 393.1 12.2 392.4 11.9 391.7 11.6 391.2 11.1 391.1 10.6 391.1 10.2 390.4 9.5 389.7 9.2 389 8.9 388.4 8.3 388.4 7.9 388.4 7.2 387.7 6.5 386.6 6.3 386.2 6.3 385.6 5.8 385.4 5.3 385.1 4.7 384.4 4.2 383 3.8 381.9 3.4 380.7 2.8 380.2 2.2 379.6 1.4 378.9 1.1 377.3 0.9 376.1 0.8 375.2 0.5 375.2 0.3 375.2 0.2 297.6 0 200 0 102.4 0 24.8 0.2 24.8 0.3M343.2 77.9C343.8 78.5 342.7 80 339.8 82.7 334.5 87.8 332.2 89.9 327.2 94.2 322 98.7 316 104.1 312.6 107.3 309.5 110.3 308.5 111.1 302 116.9 298.4 120 294.9 123.1 294.4 123.6 293.8 124.2 292 125.9 290.3 127.4 288.5 128.9 286.6 130.7 285.9 131.4 284.6 132.5 279.6 137.1 275 141.2 273.9 142.2 270.8 145 268 147.4 265.3 149.8 262.5 152.2 262 152.8 260.1 154.7 253 161.1 247.6 165.8 241.9 170.8 235.7 176.4 233.2 178.8 232.4 179.6 230.4 181.4 228.8 182.8 227.2 184.2 224.7 186.5 223.2 187.8 220.5 190.2 219.4 191.2 214 196 212.4 197.4 209.9 199.7 208.4 201.1 207 202.5 205.1 204 204.3 204.4L202.7 205.2 201 204.2C200 203.6 199.1 202.9 198.9 202.7 198.7 202.4 196.9 200.6 194.8 198.8 192.7 197 190.8 195.2 190.4 194.8 190.1 194.4 186.7 191.4 183 188.1 179.3 184.9 175.7 181.7 175.2 181.2 174.6 180.6 172.8 179 171.2 177.6 169.6 176.2 167.6 174.4 166.8 173.6 164.5 171.4 158.4 165.9 150.8 159.1 142.8 152.1 139.5 149 138 147.6 137.5 147 133.2 143.2 128.6 139.2 124 135.1 119.7 131.3 119.2 130.8 115.8 127.5 103.2 116.2 101 114.4 99.3 113 93.2 107.5 90.4 104.8 89.6 104 87.6 102.2 86 100.8 84.3 99.4 82.6 97.7 82 97.2 81.5 96.6 77.4 93 73 89.1 62.3 79.8 60.9 78 63.6 77.5 66.1 77 342.8 77.4 343.2 77.9M45.3 96.9C49.7 101 52.1 103.2 58.4 108.8 62.2 112.2 65.8 115.3 66.2 115.8 66.7 116.2 68.4 117.8 70 119.2 71.7 120.6 73.4 122.3 74 122.8 74.5 123.4 78.2 126.6 82 130 85.9 133.3 89.3 136.4 89.6 136.7 89.9 137.1 91.7 138.7 93.6 140.4 95.5 142 97.5 143.9 98.2 144.6 98.9 145.3 100.7 147 102.4 148.4 104 149.8 105.7 151.4 106.2 151.8 106.6 152.3 110.2 155.5 114.2 159 118.2 162.5 121.8 165.7 122.2 166.2 122.7 166.6 124.4 168.2 126 169.6 127.6 171 129.4 172.7 130 173.2 130.5 173.8 134.1 177 137.8 180.3 141.5 183.6 145.4 187 146.4 188 147.4 188.9 148.8 190.1 149.5 190.7 150.3 191.3 151 192.3 151.3 193.3L151.7 194.9 149.6 196.9C146.1 200.2 142.9 203.1 138.8 206.8 136.7 208.6 134.8 210.3 134.6 210.6 134.4 210.9 131.1 213.9 127.2 217.2 123.4 220.6 119.7 223.8 119.2 224.4 118.6 224.9 116.8 226.6 115.2 228 113.6 229.4 111.9 231 111.4 231.4 111 231.9 107.4 235.1 103.4 238.6 99.4 242.1 96 245.1 95.8 245.4 95.6 245.6 93.8 247.3 91.8 249 89.8 250.8 87.7 252.8 87 253.4 86.3 254.1 84.4 255.8 82.8 257.2 81.2 258.6 79.5 260.1 79.1 260.6 78.6 261 76.6 262.8 74.4 264.7 72.3 266.5 70 268.6 69.2 269.3 67.6 270.7 60.3 277.4 58.2 279.4 54.8 282.5 44.8 291.3 44.2 291.7 43.9 291.8 43.4 291.7 43 291.4 41.8 290.5 41.8 97.1 43 96.2 43.9 95.5 43.6 95.4 45.3 96.9M362.9 96.7C363.8 97.8 363.9 289.8 362.9 290.9 362 291.9 361 291.8 360.1 290.7 359.7 290.2 357.8 288.4 355.8 286.6 349.7 281.3 343.8 276.1 341.8 274.2 338.2 270.8 332 265.2 327 260.8 320.4 255 319.9 254.6 318.2 253 315.8 250.7 309 244.5 307 242.7 305.9 241.7 304.3 240.3 303.4 239.4 302.5 238.6 301 237.3 300 236.5 299 235.7 297.9 234.8 297.6 234.4 297.3 234.1 295.3 232.3 293.2 230.4 291.1 228.6 289 226.7 288.6 226.2 288.1 225.8 286.3 224.1 284.6 222.6 282.9 221.1 281.1 219.4 280.7 219 280.2 218.5 276.7 215.4 272.8 212 269 208.7 265.5 205.6 265.2 205.3 264.9 204.9 263.1 203.3 261.2 201.6 259.4 200 257 197.8 255.9 196.7L253.9 194.8 254.5 193.3C254.9 192 256.4 190.5 262 185.6 265.9 182.2 269.4 179.1 269.8 178.6 270.3 178.2 272.1 176.5 273.8 175 275.6 173.5 277.4 171.8 278 171.2 278.5 170.7 280.6 168.8 282.6 167 284.6 165.3 286.8 163.3 287.6 162.6 288.4 161.9 291.1 159.4 293.6 157.2 296.1 154.9 299.9 151.5 302 149.6 304.1 147.7 306.7 145.3 307.8 144.4 308.9 143.4 310.1 142.2 310.6 141.8 311 141.3 314.4 138.3 318 135.2 321.6 132 325.1 128.9 325.8 128.2 326.5 127.6 328.3 125.8 330 124.4 331.6 123 333.5 121.3 334.2 120.6 334.9 119.9 338.3 116.9 341.8 113.8 345.3 110.7 348.7 107.7 349.4 107 350.1 106.3 352 104.6 353.6 103.2 355.2 101.8 357.6 99.6 358.9 98.3 361.6 95.8 362 95.7 362.9 96.7M172.7 211.9C173.4 212.3 175.1 213.7 176.5 215 186.5 224.4 202.1 238 202.8 238 203.5 238 203.6 237.9 209.4 232.9 213.9 229 215.1 227.9 217 226.2 217.7 225.5 219.6 223.8 221.2 222.4 222.8 221 224.8 219.2 225.6 218.4 235.1 209.5 234.1 209.4 243.8 218.6 247.2 221.9 253.6 227.6 258.4 231.8 261.4 234.4 264.1 236.8 264.4 237.2 264.8 237.6 266.7 239.4 268.8 241.2 270.9 243 272.8 244.7 273 245 273.2 245.2 276.6 248.3 280.6 251.8 284.6 255.3 288.1 258.4 288.4 258.8 288.8 259.1 290.5 260.7 292.2 262.2 294 263.7 295.9 265.5 296.6 266.2 297.3 266.9 299.2 268.6 300.8 270 302.5 271.4 304.2 273.1 304.8 273.6 305.3 274.2 309 277.4 312.8 280.8 316.7 284.1 320 287.1 320.2 287.4 320.4 287.6 322.3 289.4 324.4 291.3 326.5 293.1 328.9 295.3 329.7 296 330.5 296.8 333.9 299.8 337.3 302.8 343.7 308.3 344.2 308.9 342.8 309.6 342.3 309.9 298 310 202.9 310 41.7 310 59.6 310.6 65.9 305.2 68 303.3 70.2 301.4 70.8 300.8 71.3 300.3 73.4 298.4 75.4 296.6 77.4 294.9 79.5 293 80 292.4 80.6 291.9 82.3 290.2 84 288.8 85.6 287.4 87.2 285.9 87.6 285.6 88.8 284.4 95.8 278.2 99 275.4 100.8 273.9 102.7 272.1 103.4 271.4 105.2 269.6 111.3 264.1 119.2 257.2 123.1 253.8 126.7 250.5 127.2 250 127.8 249.4 129.6 247.8 131.2 246.4 132.8 245 134.6 243.3 135.2 242.8 136 241.9 143.6 235.1 148.1 231.2 148.8 230.6 149.8 229.7 150.6 229 151.3 228.3 153.2 226.5 155 225 156.7 223.5 158.6 221.7 159.4 221 169.8 211.2 170.5 210.7 172.7 211.9" fill="#fbf9f9"/>
</svg>