<?xml version="1.0" encoding="UTF-8" standalone="no"?>
<svg
   xmlns:dc="http://purl.org/dc/elements/1.1/"
   xmlns:cc="http://creativecommons.org/ns#"
   xmlns:rdf="http://www.w3.org/1999/02/22-rdf-syntax-ns#"
   xmlns:svg="http://www.w3.org/2000/svg"
   xmlns="http://www.w3.org/2000/svg"
   xmlns:sodipodi="http://sodipodi.sourceforge.net/DTD/sodipodi-0.dtd"
   xmlns:inkscape="http://www.inkscape.org/namespaces/inkscape"
   width="27.508854mm"
   height="32.031265mm"
   viewBox="0 0 27.508854 32.031265"
   version="1.1"
   id="svg1211"
   inkscape:version="1.0.1 (3bc2e813f5, 2020-09-07)"
   sodipodi:docname="mocha-icon.svg">
  <defs
     id="defs1205" />
  <sodipodi:namedview
     id="base"
     pagecolor="#ffffff"
     bordercolor="#666666"
     borderopacity="1.0"
     inkscape:pageopacity="0.0"
     inkscape:pageshadow="2"
     inkscape:zoom="0.98994949"
     inkscape:cx="67.267909"
     inkscape:cy="175.87156"
     inkscape:document-units="mm"
     inkscape:current-layer="layer1"
     inkscape:document-rotation="0"
     showgrid="false"
     fit-margin-top="0"
     fit-margin-left="0"
     fit-margin-right="0"
     fit-margin-bottom="0"
     inkscape:window-width="1366"
     inkscape:window-height="705"
     inkscape:window-x="-8"
     inkscape:window-y="-8"
     inkscape:window-maximized="1" />
  <metadata
     id="metadata1208">
    <rdf:RDF>
      <cc:Work
         rdf:about="">
        <dc:format>image/svg+xml</dc:format>
        <dc:type
           rdf:resource="http://purl.org/dc/dcmitype/StillImage" />
        <dc:title></dc:title>
      </cc:Work>
    </rdf:RDF>
  </metadata>
  <g
     inkscape:label="Layer 1"
     inkscape:groupmode="layer"
     id="layer1"
     transform="translate(-94.346764,-56.555795)">
    <path
       sodipodi:type="star"
       style="display:inline;opacity:1;fill:#8d6748;fill-opacity:1;stroke-width:0.607494;stroke-linejoin:round"
       id="path841"
       sodipodi:sides="6"
       sodipodi:cx="52.627121"
       sodipodi:cy="137.28812"
       sodipodi:r1="48.386227"
       sodipodi:r2="29.791998"
       sodipodi:arg1="0.51943773"
       sodipodi:arg2="1.0430365"
       inkscape:flatsided="true"
       inkscape:rounded="0"
       inkscape:randomized="0"
       d="m 94.631128,161.30666 -41.80267,24.36726 -42.004007,-24.01854 -0.201337,-48.3858 41.80267,-24.367271 42.004007,24.018541 z"
       inkscape:transform-center-x="-0.13624964"
       inkscape:transform-center-y="-4.2679742"
       transform="matrix(0.32745511,0,0,0.33099857,90.868171,27.129258)" />
    <path
       sodipodi:type="star"
       style="display:inline;opacity:1;fill:#ffffff;fill-opacity:1;stroke-width:0.712674;stroke-linejoin:round"
       id="path841-3-1"
       sodipodi:sides="6"
       sodipodi:cx="52.627121"
       sodipodi:cy="137.28812"
       sodipodi:r1="48.386227"
       sodipodi:r2="29.791998"
       sodipodi:arg1="0.51943773"
       sodipodi:arg2="1.0430365"
       inkscape:flatsided="true"
       inkscape:rounded="0"
       inkscape:randomized="0"
       d="m 94.631128,161.30666 -41.80267,24.36726 -42.004007,-24.01854 -0.201337,-48.3858 41.80267,-24.367271 42.004007,24.018541 z"
       inkscape:transform-center-x="-0.11614037"
       inkscape:transform-center-y="-3.6380908"
       transform="matrix(0.27912811,0,0,0.28214862,93.351137,33.890445)" />
    <path
       sodipodi:type="star"
       style="display:inline;opacity:1;fill:#8d6748;fill-opacity:1;stroke-width:0.761448;stroke-linejoin:round"
       id="path841-3"
       sodipodi:sides="6"
       sodipodi:cx="52.627121"
       sodipodi:cy="137.28812"
       sodipodi:r1="48.386227"
       sodipodi:r2="29.791998"
       sodipodi:arg1="0.51943773"
       sodipodi:arg2="1.0430365"
       inkscape:flatsided="true"
       inkscape:rounded="0"
       inkscape:randomized="0"
       d="m 94.631128,161.30666 -41.80267,24.36726 -42.004007,-24.01854 -0.201337,-48.3858 41.80267,-24.367271 42.004007,24.018541 z"
       inkscape:transform-center-x="-0.10870227"
       inkscape:transform-center-y="-3.4050557"
       transform="matrix(0.26124873,0,0,0.26407575,94.284608,36.341153)" />
    <path
       style="display:inline;opacity:1;fill:none;fill-opacity:1;stroke:#ffffff;stroke-width:0.423333;stroke-linecap:butt;stroke-linejoin:miter;stroke-miterlimit:4;stroke-dasharray:none;stroke-opacity:0.99"
       d="m 98.37486,75.082833 -0.02209,-3.038382 1.401475,1.801693 1.276085,-1.748361 -0.0197,2.909623"
       id="path973"
       sodipodi:nodetypes="ccccc" />
    <path
       style="display:inline;opacity:1;fill:none;fill-opacity:1;stroke:#ffffff;stroke-width:0.423333;stroke-linecap:butt;stroke-linejoin:miter;stroke-miterlimit:4;stroke-dasharray:none;stroke-opacity:0.99"
       d="m 113.7088,71.666089 -0.0516,3.414992"
       id="path979"
       sodipodi:nodetypes="cc" />
    <path
       style="display:inline;opacity:1;fill:none;fill-opacity:1;stroke:#ffffff;stroke-width:0.423333;stroke-linecap:butt;stroke-linejoin:miter;stroke-miterlimit:4;stroke-dasharray:none;stroke-opacity:0.99"
       d="m 111.37008,73.332141 2.2633,0.02786"
       id="path981"
       sodipodi:nodetypes="cc" />
    <path
       style="display:inline;opacity:1;fill:none;fill-opacity:1;stroke:#ffffff;stroke-width:0.423333;stroke-linecap:butt;stroke-linejoin:miter;stroke-miterlimit:4;stroke-dasharray:none;stroke-opacity:0.99"
       d="m 115.33883,75.013814 1.41261,-3.027013 1.4126,3.027013"
       id="path983" />
    <path
       style="display:inline;opacity:1;fill:none;fill-opacity:1;stroke:#ffffff;stroke-width:0.423333;stroke-linecap:butt;stroke-linejoin:miter;stroke-miterlimit:4;stroke-dasharray:none;stroke-opacity:0.99"
       d="m 115.87697,73.937542 h 1.74894"
       id="path985" />
    <path
       style="display:inline;opacity:1;fill:none;fill-opacity:1;stroke:#ffffff;stroke-width:0.423333;stroke-linecap:butt;stroke-linejoin:miter;stroke-miterlimit:4;stroke-dasharray:none;stroke-opacity:0.99"
       d="m 111.54049,71.674891 -0.0517,3.343646"
       id="path979-3"
       sodipodi:nodetypes="cc" />
    <ellipse
       style="display:inline;opacity:1;fill:none;fill-opacity:1;stroke:#ffffff;stroke-width:0.423333;stroke-linejoin:round;stroke-miterlimit:4;stroke-dasharray:none;stroke-opacity:0.99"
       id="path1002"
       cx="104.27291"
       cy="73.394279"
       rx="1.4269475"
       ry="1.5458597" />
    <path
       style="display:inline;opacity:1;fill:none;fill-opacity:1;stroke:#ffffff;stroke-width:0.423333;stroke-linejoin:round;stroke-miterlimit:4;stroke-dasharray:none;stroke-opacity:0.99"
       id="path1006"
       sodipodi:type="arc"
       sodipodi:cx="108.79158"
       sodipodi:cy="73.441849"
       sodipodi:rx="1.4269475"
       sodipodi:ry="1.4982948"
       sodipodi:start="0.66194165"
       sodipodi:end="5.3558901"
       sodipodi:arc-type="arc"
       d="m 109.91716,74.362775 a 1.4269475,1.4982948 0 0 1 -1.99572,0.266568 1.4269475,1.4982948 0 0 1 -0.26613,-2.093822 1.4269475,1.4982948 0 0 1 1.99244,-0.292308"
       sodipodi:open="true" />
    <path
       style="display:inline;opacity:1;fill:none;fill-opacity:1;stroke:#ffffff;stroke-width:0.264583px;stroke-linecap:butt;stroke-linejoin:miter;stroke-opacity:0.99"
       d="m 97.647625,69.968792 8.206565,-0.06726"
       id="path1008" />
    <path
       style="display:inline;opacity:1;fill:none;fill-opacity:1;stroke:#ffffff;stroke-width:0.264583px;stroke-linecap:butt;stroke-linejoin:miter;stroke-opacity:0.99"
       d="m 109.82294,69.901527 8.61017,0.06726"
       id="path1010" />
    <path
       style="display:inline;opacity:1;fill:none;fill-opacity:1;stroke:#ffffff;stroke-width:0.264583px;stroke-linecap:butt;stroke-linejoin:miter;stroke-opacity:0.99"
       d="m 97.714892,76.224619 20.583688,-0.06727"
       id="path1012" />
    <path
       style="display:inline;opacity:1;fill:none;fill-opacity:1;stroke:#ffffff;stroke-width:0.264583px;stroke-linecap:butt;stroke-linejoin:miter;stroke-opacity:0.99"
       d="m 107.61995,67.126765 c -0.32019,-0.335489 -0.63904,-0.5494 -0.63904,-1.076272"
       id="path1014" />
    <path
       style="display:inline;opacity:1;fill:none;fill-opacity:1;stroke:#ffffff;stroke-width:0.264583px;stroke-linecap:butt;stroke-linejoin:miter;stroke-opacity:0.99"
       d="m 107.82175,70.893714 c -0.20248,0 -0.54343,-0.05067 -0.73994,0 -0.41645,-0.971724 -0.86339,-2.092634 -0.67267,-3.329715 0.66717,-0.01513 0.98901,0.03363 1.47988,0.03363"
       id="path1016"
       sodipodi:nodetypes="cccc" />
    <path
       style="display:inline;opacity:1;fill:none;fill-opacity:1;stroke:#ffffff;stroke-width:0.264583px;stroke-linecap:butt;stroke-linejoin:miter;stroke-opacity:0.99"
       d="m 107.82175,70.893714 c 0.20249,0 0.67797,-0.05067 0.87447,0 0.41645,-0.971724 0.8634,-2.092634 0.67267,-3.329715 -0.66716,-0.01513 -0.98901,0.03363 -1.47987,0.03363"
       id="path1016-9"
       sodipodi:nodetypes="cccc" />
    <path
       style="display:inline;opacity:1;fill:none;fill-opacity:1;stroke:#ffffff;stroke-width:0.264583px;stroke-linecap:butt;stroke-linejoin:miter;stroke-opacity:0.99"
       d="m 107.85538,65.630075 c -0.48589,0.90963 0.11239,0.853139 0.26907,1.479873"
       id="path1048" />
    <path
       style="display:inline;opacity:1;fill:none;fill-opacity:1;stroke:#ffffff;stroke-width:0.264583px;stroke-linecap:butt;stroke-linejoin:miter;stroke-opacity:0.99"
       d="m 108.66498,66.008204 c -0.38515,0.413113 -0.13626,0.6994 -0.0336,1.109903"
       id="path1050" />
    <path
       style="display:inline;opacity:1;fill:none;fill-opacity:1;stroke:#ffffff;stroke-width:0.0529167;stroke-linecap:butt;stroke-linejoin:miter;stroke-miterlimit:4;stroke-dasharray:none;stroke-opacity:0.99"
       d="m 107.89117,70.463221 c -0.10876,0 -0.2919,-0.01839 -0.39745,0 -0.22369,-0.352673 -0.23657,-0.416107 -0.27682,-0.746178"
       id="path1016-93"
       sodipodi:nodetypes="ccc" />
    <path
       style="display:inline;opacity:1;fill:none;fill-opacity:1;stroke:#ffffff;stroke-width:0.0529167;stroke-linecap:butt;stroke-linejoin:miter;stroke-miterlimit:4;stroke-dasharray:none;stroke-opacity:0.99"
       d="m 107.89117,70.463221 c 0.10876,0 0.36416,-0.01839 0.46971,0 0.22369,-0.352673 0.46376,-0.759494 0.36132,-1.208476"
       id="path1016-9-4"
       sodipodi:nodetypes="ccc" />
    <path
       style="display:inline;opacity:1;fill:none;fill-opacity:1;stroke:#ffffff;stroke-width:0.0529167;stroke-linecap:butt;stroke-linejoin:miter;stroke-miterlimit:4;stroke-dasharray:none;stroke-opacity:0.99"
       d="m 108.7222,69.254745 c -0.55674,0.142216 -0.58716,0.513149 -1.5053,0.462298"
       id="path1072"
       sodipodi:nodetypes="cc" />
    <path
       style="display:inline;opacity:1;fill:#ffffff;fill-opacity:1;stroke:#ffffff;stroke-width:0.0529167;stroke-linejoin:round;stroke-miterlimit:4;stroke-dasharray:none;stroke-opacity:0.99"
       d="m 107.69064,70.427804 -0.18486,-0.004 -0.0608,-0.103759 c -0.11235,-0.19178 -0.15441,-0.300574 -0.17576,-0.454549 -0.004,-0.02943 -0.0103,-0.06863 -0.0139,-0.08711 l -0.007,-0.0336 0.053,0.0079 c 0.0838,0.01257 0.39008,-0.01601 0.51815,-0.04837 0.12816,-0.03238 0.28151,-0.102243 0.45265,-0.206216 0.19271,-0.117078 0.40858,-0.216149 0.42821,-0.196519 0.004,0.0038 0.007,0.0801 0.006,0.169479 -6.9e-4,0.182107 -0.0216,0.283234 -0.0962,0.46574 -0.0413,0.10092 -0.1512,0.30706 -0.22668,0.425112 l -0.0399,0.06243 h -0.2003 c -0.11017,0 -0.21568,0.0016 -0.23449,0.0037 -0.0188,0.0021 -0.11737,0.0019 -0.21904,-2.65e-4 z"
       id="path1141" />
  </g>
</svg>
