<svg xmlns="http://www.w3.org/2000/svg" width="103.97" height="121.063" viewBox="0 0 27.509 32.031"><g transform="translate(-94.347 -56.556)"><path d="M121.856 80.522l-13.689 8.065-13.754-7.95-.066-16.016 13.688-8.065 13.755 7.95z" fill="#8d6748"/><path d="M119.765 79.403l-11.668 6.875-11.724-6.777-.057-13.652 11.669-6.875 11.724 6.777z" fill="#fff"/><path d="M119.007 78.938l-10.921 6.435-10.974-6.343-.052-12.777 10.92-6.435 10.974 6.343z" fill="#8d6748"/><path d="M98.375 75.083l-.022-3.039 1.401 1.802 1.276-1.748-.02 2.91M113.709 71.666l-.052 3.415M111.37 73.332l2.263.028M115.339 75.014l1.412-3.027 1.413 3.027M115.877 73.938h1.749M111.54 71.675l-.051 3.344" fill="none" stroke="#fff" stroke-width=".423" stroke-opacity=".99"/><ellipse cx="104.273" cy="73.394" rx="1.427" ry="1.546" fill="none" stroke="#fff" stroke-width=".423" stroke-linejoin="round" stroke-opacity=".99"/><path d="M109.917 74.363a1.427 1.498 0 01-1.996.266 1.427 1.498 0 01-.266-2.093 1.427 1.498 0 011.993-.293" fill="none" stroke="#fff" stroke-width=".423" stroke-linejoin="round" stroke-opacity=".99"/><path d="M97.648 69.969l8.206-.067M109.823 69.902l8.61.067M97.715 76.225l20.584-.068M107.62 67.127c-.32-.336-.64-.55-.64-1.077M107.822 70.894c-.203 0-.544-.051-.74 0-.417-.972-.864-2.093-.673-3.33.667-.015.99.034 1.48.034" fill="none" stroke="#fff" stroke-width=".265" stroke-opacity=".99"/><path d="M107.822 70.894c.202 0 .678-.051.874 0 .417-.972.864-2.093.673-3.33-.667-.015-.99.034-1.48.034M107.855 65.63c-.486.91.113.853.27 1.48M108.665 66.008c-.385.413-.136.7-.034 1.11" fill="none" stroke="#fff" stroke-width=".265" stroke-opacity=".99"/><path d="M107.891 70.463c-.109 0-.292-.018-.397 0-.224-.352-.237-.416-.277-.746M107.891 70.463c.109 0 .364-.018.47 0 .224-.352.464-.76.361-1.208M108.722 69.255c-.557.142-.587.513-1.505.462" fill="none" stroke="#fff" stroke-width=".053" stroke-opacity=".99"/><path d="M107.69 70.428l-.184-.004-.061-.104c-.112-.192-.154-.3-.176-.455a1.933 1.933 0 00-.014-.087l-.007-.033.053.008c.084.012.39-.016.518-.049.129-.032.282-.102.453-.206.193-.117.409-.216.428-.196.004.003.007.08.006.17 0 .181-.021.282-.096.465-.041.1-.151.307-.227.425l-.04.062h-.2c-.11 0-.215.002-.234.004a3.532 3.532 0 01-.22 0z" fill="#fff" stroke="#fff" stroke-width=".053" stroke-linejoin="round" stroke-opacity=".99"/></g></svg>