<svg
	xmlns="http://www.w3.org/2000/svg" width="256" height="289" viewBox="0 0 256 289" preserveAspectRatio="xMidYMid">
	<path d="M128 288.5C124 288.5 120.3 287.4 116.9 285.5L81.6 264.6C76.3 261.7 79 260.6 80.6 260.1 87.7 257.7 89 257.2 96.5 253 97.3 252.4 98.3 252.7 99.1 253.2L126.1 269.4C127.2 269.9 128.5 269.9 129.3 269.4L235.1 208.2C236.1 207.6 236.7 206.6 236.7 205.3L236.7 83.1C236.7 81.8 236.1 80.7 235.1 80.2L129.3 19.2C128.3 18.7 126.9 18.7 126.1 19.2L20.4 80.2C19.3 80.7 18.8 82 18.8 83.1L18.8 205.3C18.8 206.3 19.3 207.6 20.4 208.2L49.3 224.9C64.9 232.8 74.7 223.5 74.7 214.3L74.7 93.7C74.7 92.1 76.1 90.5 77.9 90.5L91.4 90.5C93 90.5 94.6 91.8 94.6 93.7L94.6 214.3C94.6 235.2 83.2 247.4 63.3 247.4 57.2 247.4 52.5 247.4 39 240.8L11.1 224.9C4.2 220.9 0 213.5 0 205.5L0 83.3C0 75.4 4.2 68 11.1 64L116.9 2.8C123.5-0.9 132.5-0.9 139.1 2.8L244.9 64C251.8 68 256 75.4 256 83.3L256 205.5C256 213.5 251.8 220.9 244.9 224.9L139.1 286.1C135.7 287.7 131.7 288.5 128 288.5L128 288.5ZM160.6 204.5C114.2 204.5 104.7 183.3 104.7 165.2 104.7 163.6 106 162.1 107.9 162.1L121.6 162.1C123.2 162.1 124.6 163.1 124.6 164.7 126.7 178.7 132.8 185.6 160.9 185.6 183.1 185.6 192.7 180.6 192.7 168.7 192.7 161.8 190 156.8 155.3 153.3 126.4 150.4 108.4 144 108.4 121 108.4 99.5 126.4 86.8 156.6 86.8 190.5 86.8 207.2 98.5 209.4 123.9 209.4 124.7 209.1 125.5 208.6 126.3 208 126.8 207.2 127.3 206.4 127.3L192.7 127.3C191.3 127.3 190 126.3 189.7 125 186.6 110.4 178.4 105.6 156.6 105.6 132.2 105.6 129.3 114.1 129.3 120.4 129.3 128.1 132.8 130.5 165.6 134.8 198.2 139 213.6 145.1 213.6 167.9 213.3 191.2 194.3 204.5 160.6 204.5L160.6 204.5Z" fill="#539E43"/>
</svg>