<svg xmlns="http://www.w3.org/2000/svg" viewBox="0 0 128 128"><path d="M54.762 153.143v8.547h-4.724v-22.277h6.491c3.026 0 5.266.55 6.719 1.653 1.453 1.103 2.179 2.776 2.179 5.02 0 1.31-.361 2.477-1.083 3.497-.721 1.02-1.742 1.822-3.063 2.4l6.552 9.706h-5.242l-5.317-8.547h-2.512zm0-3.84h1.524c1.492 0 2.595-.25 3.306-.747.71-.498 1.066-1.28 1.066-2.346 0-1.057-.363-1.808-1.089-2.255-.726-.447-1.851-.671-3.375-.671h-1.432zM82.34 161.69l-.625-2.18h-.244c-.498.794-1.205 1.405-2.118 1.837-.915.432-1.957.647-3.124.647-2.002 0-3.509-.535-4.526-1.607-1.016-1.072-1.524-2.613-1.524-4.624v-11.108h4.648v9.95c0 1.229.218 2.15.656 2.766.436.615 1.131.92 2.086.92 1.301 0 2.24-.434 2.819-1.301.579-.87.869-2.308.869-4.32v-8.014h4.647v17.035H82.34zm17.918-17.356c2.011 0 3.586.786 4.725 2.355 1.137 1.569 1.706 3.72 1.706 6.453 0 2.813-.587 4.992-1.759 6.535-1.173 1.545-2.771 2.316-4.793 2.316-2 0-3.57-.727-4.708-2.18h-.32l-.776 1.875h-3.551V137.98h4.647v5.516c0 .7-.062 1.823-.184 3.368h.184c1.086-1.686 2.697-2.531 4.829-2.531zm-1.493 3.719c-1.147 0-1.985.353-2.513 1.059-.528.707-.803 1.872-.823 3.498v.502c0 1.829.271 3.139.814 3.932.544.792 1.405 1.188 2.583 1.188.955 0 1.713-.44 2.278-1.318.564-.878.846-2.156.846-3.832 0-1.676-.286-2.934-.854-3.772-.568-.838-1.345-1.257-2.331-1.257zm9.021-3.398h5.088l3.215 9.584c.275.833.463 1.818.564 2.956h.092c.111-1.046.329-2.032.654-2.956l3.154-9.584h4.983l-7.207 19.214c-.661 1.777-1.602 3.108-2.826 3.992-1.225.884-2.654 1.325-4.29 1.325-.803 0-1.59-.086-2.361-.26v-3.686a7.992 7.992 0 001.828.197c.822 0 1.541-.251 2.156-.754.615-.502 1.095-1.261 1.44-2.277l.274-.84z"/><path fill="#bd0012" d="M96.536 82.154l-70.804 42.04 91.68-6.218 7.061-92.442z" stroke="#fff"/><path fill="#bd0012" d="M117.562 117.912l-7.88-54.386L88.22 91.869z" stroke="#fff"/><path fill="#bd0012" d="M117.667 117.912L59.94 113.38l-33.898 10.696z" stroke="#fff"/><path fill="#bd0012" d="M26.12 124.09l14.421-47.244-31.733 6.787zM88.212 92.024l-13.27-51.975-37.974 35.595z" stroke="#fff"/><path fill="#bd0012" d="M121.462 40.782L85.565 11.464 75.57 43.78z" stroke="#fff"/><path fill="#bd0012" d="M104.673 1.012L83.562 12.679 70.242.855zM.458 99.48l8.845-16.13-7.156-19.214z" stroke="#fff"/><path fill="#bd0012" d="M1.672 63.526L8.87 83.944l31.277-7.017 35.71-33.185 10.077-32.007L70.067.529 43.09 10.625c-8.499 7.905-24.993 23.547-25.588 23.84-.588.302-10.89 19.774-15.829 29.06z" stroke="#fff"/><path fill="#bd0012" d="M26.947 26.85C45.37 8.584 69.116-2.206 78.23 6.99c9.109 9.194-.55 31.538-18.972 49.795-18.42 18.26-41.875 29.644-50.98 20.449-9.116-9.188.25-32.128 18.67-50.385zM26.12 124.07l14.308-47.394L87.95 91.943c-17.183 16.112-36.292 29.73-61.83 32.127zM75.857 43.742L88.118 91.97c14.353-15.09 27.235-31.314 33.543-51.38z" stroke="#fff"/><path fill="#bd0012" d="M121.536 40.832c4.882-14.735 6.008-35.87-17.012-39.794L85.633 11.47zM.458 99.267c.677 24.315 18.222 24.679 25.696 24.893L8.889 83.844z" stroke="#fff"/><path fill="#bd0012" d="M75.857 43.742c11.029 6.778 33.385 20.373 33.836 20.624.7.394 9.584-14.978 11.598-23.665z" stroke="#fff" stroke-linejoin="round"/><path fill="#bd0012" d="M40.41 76.678l19.128 36.902c11.312-6.133 20.167-13.606 28.28-21.611zM8.814 83.895l-2.711 32.27c5.115 6.986 12.15 7.591 19.53 7.048-5.34-13.288-16.005-39.859-16.82-39.318zM85.521 11.554l38 5.334c-2.028-8.596-8.256-14.14-18.871-15.875z" stroke="#fff"/></svg>