<svg xmlns="http://www.w3.org/2000/svg" width="400" height="400" viewBox="0 0 400 400">
    <path d="M312 98.9C310.8 99.2 309.4 99.7 308.8 100.1 308.3 100.4 306.7 101 305.3 101.4 303.9 101.7 302 102.5 300.9 103 299.9 103.6 298.7 104 298.2 104 297.8 104 296.3 104.5 294.9 105.2 293.5 105.8 291.7 106.5 290.9 106.6 290.1 106.8 288.6 107.3 287.6 107.8 286.6 108.3 284.8 109 283.6 109.3 282.4 109.7 280.3 110.4 279 111 277.7 111.5 276.3 112 276 112 275.7 112 274.3 112.5 272.8 113.2 271.4 113.8 269 114.7 267.6 115.2 262.1 117 259.3 118.1 257.8 118.8 256.9 119.2 255.3 119.8 254.2 120 253.1 120.2 251.7 120.8 251 121.2 250.3 121.6 248.6 122.2 247.2 122.6 245.8 123 244 123.6 243.2 124 242.4 124.4 240.8 125 239.8 125.2 238.7 125.5 237 126.1 236 126.6 235 127.1 233.6 127.6 232.8 127.8 232 128 230.6 128.5 229.5 129 228.5 129.5 226.8 130.2 225.7 130.4 224.7 130.7 223 131.3 222 131.8 221 132.3 219.3 132.9 218.2 133.1 217.1 133.4 215.2 134 214 134.6 212.8 135.1 210.6 135.9 209.2 136.4 202.8 138.5 199.9 139.6 199.5 139.9 199.2 140.2 197.9 140.6 196.6 141 195.3 141.4 193.7 142 193 142.4 192.3 142.8 190.9 143.4 189.8 143.6 188.7 143.9 187.1 144.5 186.3 144.9 184.8 145.6 183.7 146 176.8 148.4 175.4 148.9 173 149.8 171.6 150.4 170.2 151 168.4 151.7 167.6 151.8 166.8 152 165.4 152.5 164.4 153 163.4 153.5 161.8 154.1 160.8 154.4 159.8 154.7 158.4 155.2 157.7 155.6 157 156.1 155.5 156.6 154.5 156.9 153.4 157.1 151.8 157.7 150.7 158.2 149.7 158.7 148 159.4 146.9 159.6 145.9 159.9 144.3 160.5 143.4 161 142.5 161.5 140.9 162.1 139.8 162.4 138.7 162.6 137.2 163.2 136.5 163.6 135.8 164 134.2 164.7 132.9 165 131.6 165.3 129.7 166 128.6 166.6 127.6 167.1 126.3 167.6 125.8 167.6 125.4 167.6 123.9 168.1 122.5 168.8 121.1 169.5 119.7 170 119.5 170 119.2 170 117.7 170.6 116 171.4 114.4 172.1 112.2 173 111.2 173.3 108.8 174.1 105.6 175.4 102.6 176.8 101.3 177.5 99.6 178.1 98.8 178.3 98 178.4 96.4 179 95.1 179.7 93.9 180.3 92.6 180.8 92.3 180.8 92 180.8 90.8 181.3 89.6 181.9 88.4 182.6 86.7 183.3 85.8 183.6 84.9 183.9 83.8 184.4 83.2 184.8 82.7 185.2 81.4 185.9 80.5 186.4 74.8 189.2 75.7 197 81.9 198.2 82.7 198.3 84.5 198.9 85.7 199.5 87 200 89.1 200.6 90.3 200.9 91.6 201.1 93.4 201.7 94.4 202.2 95.4 202.7 97 203.2 98 203.4 99 203.6 101 204.2 102.4 204.8 103.8 205.4 105.7 206 106.6 206.2 107.5 206.3 108.9 206.8 109.7 207.3 110.5 207.7 112.5 208.4 114.1 208.8 115.7 209.2 117.6 209.8 118.3 210.1 119 210.5 120.8 211.1 122.4 211.4 123.9 211.7 125.9 212.4 126.8 212.8 127.7 213.2 129.3 213.8 130.4 214 131.6 214.3 134.2 215.3 136.3 216.2 140.6 218.3 140.9 218.3 142.6 217.1 143.2 216.6 145.2 215.4 146.8 214.4 149.7 212.7 151.2 211.7 154.9 209.3 155.8 208.6 157 208 157.4 207.9 157.8 207.7 158.7 207.1 159.4 206.6 160.1 206 161.1 205.2 161.8 204.9 162.5 204.6 164 203.7 165.2 202.9 167.8 201.2 169.4 200.1 171.2 199 172 198.6 173.5 197.6 174.6 196.9 175.7 196.2 177.4 195.2 178.4 194.7 179.4 194.1 180.5 193.4 180.8 193 181.1 192.6 182 192 182.8 191.6 184.7 190.7 188.4 188.4 189.8 187.3 190.4 186.8 191.1 186.4 191.3 186.4 191.5 186.4 192.3 186 193 185.5 193.6 185 195.6 183.8 197.2 182.8 198.9 181.8 200.8 180.6 201.6 180 202.4 179.4 204.4 178.2 206 177.2 207.7 176.2 209.5 175.1 210 174.6 210.6 174.1 211.6 173.5 212.4 173.2 213.1 172.9 214.2 172.3 214.8 171.8 215.3 171.3 217.2 170.2 218.8 169.2 220.5 168.3 222.2 167.2 222.7 166.8 223.7 166.2 225.5 165.1 228.3 163.4 229.1 163 230.3 162.2 230.9 161.7 231.6 161.2 232.8 160.5 233.6 160.2 234.4 159.8 235.4 159.2 235.8 158.8 236.2 158.4 238.1 157.2 240 156.1 241.9 154.9 243.9 153.7 244.6 153.2 246.3 152 252.6 148.2 255 147 256.1 146.4 257.5 145.5 258.1 144.9 258.8 144.4 259.5 144 259.7 144 259.9 144 260.7 143.6 261.4 143.1 262 142.5 263.2 141.8 264 141.4 264.8 141 265.8 140.4 266.2 140 266.6 139.6 267.7 139.1 268.6 138.8 269.5 138.5 270.4 138.1 270.7 137.9 271.8 137 271.6 138 270.3 139.5 267.1 143.2 255.2 155.2 246.8 163.2 243.6 166.2 240.7 169 240.2 169.4 239 170.6 227.3 181.5 224.8 183.8 223.6 184.9 221 187.3 219 189.2 214.3 193.6 208 199.4 205.2 201.8 203.9 202.9 200.2 206.2 197 209.2 191.4 214.2 189 216.4 183.2 221.8 182 222.9 179 225.6 176.5 227.7 169.1 234.2 169.2 234.6 179.3 241 180 241.4 181.8 242.6 183.2 243.6 184.5 244.6 186.4 245.9 187.2 246.4 188.1 247 190.8 248.8 193.3 250.5 206.3 259.4 209.8 261.6 211.4 262 213.2 262.5 214.9 263.6 227.7 272.7 228.6 273.3 229.9 274.2 230.6 274.6 231.8 275.4 233.2 276.4 235.7 278.4 236.4 279 237.4 279.7 238 280 238.5 280.3 241.1 282.1 243.6 284 246.1 285.9 248.7 287.8 249.4 288.2 250.9 289.1 252.7 290.6 256.4 293.6 265.4 301.1 268.8 302.6 274.3 301.6 275.5 301.4 276.6 301.2 276.7 301.2 278.3 301.2 282.6 294.5 283 291.2 283.2 290 283.7 287.9 284.2 286.6 284.7 285.3 285.3 282.7 285.6 280.8 285.8 279 286.4 276.6 286.9 275.4 287.3 274.3 287.9 271.8 288.2 269.9 288.5 268 289.1 265.6 289.6 264.5 290 263.4 290.5 261.1 290.8 259.4 291.1 257.6 291.7 254.9 292.2 253.4 292.7 251.9 293.4 249.3 293.6 247.6 293.9 246 294.4 243.7 294.8 242.7 295.3 241.6 295.8 239.5 296 237.9 296.2 236.3 296.9 233.7 297.4 232.1 298 230.6 298.6 227.9 298.8 226.2 299.1 224.5 299.6 222.1 300 221 300.5 219.8 301.1 217.4 301.4 215.7 301.7 213.9 302.4 211 302.9 209.3 303.5 207.6 304 205.1 304.2 203.8 304.3 202.5 304.9 200.1 305.4 198.4 305.9 196.8 306.6 194 306.8 192.3 307.1 190.5 307.6 188.1 308 186.9 308.5 185.6 309.1 182.9 309.4 180.7 309.7 178.6 310.3 176 310.8 174.9 311.2 173.8 311.8 171.4 312 169.6 312.3 167.7 312.9 164.9 313.4 163.4 313.9 161.9 314.5 159.1 314.8 157.2 315.1 155.4 315.6 153 316 151.9 316.5 150.8 317.1 148 317.4 145.7 317.7 143.3 318.4 140.3 318.8 139 319.2 137.7 319.8 135 320 133.1 320.2 131.2 320.8 128.5 321.2 127.1 321.7 125.7 322.3 122 322.6 118.8 323 115.7 323.4 112.2 323.6 111.1 324.5 106.4 323.7 101 322 99.4 320.9 98.4 315.4 98.2 312 98.9" fill="#f3f6f9"/><path d="M21.2 0.8C21.2 1.1 21 1.2 20.9 1 20.7 0.9 20.1 1.2 19.7 1.7 19 2.5 18.9 2.7 19.4 2.7 19.7 2.7 20 2.4 20 2.2 20 1.7 21.4 1.1 22.1 1.2 22.3 1.2 22.3 1 22.2 0.8 21.9 0.3 21.2 0.3 21.2 0.8M377.8 0.8C377.7 1 377.8 1.2 378.1 1.1 378.4 1 378.6 1.3 378.5 1.7 378.5 2.3 378.6 2.3 379 2 379.7 1.4 379.8 0.6 379.2 1 379 1.1 378.8 1.1 378.8 0.8 378.8 0.3 378.1 0.3 377.8 0.8M12 6.6C11.7 7 11.7 7.2 12 7.4 12.2 7.5 12.4 7.4 12.4 7.1 12.4 6.7 12.6 6.4 12.9 6.3 13.2 6.1 13.2 6.1 12.9 6 12.7 6 12.3 6.3 12 6.6M10.4 8.4C9.9 8.8 9.5 9.3 9.7 9.4 9.9 9.6 10 9.5 10 9.3 10 9 10.3 8.8 10.6 8.8 10.9 8.8 11.3 8.6 11.4 8.4 11.9 7.6 11.4 7.6 10.4 8.4M8.2 10.6C7.7 11.4 7.7 11.5 8.2 11.4 8.5 11.2 8.8 10.8 8.9 10.4 9.2 9.3 9 9.4 8.2 10.6M393.6 12.8C394 13.6 394.8 14.6 395.3 15 396.2 15.8 396.2 15.8 395.3 14.6 393 11.6 392.7 11.3 393.6 12.8M1 20.8C1.1 21 1.1 21.2 0.8 21.2 0.6 21.2 0.4 21.4 0.4 21.6 0.4 22 0.6 21.9 1 21.6 1.7 21 1.8 20.4 1.2 20.4 0.9 20.4 0.9 20.6 1 20.8M314.4 96.5C313.9 96.7 312.2 97.1 310.8 97.4 309.4 97.8 307.2 98.4 306 99 304.8 99.5 302.7 100.3 301.4 100.7 297.3 102.1 292.7 103.8 291.4 104.5 290.7 104.8 289.2 105.3 288 105.6 286.8 105.9 285.2 106.4 284.5 106.8 283.8 107.2 282.1 107.9 280.7 108.2 279.4 108.6 277.4 109.3 276.4 109.8 275.4 110.3 274 110.8 273.2 111 272.4 111.2 270.9 111.7 269.8 112.2 268.7 112.7 266.7 113.5 265.4 113.9 264.1 114.4 261.2 115.4 259 116.2 256.8 117 253.3 118.3 251.2 119.1 249.1 119.8 246.6 120.7 245.6 121.1 244.6 121.4 242.9 122 241.8 122.5 240.7 122.9 238.7 123.6 237.4 124 236 124.4 234.4 125 233.7 125.4 232.9 125.7 231.2 126.4 229.7 126.9 228.3 127.3 226.7 127.9 226.2 128.2 225.8 128.5 224.3 129 223 129.4 221.7 129.8 220 130.4 219.2 130.8 218.4 131.2 216.9 131.7 215.8 131.9 214.7 132.2 212.8 132.8 211.6 133.4 210.4 133.9 208.2 134.7 206.8 135.2 200.6 137.3 197.7 138.3 196.4 139 195.7 139.4 194.2 139.9 193 140.3 191.9 140.6 190.8 141.1 190.5 141.3 190.3 141.5 188.6 142.1 186.7 142.8 183.4 143.9 178.6 145.7 172.4 148 168 149.7 162.6 151.6 158.6 153.1 156.8 153.8 155.1 154.4 154.8 154.6 154.5 154.8 152.9 155.4 151.1 156.1 143.1 159 141.7 159.5 140.6 160.1 139.9 160.4 138.5 160.9 137.4 161.2 136.4 161.4 134.9 161.9 134.2 162.3 133 163 129.5 164.3 124.4 166 123 166.5 120.8 167.3 119.6 167.8 115.7 169.5 112.3 170.9 110.4 171.5 109.4 171.8 107.5 172.6 106.1 173.2 104.7 173.9 103.4 174.4 103.2 174.4 102.9 174.4 101.8 174.8 100.8 175.4 99.7 175.9 97.6 176.7 96 177.2 94.5 177.7 93.1 178.2 93 178.4 92.9 178.6 91.8 179 90.7 179.4 89.5 179.8 87.9 180.5 87 181 86.1 181.5 85 182 84.4 182.2 82.3 182.8 77.2 186.1 76 187.7 71.3 193.5 76.1 199.5 87.2 202 88.3 202.2 89.9 202.7 90.8 203.1 91.8 203.5 93.8 204.2 95.4 204.6 96.9 204.9 98.6 205.5 99.2 205.8 99.8 206.1 101.5 206.7 103.1 207.2 106.2 208.1 111.1 209.7 114.8 211 116.2 211.6 118.7 212.4 120.2 212.8 123.6 213.7 127.2 214.9 131.4 216.5 137 218.6 137.1 218.6 137.6 220.3 137.8 221.1 138.5 222.8 139 224 139.5 225.2 140.3 227.4 140.8 228.8 141.3 230.2 142.2 232.8 142.8 234.6 145 240.7 146.8 245.6 148.2 249.5 149 251.6 150 254.5 150.5 255.8 150.9 257.1 151.7 259.2 152.2 260.4 152.7 261.6 153.3 263.4 153.6 264.4 153.9 265.4 154.5 267.1 155 268.2 155.5 269.3 156.1 271.1 156.4 272.2 156.6 273.2 157.2 274.8 157.6 275.6 158 276.3 158.6 278.1 159 279.4 159.4 280.7 160 282.4 160.4 283.2 160.8 284 161.3 285.5 161.6 286.5 163.3 293.6 168.7 298.7 172.8 297 175 296.2 181.2 291.2 185.4 287 195.1 277.3 207.4 266.2 209.9 264.8 211.2 264.2 213.4 264.9 216 266.8 217.2 267.7 218.7 268.7 219.4 269.2 220.1 269.6 221.9 270.9 223.4 272 224.9 273.1 226.7 274.3 227.4 274.8 228.1 275.2 230 276.7 231.8 277.9 233.6 279.2 235.7 280.7 236.6 281.3 237.5 281.9 238.7 282.8 239.4 283.3 240.1 283.8 244.1 286.8 248.3 290 252.6 293.2 256.7 296.3 257.6 297 263.2 301.4 264.4 302.2 267 303.1 277 306.6 283.3 301.1 286.3 286.2 286.6 284.4 287.3 281.7 287.8 280 288.3 278.4 289 275.7 289.2 274.2 289.5 272.7 290.1 270.1 290.6 268.4 291.1 266.8 291.7 264.2 292 262.8 292.2 261.3 292.8 259.1 293.2 257.8 293.6 256.5 294.3 253.9 294.6 251.9 295 249.9 295.5 247.6 295.8 246.9 296.1 246.1 296.7 244 297 242.1 297.4 240.2 298.1 237.3 298.6 235.6 299.1 234 299.7 231.3 300 229.8 300.2 228.3 300.7 226 301.2 224.8 301.6 223.5 302.2 221.3 302.4 219.8 302.6 218.2 303.3 215.7 303.8 214 304.3 212.4 305 209.6 305.2 207.9 305.5 206.1 306 203.7 306.4 202.5 306.9 201.2 307.5 198.6 307.8 196.6 308.1 194.6 308.7 192 309.2 190.8 309.6 189.6 310.1 187.2 310.4 185.4 310.6 183.6 311.3 180.9 311.8 179.2 312.3 177.6 313 174.8 313.2 173.1 313.5 171.3 314 168.9 314.4 167.7 314.9 166.5 315.5 163.8 315.8 161.8 316.1 159.8 316.7 157.2 317.2 155.9 317.6 154.6 318.2 152.1 318.4 150.4 318.6 148.6 319.2 146 319.6 144.7 320 143.3 320.7 140.3 321 138 321.3 135.7 322 132.6 322.4 131.2 322.9 129.8 323.4 126.8 323.6 124.6 323.9 122.4 324.5 119 324.9 117 326.3 111.1 326.2 102 324.7 99.7 322.7 96.7 317.7 95.1 314.4 96.5M322 99.4C323.7 101 324.5 106.4 323.6 111.1 323.4 112.2 323 115.7 322.6 118.8 322.3 122 321.7 125.7 321.2 127.1 320.8 128.5 320.2 131.2 320 133.1 319.8 135 319.2 137.7 318.8 139 318.4 140.3 317.7 143.3 317.4 145.7 317.1 148 316.5 150.8 316 151.9 315.6 153 315.1 155.4 314.8 157.2 314.5 159.1 313.9 161.9 313.4 163.4 312.9 164.9 312.3 167.7 312 169.6 311.8 171.4 311.2 173.8 310.8 174.9 310.3 176 309.7 178.6 309.4 180.7 309.1 182.9 308.5 185.6 308 186.9 307.6 188.1 307.1 190.5 306.8 192.3 306.6 194 305.9 196.8 305.4 198.4 304.9 200.1 304.3 202.5 304.2 203.8 304 205.1 303.5 207.6 302.9 209.3 302.4 211 301.7 213.9 301.4 215.7 301.1 217.4 300.5 219.8 300 221 299.6 222.1 299.1 224.5 298.8 226.2 298.6 227.9 298 230.6 297.4 232.1 296.9 233.7 296.2 236.3 296 237.9 295.8 239.5 295.3 241.6 294.8 242.7 294.4 243.7 293.9 246 293.6 247.6 293.4 249.3 292.7 251.9 292.2 253.4 291.7 254.9 291.1 257.6 290.8 259.4 290.5 261.1 290 263.4 289.6 264.5 289.1 265.6 288.5 268 288.2 269.9 287.9 271.8 287.3 274.3 286.9 275.4 286.4 276.6 285.8 279 285.6 280.8 285.3 282.7 284.7 285.3 284.2 286.6 283.7 287.9 283.2 290 283 291.2 282.6 294.5 278.3 301.2 276.7 301.2 276.6 301.2 275.5 301.4 274.3 301.6 268.8 302.6 265.4 301.1 256.4 293.6 252.7 290.6 250.9 289.1 249.4 288.2 248.7 287.8 246.1 285.9 243.6 284 241.1 282.1 238.5 280.3 238 280 237.4 279.7 236.4 279 235.7 278.4 233.2 276.4 231.8 275.4 230.6 274.6 229.9 274.2 228.6 273.3 227.7 272.7 214.9 263.6 213.2 262.5 211.4 262 209.8 261.6 206.3 259.4 193.3 250.5 190.8 248.8 188.1 247 187.2 246.4 186.4 245.9 184.5 244.6 183.2 243.6 181.8 242.6 180 241.4 179.3 241 169.2 234.6 169.1 234.2 176.5 227.7 179 225.6 182 222.9 183.2 221.8 189 216.4 191.4 214.2 197 209.2 200.2 206.2 203.9 202.9 205.2 201.8 208 199.4 214.3 193.6 219 189.2 221 187.3 223.6 184.9 224.8 183.8 227.3 181.5 239 170.6 240.2 169.4 240.7 169 243.6 166.2 246.8 163.2 255.2 155.2 267.1 143.2 270.3 139.5 271.6 138 271.8 137 270.7 137.9 270.4 138.1 269.5 138.5 268.6 138.8 267.7 139.1 266.6 139.6 266.2 140 265.8 140.4 264.8 141 264 141.4 263.2 141.8 262 142.5 261.4 143.1 260.7 143.6 259.9 144 259.7 144 259.5 144 258.8 144.4 258.1 144.9 257.5 145.5 256.1 146.4 255 147 252.6 148.2 246.3 152 244.6 153.2 243.9 153.7 241.9 154.9 240 156.1 238.1 157.2 236.2 158.4 235.8 158.8 235.4 159.2 234.4 159.8 233.6 160.2 232.8 160.5 231.6 161.2 230.9 161.7 230.3 162.2 229.1 163 228.3 163.4 225.5 165.1 223.7 166.2 222.7 166.8 222.2 167.2 220.5 168.3 218.8 169.2 217.2 170.2 215.3 171.3 214.8 171.8 214.2 172.3 213.1 172.9 212.4 173.2 211.6 173.5 210.6 174.1 210 174.6 209.5 175.1 207.7 176.2 206 177.2 204.4 178.2 202.4 179.4 201.6 180 200.8 180.6 198.9 181.8 197.2 182.8 195.6 183.8 193.6 185 193 185.5 192.3 186 191.5 186.4 191.3 186.4 191.1 186.4 190.4 186.8 189.8 187.3 188.4 188.4 184.7 190.7 182.8 191.6 182 192 181.1 192.6 180.8 193 180.5 193.4 179.4 194.1 178.4 194.7 177.4 195.2 175.7 196.2 174.6 196.9 173.5 197.6 172 198.6 171.2 199 169.4 200.1 167.8 201.2 165.2 202.9 164 203.7 162.5 204.6 161.8 204.9 161.1 205.2 160.1 206 159.4 206.6 158.7 207.1 157.8 207.7 157.4 207.9 157 208 155.8 208.6 154.9 209.3 151.2 211.7 149.7 212.7 146.8 214.4 145.2 215.4 143.2 216.6 142.6 217.1 140.9 218.3 140.6 218.3 136.3 216.2 134.2 215.3 131.6 214.3 130.4 214 129.3 213.8 127.7 213.2 126.8 212.8 125.9 212.4 123.9 211.7 122.4 211.4 120.8 211.1 119 210.5 118.3 210.1 117.6 209.8 115.7 209.2 114.1 208.8 112.5 208.4 110.5 207.7 109.7 207.3 108.9 206.8 107.5 206.3 106.6 206.2 105.7 206 103.8 205.4 102.4 204.8 101 204.2 99 203.6 98 203.4 97 203.2 95.4 202.7 94.4 202.2 93.4 201.7 91.6 201.1 90.3 200.9 89.1 200.6 87 200 85.7 199.5 84.5 198.9 82.7 198.3 81.9 198.2 75.7 197 74.8 189.2 80.5 186.4 81.4 185.9 82.7 185.2 83.2 184.8 83.8 184.4 84.9 183.9 85.8 183.6 86.7 183.3 88.4 182.6 89.6 181.9 90.8 181.3 92 180.8 92.3 180.8 92.6 180.8 93.9 180.3 95.1 179.7 96.4 179 98 178.4 98.8 178.3 99.6 178.1 101.3 177.5 102.6 176.8 105.6 175.4 108.8 174.1 111.2 173.3 112.2 173 114.4 172.1 116 171.4 117.7 170.6 119.2 170 119.5 170 119.7 170 121.1 169.5 122.5 168.8 123.9 168.1 125.4 167.6 125.8 167.6 126.3 167.6 127.6 167.1 128.6 166.6 129.7 166 131.6 165.3 132.9 165 134.2 164.7 135.8 164 136.5 163.6 137.2 163.2 138.7 162.6 139.8 162.4 140.9 162.1 142.5 161.5 143.4 161 144.3 160.5 145.9 159.9 146.9 159.6 148 159.4 149.7 158.7 150.7 158.2 151.8 157.7 153.4 157.1 154.5 156.9 155.5 156.6 157 156.1 157.7 155.6 158.4 155.2 159.8 154.7 160.8 154.4 161.8 154.1 163.4 153.5 164.4 153 165.4 152.5 166.8 152 167.6 151.8 168.4 151.7 170.2 151 171.6 150.4 173 149.8 175.4 148.9 176.8 148.4 183.7 146 184.8 145.6 186.3 144.9 187.1 144.5 188.7 143.9 189.8 143.6 190.9 143.4 192.3 142.8 193 142.4 193.7 142 195.3 141.4 196.6 141 197.9 140.6 199.2 140.2 199.5 139.9 199.9 139.6 202.8 138.5 209.2 136.4 210.6 135.9 212.8 135.1 214 134.6 215.2 134 217.1 133.4 218.2 133.1 219.3 132.9 221 132.3 222 131.8 223 131.3 224.7 130.7 225.7 130.4 226.8 130.2 228.5 129.5 229.5 129 230.6 128.5 232 128 232.8 127.8 233.6 127.6 235 127.1 236 126.6 237 126.1 238.7 125.5 239.8 125.2 240.8 125 242.4 124.4 243.2 124 244 123.6 245.8 123 247.2 122.6 248.6 122.2 250.3 121.6 251 121.2 251.7 120.8 253.1 120.2 254.2 120 255.3 119.8 256.9 119.2 257.8 118.8 259.3 118.1 262.1 117 267.6 115.2 269 114.7 271.4 113.8 272.8 113.2 274.3 112.5 275.7 112 276 112 276.3 112 277.7 111.5 279 111 280.3 110.4 282.4 109.7 283.6 109.3 284.8 109 286.6 108.3 287.6 107.8 288.6 107.3 290.1 106.8 290.9 106.6 291.7 106.5 293.5 105.8 294.9 105.2 296.3 104.5 297.8 104 298.2 104 298.7 104 299.9 103.6 300.9 103 302 102.5 303.9 101.7 305.3 101.4 306.7 101 308.3 100.4 308.8 100.1 311.5 98.3 320.3 97.9 322 99.4M399.5 371.9C399.1 372.3 399.2 373.9 399.6 374.2 399.8 374.3 400 373.9 400 373 400 371.6 399.9 371.4 399.5 371.9M0 373.2C0 374.5 0.1 374.5 0.4 373.6 0.7 373 0.7 372.5 0.4 372.3 0.1 372 0 372.3 0 373.2M0.7 377.7C0.4 378.6 0.7 379.6 1.4 379.6 1.7 379.6 2.2 379.7 2.5 379.8 2.9 380 3.3 379.7 3.6 379.2 4.3 377.9 3.2 376.8 2 377.5 1.4 377.9 1.2 377.9 1.1 377.5 1 377.2 0.8 377.3 0.7 377.7M398.9 379.4C398.6 380 398.2 380.3 398 380.2 397.8 380.1 397.6 380.1 397.6 380.4 397.6 380.6 397.8 380.8 398 380.8 398.5 380.8 399.8 378.9 399.5 378.6 399.4 378.5 399.1 378.9 398.9 379.4M4.6 383.6C4.7 383.8 4.6 384.1 4.4 384.2 3.9 384.5 5 386 5.8 386 6 386 5.9 385.8 5.5 385.6 4.8 385.1 4.8 385.1 5.5 384.5 5.9 384.2 5.9 384.1 5.6 384.2 5.2 384.5 5.1 384.4 5.3 383.9 5.5 383.4 5.4 383.2 5 383.2 4.6 383.2 4.5 383.4 4.6 383.6M394.8 383.6C394.4 383.9 394.4 384.1 394.7 384.5 395.2 385 395.1 385.2 394.5 385.6 394.1 385.8 394 386 394.2 386 394.5 386 395 385.6 395.4 385.1 395.9 384.6 396 384.4 395.6 384.6 395.3 384.7 395.3 384.6 395.7 384.3 396.5 383.6 395.7 383 394.8 383.6M7.2 386.5C7.2 386.7 7.4 386.8 7.6 386.8 7.9 386.8 7.9 387 7.8 387.2 7.5 387.7 8 387.7 8.8 387.2 9.3 386.9 9.3 386.8 8.7 386.8 8.3 386.8 8 386.7 8.2 386.5 8.3 386.3 8.1 386.1 7.8 386.1 7.5 386.1 7.2 386.3 7.2 386.5M8.7 389.4C8.5 389.7 8.6 390 8.8 390 9.1 390 9.1 390.2 9 390.4 8.7 390.9 9.8 391.6 10.6 391.4 11 391.2 11.2 391.3 11.1 391.6 11.1 391.9 11.2 392.2 11.5 392.3 11.8 392.4 12 392.3 12 392.1 12 391.5 11.2 391 10.2 391 9.7 391 9.4 390.7 9.3 390 9.1 388.8 9 388.6 8.7 389.4M390.6 390.4C390.1 390.6 389.6 391 389.5 391.4 389.2 392.2 390.3 391.6 391.2 390.6 391.8 389.9 391.7 389.9 390.6 390.4M387.5 393C386.6 393.3 386.5 393.5 386.9 393.7 387.3 393.8 387.8 393.6 388.2 393.2 389 392.3 389 392.3 387.5 393M14.3 394.9C15 395.6 15.5 395.9 16 395.7 16.7 395.4 17.1 394.5 16.4 394.7 16.2 394.8 16 394.7 16 394.5 16 394.3 15.7 394.1 15.4 394.1 15.1 394.1 15 394.4 15.1 394.8 15.3 395.3 15.1 395.2 14.4 394.6L13.4 393.8 14.3 394.9M383.8 394.9C383.2 396.9 383.2 397 384 396 384.5 395.5 384.7 395.3 384.6 395.6 384.4 396 384.6 395.9 385.1 395.4 386.1 394.6 386.4 394 385.5 394.7 385.1 395.1 384.8 395.1 384.5 394.7 384.1 394.4 384 394.4 383.8 394.9M20.6 397.2C20.2 397.9 20.9 399.7 21.4 399.4 21.8 399.3 22 399.4 22 399.6 22 399.8 22.4 400 22.9 400 23.7 400 23.7 399.9 22.6 399.4 21.2 398.6 20.2 397.8 21.3 398.1 21.9 398.3 22.6 397.5 22.1 397 21.7 396.7 20.9 396.8 20.6 397.2M26 399.6C26 399.8 26.6 400 27.2 400 27.9 400 28.3 399.8 28.2 399.6 28.1 399.4 27.5 399.2 27 399.2 26.4 399.2 26 399.4 26 399.6" fill="#aac9e0"/><path d="M22 0.6C22.3 1 22.4 1.2 22.2 1.2 21.4 1 20 1.7 20 2.2 20 2.4 19.7 2.7 19.4 2.7 18.9 2.7 18.9 2.5 19.4 1.6L20 0.6 19.1 1.6C18.6 2.2 17.7 2.8 17.1 3 16.5 3.1 15.5 3.7 14.9 4.3 14.3 4.9 14.1 5.1 14.6 4.8 15.6 4 17 3.2 17.5 3.2 17.7 3.2 17.1 3.6 16.3 4 15.5 4.5 14.8 5 14.8 5.2 14.8 5.3 14.3 5.7 13.6 6 12.9 6.3 12.4 6.8 12.4 7.1 12.4 7.4 12.2 7.5 11.9 7.4 11.6 7.2 11.8 6.8 12.4 6.3 12.9 5.9 13.1 5.6 12.9 5.6 12.1 5.6 11.3 6.8 11.5 7.6 11.6 8.2 11.5 8.5 10.9 8.7 10.4 8.8 10 9.1 10 9.3 10 9.5 9.9 9.6 9.7 9.4 9.5 9.3 9.9 8.8 10.4 8.3L11.4 7.5 10 8.3C9.3 8.7 8.6 9.3 8.5 9.6 8.4 10.1 8.4 10.1 8.8 9.6 9.2 9.1 9.2 9.2 9 10 8.8 10.6 8.5 11.1 8.3 11.2 7.3 11.5 5.9 13.3 6.2 13.9 6.4 14.4 6.3 14.4 5.9 14.1 4.8 13.2 2.3 17.3 2.6 19.3 2.7 20.1 2.2 20.3 1.8 19.6 1.7 19.4 1.8 19.2 2 19.2 2.3 19.2 2.4 19.1 2.3 18.9 1.9 18.6 0.4 20 0.4 20.7 0.4 21 0.6 21.2 0.8 21.2 1 21.2 1.1 20.9 0.9 20.5 0.7 19.9 0.8 19.9 1.2 20.3 1.8 20.8 1 22.2 0.4 21.8 -0.2 21.4-0.1 371.7 0.4 372.3 0.7 372.5 0.7 373 0.4 373.8 -0.3 375.6-0.1 379.3 0.6 378 0.9 377.5 1.2 377.2 1.2 377.5 1.2 377.9 1.4 377.9 2 377.5 3.1 376.8 4.3 377.9 3.7 379.1 3.2 379.9 1.2 380.1 0.7 379.4 0.5 379.1 0.4 379.2 0.4 379.4 0.4 380.2 1.9 381.3 2.2 380.8 2.3 380.6 2.7 380.4 2.9 380.4 3.2 380.4 3.2 380.5 2.9 380.9 2.3 381.4 2.2 382.2 2.8 381.8 3 381.7 3.3 381.8 3.4 382.1 3.6 382.3 3.6 382.4 3.3 382.2 2.8 381.9 2.7 382.4 3 383.4 3.2 383.7 3.5 383.9 3.7 383.7 3.9 383.6 4 383.8 3.8 384.3 3.7 384.8 3.9 385.3 4.6 385.9 5.1 386.4 5.6 387 5.6 387.3 5.6 388 7.1 389.4 7.5 389.1 7.6 388.9 8 389.4 8.4 390.1 8.7 390.8 9.4 391.6 9.9 391.8 10.4 392.1 11.2 392.7 11.6 393.3 12.5 394.5 13.3 394.8 12.9 393.8 12.7 393.2 12.8 393.2 13.5 393.8 14.5 394.6 14.7 395 14 394.6 13.7 394.4 13.8 394.8 14.2 395.3 14.6 395.9 15.7 396.7 16.7 397.1 17.8 397.5 19 398.2 19.5 398.8 20.2 399.7 20.4 399.7 20.6 399.1 20.9 398.5 21 398.5 22.3 399.2 23.9 400 26 400.3 26 399.6 26 399.1 27.9 399.1 28.2 399.6 28.4 399.9 86 400 203.9 400L379.3 400 380.5 398.8C381.1 398.1 381.8 397.6 382.1 397.6 382.3 397.6 382.3 397.4 382.2 397.2 382.1 397 382.3 397 382.7 397 383.5 397.2 386 395.8 386 395.2 386 394.9 385.8 394.9 385.3 395.3 385 395.6 384.6 395.8 384.4 395.8 384.3 395.8 384.2 395.9 384.3 396.1 384.3 396.2 384.1 396.4 383.8 396.5 383.4 396.7 383.3 396.6 383.4 396.2 384 394.3 384 394.3 384.6 394.8 384.9 395.1 385.2 395.1 385.4 394.8 385.5 394.6 385.9 394.5 386.3 394.7 386.7 394.9 386.8 394.8 386.6 394.4 386.4 394 386.5 394 387.1 394.2 387.7 394.4 388.1 394.2 388.6 393.4 389 392.8 389.8 392.1 390.5 391.8 391.1 391.4 391.6 391 391.4 390.9 391.3 390.8 390.9 390.9 390.6 391.2 390.3 391.5 389.9 391.6 389.7 391.5 389.3 391.1 390.2 390.4 391.1 390.3 391.9 390.2 392.4 389.7 392.6 388.5 392.8 387.9 394.3 386.4 394.6 386.7 394.7 386.8 394.8 386.7 394.8 386.5 394.8 386.2 394.6 386 394.3 386 394 386 394.1 385.8 394.5 385.6 395.1 385.2 395.2 385 394.7 384.5 394.2 383.8 394.9 383.1 395.9 383.5 396.5 383.7 396.6 384.4 395.9 384.3 395.7 384.2 395.4 384.4 395.4 384.6 395.4 384.8 395.2 385.2 395.1 385.5 394.9 385.8 394.9 386 395.2 386 395.8 386 397.2 383.5 397 382.7 397 382.3 397 382.1 397.2 382.2 397.4 382.3 397.6 382.2 397.6 381.9 397.6 381.6 398 381.1 398.6 380.8 399.6 380.3 400.3 378.5 399.7 377.9 399.4 377.7 399.5 377.1 399.7 376.4 400.1 375.5 400.1 375 399.7 374.4 399.1 373.4 399.1 372.1 399.6 371.8 400.1 371.5 400.2 24.5 399.6 23 399.4 22.4 399.4 21.9 399.6 21.8 400.3 21.4 400.1 20.8 398.8 19.6 398.2 18.9 397.5 17.8 397.2 17.1 396.6 15.4 395.7 14 395.1 14 394.9 14 395 14.4 395.4 14.9L396.2 15.8 395.3 15C394.4 14.3 392.6 11.6 393 11.6 393.1 11.6 393.6 12.2 394 12.9 394.9 14.4 395.1 14.1 394.2 12.4 393.9 11.7 393.1 11.1 392.6 11 392.1 10.8 391.4 10.2 391 9.7L390.4 8.6 391.2 9.5C391.6 10.1 392 10.3 392 10.1 392 9.2 390.4 8.2 389.9 8.8 389.6 9.3 389.6 9.3 389.7 8.8 390.1 7.5 387.3 4.8 386.7 5.9 386.6 6.1 386.6 6 386.6 5.7 386.9 4.6 383.1 2.4 381.9 3 381.6 3.2 381.5 3.2 381.7 3 382.2 2.4 379.7 0.2 379.1 0.7 378.7 1.2 378.7 1.2 379.4 1 380.2 0.7 380.2 0.7 379.4 1.5 378.5 2.6 378.5 2.6 378.5 1.7 378.6 1.3 378.4 1 378 1.1 377.6 1.2 377.6 1 378.2 0.6 378.9 0.1 359.9 0 200.2 0 38.9 0 21.6 0.1 22 0.6M385.1 4.4C385.6 4.9 386 5.4 386 5.7 386 6 385.7 5.8 385.4 5.3 385 4.8 384.5 4.2 384.1 4 383.7 3.8 383.6 3.6 383.8 3.6 384.1 3.6 384.6 4 385.1 4.4M7.4 10.9C6.6 11.2 5.4 12.8 5.7 12.9 5.7 13 6.4 12.4 7.1 11.7 7.9 11 8.4 10.4 8.3 10.4 8.3 10.4 7.8 10.6 7.4 10.9M321.5 97C326 99.1 327.3 107.1 324.9 117 324.5 119 323.9 122.4 323.6 124.6 323.4 126.8 322.9 129.8 322.4 131.2 322 132.6 321.3 135.7 321 138 320.7 140.3 320 143.3 319.6 144.7 319.2 146 318.6 148.6 318.4 150.4 318.2 152.1 317.6 154.6 317.2 155.9 316.7 157.2 316.1 159.8 315.8 161.8 315.5 163.8 314.9 166.5 314.4 167.7 314 168.9 313.5 171.3 313.2 173.1 313 174.8 312.3 177.6 311.8 179.2 311.3 180.9 310.6 183.6 310.4 185.4 310.1 187.2 309.6 189.6 309.2 190.8 308.7 192 308.1 194.6 307.8 196.6 307.5 198.6 306.9 201.2 306.4 202.5 306 203.7 305.5 206.1 305.2 207.9 305 209.6 304.3 212.4 303.8 214 303.3 215.7 302.6 218.2 302.4 219.8 302.2 221.3 301.6 223.5 301.2 224.8 300.7 226 300.2 228.3 300 229.8 299.7 231.3 299.1 234 298.6 235.6 298.1 237.3 297.4 240.2 297 242.1 296.7 244 296.1 246.1 295.8 246.9 295.5 247.6 295 249.9 294.6 251.9 294.3 253.9 293.6 256.5 293.2 257.8 292.8 259.1 292.2 261.3 292 262.8 291.7 264.2 291.1 266.8 290.6 268.4 290.1 270.1 289.5 272.7 289.2 274.2 289 275.7 288.3 278.4 287.8 280 287.3 281.7 286.6 284.4 286.3 286.2 283.3 301.1 277 306.6 267 303.1 264.4 302.2 263.2 301.4 257.6 297 256.7 296.3 252.6 293.2 248.3 290 244.1 286.8 240.1 283.8 239.4 283.3 238.7 282.8 237.5 281.9 236.6 281.3 235.7 280.7 233.6 279.2 231.8 277.9 230 276.7 228.1 275.2 227.4 274.8 226.7 274.3 224.9 273.1 223.4 272 221.9 270.9 220.1 269.6 219.4 269.2 218.7 268.7 217.2 267.7 216 266.8 213.4 264.9 211.2 264.2 209.9 264.8 207.4 266.2 195.1 277.3 185.4 287 181.2 291.2 175 296.2 172.8 297 168.7 298.7 163.3 293.6 161.6 286.5 161.3 285.5 160.8 284 160.4 283.2 160 282.4 159.4 280.7 159 279.4 158.6 278.1 158 276.3 157.6 275.6 157.2 274.8 156.6 273.2 156.4 272.2 156.1 271.1 155.5 269.3 155 268.2 154.5 267.1 153.9 265.4 153.6 264.4 153.3 263.4 152.7 261.6 152.2 260.4 151.7 259.2 150.9 257.1 150.5 255.8 150 254.5 149 251.6 148.2 249.5 146.8 245.6 145 240.7 142.8 234.6 142.2 232.8 141.3 230.2 140.8 228.8 140.3 227.4 139.5 225.2 139 224 138.5 222.8 137.8 221.1 137.6 220.3 137.1 218.6 137 218.6 131.4 216.5 127.2 214.9 123.6 213.7 120.2 212.8 118.7 212.4 116.2 211.6 114.8 211 111.1 209.7 106.2 208.1 103.1 207.2 101.5 206.7 99.8 206.1 99.2 205.8 98.6 205.5 96.9 204.9 95.4 204.6 93.8 204.2 91.8 203.5 90.8 203.1 89.9 202.7 88.3 202.2 87.2 202 76.1 199.5 71.3 193.5 76 187.7 77.2 186.1 82.3 182.8 84.4 182.2 85 182 86.1 181.5 87 181 87.9 180.5 89.5 179.8 90.7 179.4 91.8 179 92.9 178.6 93 178.4 93.1 178.2 94.5 177.7 96 177.2 97.6 176.7 99.7 175.9 100.8 175.4 101.8 174.8 102.9 174.4 103.2 174.4 103.4 174.4 104.7 173.9 106.1 173.2 107.5 172.6 109.4 171.8 110.4 171.5 112.3 170.9 115.7 169.5 119.6 167.8 120.8 167.3 123 166.5 124.4 166 129.5 164.3 133 163 134.2 162.3 134.9 161.9 136.4 161.4 137.4 161.2 138.5 160.9 139.9 160.4 140.6 160.1 141.7 159.5 143.1 159 151.1 156.1 152.9 155.4 154.5 154.8 154.8 154.6 155.1 154.4 156.8 153.8 158.6 153.1 162.6 151.6 168 149.7 172.4 148 178.6 145.7 183.4 143.9 186.7 142.8 188.6 142.1 190.3 141.5 190.5 141.3 190.8 141.1 191.9 140.6 193 140.3 194.2 139.9 195.7 139.4 196.4 139 197.7 138.3 200.6 137.3 206.8 135.2 208.2 134.7 210.4 133.9 211.6 133.4 212.8 132.8 214.7 132.2 215.8 131.9 216.9 131.7 218.4 131.2 219.2 130.8 220 130.4 221.7 129.8 223 129.4 224.3 129 225.8 128.5 226.2 128.2 226.7 127.9 228.3 127.3 229.7 126.9 231.2 126.4 232.9 125.7 233.7 125.4 234.4 125 236 124.4 237.4 124 238.7 123.6 240.7 122.9 241.8 122.5 242.9 122 244.6 121.4 245.6 121.1 246.6 120.7 249.1 119.8 251.2 119.1 253.3 118.3 256.8 117 259 116.2 261.2 115.4 264.1 114.4 265.4 113.9 266.7 113.5 268.7 112.7 269.8 112.2 270.9 111.7 272.4 111.2 273.2 111 274 110.8 275.4 110.3 276.4 109.8 277.4 109.3 279.4 108.6 280.7 108.2 282.1 107.9 283.8 107.2 284.5 106.8 285.2 106.4 286.8 105.9 288 105.6 289.2 105.3 290.7 104.8 291.4 104.5 292.7 103.8 297.3 102.1 301.4 100.7 302.7 100.3 304.8 99.5 306 99 307.2 98.4 309.4 97.8 310.8 97.4 312.2 97.1 313.9 96.7 314.4 96.5 316.2 95.7 319.3 95.9 321.5 97M399 379.8C398.4 380.8 397.6 381.1 397.6 380.4 397.6 380.1 397.8 380.1 398 380.2 398.2 380.3 398.6 380 398.9 379.4 399.1 378.9 399.4 378.5 399.5 378.6 399.6 378.7 399.4 379.2 399 379.8M5.3 383.9C5.1 384.4 5.2 384.5 5.6 384.2 5.9 384.1 5.9 384.2 5.5 384.5 4.8 385.1 4.8 385.1 5.5 385.6 5.9 385.8 6 386 5.7 386 4.9 386 3.9 384.8 4.4 384.2 4.6 383.9 4.7 383.6 4.5 383.5 4.4 383.3 4.6 383.2 4.9 383.2 5.4 383.2 5.5 383.4 5.3 383.9M8.2 386.5C8 386.7 8.3 386.8 8.7 386.8 9.3 386.8 9.3 386.9 8.8 387.2 8 387.7 7.5 387.7 7.8 387.2 7.9 387 7.9 386.8 7.6 386.8 7.4 386.8 7.2 386.7 7.2 386.5 7.2 386.3 7.5 386.1 7.8 386.1 8.1 386.1 8.3 386.3 8.2 386.5M6.7 387.7C6.6 388 7 388.2 7.6 388.1 8.5 388 8.5 388 7.9 388.4 7.3 388.7 7 388.7 6.6 388.4 5.9 387.8 5.8 387.2 6.4 387.2 6.6 387.2 6.8 387.4 6.7 387.7M393.4 388C393 388.4 392.9 388.8 393.1 388.8 393.6 388.8 394.6 387.7 394.3 387.4 394.2 387.3 393.8 387.6 393.4 388M9.3 390C9.4 390.7 9.7 391 10.2 391 11.2 391 12 391.5 12 392.1 12 392.3 11.8 392.4 11.5 392.3 11.2 392.2 11.1 391.9 11.1 391.6 11.2 391.3 11 391.2 10.6 391.4 9.8 391.6 8.7 390.9 9 390.4 9.1 390.2 9.1 390 8.8 390 8.6 390 8.5 389.7 8.7 389.4 9 388.6 9.1 388.8 9.3 390M388.9 392.6C387.9 393.8 387.5 394 386.9 393.7 386.5 393.6 386.7 393.3 387.6 392.9 388.3 392.7 388.8 392.3 388.6 392.1 388.5 391.9 388.7 391.7 389 391.7 389.5 391.7 389.5 391.9 388.9 392.6M16 394.5C16 394.7 16.2 394.8 16.4 394.7 16.6 394.6 16.7 394.8 16.8 395 16.9 395.7 15.7 395.7 15.2 394.9 14.9 394.3 15 394.1 15.4 394.1 15.7 394.1 16 394.3 16 394.5M17 396.7C16.8 397 14.8 395.9 14.6 395.4 14.5 395.1 15 395.3 15.8 395.7 16.5 396.2 17.1 396.7 17 396.7M19.8 397.7C19.6 397.9 19.7 398.3 19.9 398.5 20.1 398.8 19.9 398.7 19.5 398.3 18.6 397.3 18.6 396.7 19.4 397.1 19.7 397.2 19.9 397.5 19.8 397.7M22.2 397.1C22.4 397.6 21.9 398.2 21.1 398.3 20.4 398.3 20.1 397.6 20.7 397.1 21 396.7 21.9 396.7 22.2 397.1M380.8 397.8C380.8 398.1 380.5 398.5 380.1 398.9 379.5 399.3 379.5 399.3 379.9 398.7 380.2 398.3 380.4 397.8 380.2 397.6 380.1 397.4 380.1 397.2 380.4 397.2 380.6 397.2 380.8 397.4 380.8 397.8" fill="#249cd4"/>
</svg>