<svg xmlns="http://www.w3.org/2000/svg" width="400" height="400" viewBox="0 0 400 400">
    <path d="M188.2 48.2C187.3 48.3 184.8 48.8 182.6 49.2 180.4 49.6 176.7 50.2 174.3 50.4 171.6 50.6 169.3 51.1 168.2 51.6 167.2 52 164.8 52.6 162.8 53 160.8 53.3 158.1 54.1 156.8 54.6 155.5 55.2 154.1 55.6 153.7 55.6 153.3 55.6 151.9 56.1 150.6 56.7 149.3 57.4 147.3 58.1 146.2 58.4 145.1 58.6 143.6 59.2 143 59.6 142.3 60 141 60.5 140.2 60.8 139.3 61.1 137.8 61.8 136.8 62.5 135.9 63.1 134.8 63.6 134.5 63.6 133.8 63.6 128.4 66.5 126.6 67.8 125.9 68.3 125 68.8 124.5 69 124.1 69.1 123 69.8 122.2 70.4 121.4 71.1 120.5 71.6 120.3 71.6 119.8 71.6 115.8 74.3 112.8 76.6 111.8 77.4 110.3 78.5 109.4 79.1 102.5 83.8 84.9 101.4 81.5 107 80.8 108.2 80 109.2 76.7 113.6 75.6 115 74.4 116.9 74 117.8 73.6 118.7 73.1 119.6 72.8 119.8 72.6 119.9 71.9 121 71.3 122.1 70.7 123.2 69.8 124.7 69.4 125.6 68.9 126.4 68.2 127.7 67.7 128.5 67.2 129.3 66.5 130.6 66.2 131.6 65.9 132.5 65.3 133.7 64.9 134.3 64.5 134.9 63.9 136.1 63.6 136.9 63.3 137.8 62.6 139.5 62 140.7 61.3 141.9 60.8 143.2 60.8 143.7 60.8 144.1 60.4 145.3 59.9 146.3 59.3 147.4 58.7 149.2 58.4 150.4 58.1 151.6 57.5 153.3 57.1 154.1 56.7 155 56 157.4 55.6 159.5 55.2 161.7 54.6 164.1 54.2 164.9 53.8 165.8 53.3 168.7 53 171.3 52.6 174 52 177.8 51.5 179.8 50.1 185.8 50.2 210.8 51.7 218.4 52.3 221.4 52.9 225.1 53 226.6 53.2 228.1 53.7 230.7 54.2 232.2 54.7 233.7 55.4 236.2 55.6 237.6 55.9 239 56.5 241.2 57 242.4 57.5 243.6 58.1 245.6 58.4 246.8 58.6 248 59.2 249.5 59.6 250.2 60 250.8 60.6 252.4 60.9 253.7 61.2 254.9 61.9 256.5 62.3 257.1 62.8 257.7 63.3 258.8 63.4 259.4 63.6 260.1 64.3 261.8 65.1 263.2 65.8 264.6 66.4 266 66.4 266.2 66.4 266.5 66.8 267.3 67.4 267.9 69.9 270.9 70.1 277.6 67.7 282.8 67.3 283.8 66.6 286 66.3 287.6 65.9 289.3 65.3 291.4 64.9 292.4 64.5 293.4 63.9 295.4 63.6 296.9 63.4 298.4 62.8 300.4 62.4 301.5 61.9 302.5 61.3 304.7 61 306.2 60.7 307.8 60.1 310 59.6 311.1 59.2 312.2 58.6 314.4 58.4 315.9 58.1 317.4 57.5 319.6 57 320.8 56.5 322 55.9 324.3 55.6 325.9 55.4 327.5 54.8 329.7 54.4 330.9 53.9 332 53.3 334.4 53 336.1 52.6 337.8 52 340 51.6 340.9 50.8 342.8 50 347.1 50 349.3 50 351.6 50.8 351.9 53.7 350.9 55.1 350.4 57.1 349.9 58.2 349.8 59.3 349.6 61.3 349.1 62.6 348.6 63.9 348.1 66.2 347.4 67.6 347.2 69 346.9 71.2 346.3 72.6 345.8 73.9 345.3 76 344.8 77.2 344.6 78.4 344.4 80.6 343.9 82 343.3 83.4 342.8 86.1 342.1 87.8 341.8 89.6 341.5 91.8 340.9 92.6 340.6 93.5 340.2 95.9 339.6 97.9 339.2 99.9 338.7 102.1 338.2 102.7 337.8 103.4 337.5 105.5 337 107.4 336.6 109.4 336.2 111.8 335.6 112.9 335.2 114 334.7 116.1 334.2 117.7 334 119.3 333.7 121.8 333.1 123.2 332.5 126.8 331.1 129.8 331.1 131.8 332.4 132.7 333 134.1 333.7 134.9 334 135.7 334.2 136.8 334.8 137.3 335.2 137.8 335.6 139.1 336.2 140.2 336.5 141.3 336.8 142.8 337.5 143.6 337.9 144.4 338.4 146 339 147.2 339.3 148.4 339.7 150.5 340.4 151.8 341 153.1 341.5 154.5 342 154.9 342 155.3 342 156.9 342.5 158.5 343.2 160.1 343.8 162.4 344.4 163.6 344.6 164.8 344.8 167.2 345.3 168.9 345.8 170.7 346.4 173.8 347 175.9 347.2 178.1 347.4 182.1 348 185 348.5 192.6 349.7 210.5 349.8 216.8 348.5 219.1 348 223.1 347.4 225.6 347.2 228.3 346.9 231.4 346.4 233 345.8 234.5 345.3 237 344.7 238.5 344.4 240 344.2 242.1 343.6 243.2 343.2 244.3 342.8 246.4 342.1 247.9 341.8 249.3 341.5 251.1 340.8 251.8 340.4 252.4 340 253.9 339.5 255 339.2 256.1 339 257.8 338.3 258.8 337.8 262.2 336 267.4 333.6 267.8 333.6 268 333.6 268.8 333.2 269.6 332.7 270.4 332.1 271.7 331.5 272.5 331.2 273.3 331 274.2 330.5 274.5 330.1 274.8 329.8 275.8 329.1 276.7 328.7 277.6 328.3 278.5 327.8 278.6 327.6 278.7 327.4 279.9 326.6 281.1 326 286.8 323 299.4 312.9 307 305.4 311.1 301.3 319.4 291.7 321.8 288.2 322.7 287 323.9 285.2 324.6 284.4 325.8 282.9 326.4 281.9 328.6 278.2 330.8 274.5 331.4 273.5 332.2 272.3 333.3 270.7 336.8 263.5 336.8 263 336.8 262.8 337.2 262 337.7 261.2 338.3 260.4 338.9 259.1 339.2 258.2 339.5 257.3 340.1 255.8 340.6 254.8 341.1 253.8 341.7 252.1 342 251.1 342.2 250 342.9 248.3 343.4 247.3 343.9 246.2 344.4 244.6 344.6 243.6 344.8 242.6 345.3 240.5 345.8 239 346.3 237.5 347 235 347.2 233.6 347.5 232.2 348 229.9 348.4 228.5 348.8 227.1 349.5 223.3 349.8 220 350.1 216.7 350.7 211.8 351 209.1 351.9 201.4 351.8 197.9 350 179.4 349.5 174.2 348.9 170.2 348.3 168.2 347.7 166.4 347.2 164 347 162.9 346.9 161.7 346.4 159.8 346 158.7 345.5 157.6 344.9 155.4 344.6 153.9 344.2 152.3 343.6 150.5 343.2 149.8 342.8 149.1 342.2 147.7 342 146.6 341.5 144.5 340.1 141.1 337.8 136.2 337 134.7 336.4 133.2 336.4 133 336.4 132.7 336 131.9 335.4 131 334.9 130.2 334.3 129.1 334.2 128.6 334 128.1 333.3 126.8 332.6 125.7 331.8 124.7 331.2 123.6 331.2 123.3 331.2 123.1 330.8 122.3 330.2 121.7 329.7 121 328.8 119.7 328.4 118.8 328 117.8 326.9 116 326 114.8 325.1 113.6 324 112 323.5 111.3 315.1 99.6 301.4 85.4 292.5 79.2 292.1 78.9 290.5 77.7 289 76.6 283.9 72.8 282.2 71.6 281.9 71.6 281.7 71.6 280.7 71 279.5 70.2 278.4 69.4 277.3 68.8 277 68.8 276.8 68.8 276.1 68.4 275.6 67.8 275.1 67.3 273.8 66.5 272.8 66.2 271.7 65.8 270.7 65.3 270.4 65 270.1 64.7 269.1 64.2 268 63.8 267 63.5 265.5 62.7 264.8 62.2 264 61.6 263.1 61.2 262.8 61.2 262.4 61.2 261.1 60.7 259.9 60 258.7 59.4 256.6 58.6 255.3 58.2 254 57.8 252.6 57.3 252.1 57 251.6 56.6 250.1 56.1 248.7 55.8 247.3 55.4 245.3 54.8 244.3 54.4 243.2 53.9 240.8 53.3 238.9 53 237.1 52.6 234.6 52 233.6 51.6 232.4 51.1 229.2 50.5 226.1 50.2 223.1 49.9 219.6 49.3 218.4 49 216.3 48.3 192.9 47.8 188.2 48.2M212.2 76.8C215.9 77 220.2 77.5 221.6 77.8 223 78.1 226.3 78.9 228.9 79.4 231.5 79.9 234.3 80.7 235.1 81 235.9 81.3 237.8 81.9 239.4 82.3 240.9 82.6 242.9 83.3 243.9 83.8 244.9 84.4 246 84.8 246.4 84.8 247 84.8 248.2 85.3 256.4 89.4 262.2 92.2 264.3 93.4 265.1 94.1 265.5 94.5 266.5 95 267.2 95.3 268 95.7 269.3 96.5 270.2 97.1 272 98.5 273.5 99.7 277 102.2 278.3 103.1 279.9 104.4 280.6 104.9 283.3 107.2 295.2 119.1 296.4 120.8 297.2 121.9 298.6 123.7 299.6 125 303 129.4 303.6 130.2 304.6 132 305.1 133 306 134.4 306.6 135.2 307.1 135.9 307.6 136.7 307.6 136.9 307.6 137.1 308 137.8 308.6 138.5 309.1 139.2 309.7 140.4 310 141.2 310.2 142 310.9 143.3 311.4 144 312 144.8 312.4 145.6 312.4 145.8 312.4 146.1 312.9 147.4 313.6 148.6 314.3 149.9 315 151.7 315.3 152.8 315.5 153.8 316.1 155.3 316.6 156.2 317.1 157.1 317.7 158.9 318 160.2 318.3 161.5 318.9 163.6 319.4 165 319.9 166.3 320.4 168.4 320.6 169.6 320.7 170.8 321.3 173.8 321.9 176.2 323.9 185.1 323.9 205.7 321.8 215.4 319.7 225.5 317.5 233.5 316.5 235.3 316.1 236 315.5 237.4 315.3 238.4 315 239.5 314.3 241.3 313.6 242.6 312.9 243.8 312.4 245.1 312.4 245.4 312.4 245.6 312 246.4 311.4 247.2 310.9 247.9 310.2 249.2 310 250 309.7 250.7 309 252.1 308.3 252.9 307.7 253.8 307.2 254.7 307.2 255 307.2 255.3 306.7 256.1 306.2 256.8 305.6 257.6 304.4 259.4 303.5 260.8 302.6 262.3 301.3 264.1 300.7 264.8 300 265.6 298.2 267.9 296.5 270 290.4 277.8 283.8 284 272.9 292.1 270.4 294 261.2 299.6 260.6 299.6 260.5 299.6 259.8 300 259.1 300.6 258.4 301.1 257.1 301.7 256.2 302 255.3 302.3 254 302.9 253.2 303.4 252.4 303.9 251.1 304.5 250.2 304.8 249.4 305.1 248.1 305.6 247.4 306 246.8 306.4 245.3 307 244.2 307.2 243.1 307.5 241.3 308.1 240.1 308.7 239 309.2 237 309.8 235.8 310 234.6 310.2 232.3 310.8 230.7 311.3 229.1 311.9 226.1 312.5 224.1 312.8 222.1 313 218.8 313.6 216.9 314.1 211.5 315.4 188.2 315.4 182.2 314.1 180 313.6 176.4 312.9 174.1 312.6 171.9 312.3 169.2 311.7 168.1 311.2 167 310.8 165 310.2 163.6 310 162.2 309.7 160.2 309.1 159.2 308.6 158.2 308.1 156.6 307.5 155.8 307.4 154.9 307.2 153.2 306.6 152 306 150.8 305.4 149.3 304.7 148.6 304.6 147.9 304.4 146.8 303.9 146 303.4 142.4 300.9 136.9 301 131.2 303.4 130 303.9 128 304.4 126.8 304.6 125.6 304.8 123.5 305.3 122.2 305.8 120.9 306.3 118.4 307 116.8 307.4 115.2 307.7 113.1 308.2 112.2 308.6 111.4 309 108.9 309.6 106.8 310 104.6 310.4 102.3 311 101.7 311.3 101.1 311.7 99 312.2 97.1 312.6 95.1 312.9 92.6 313.6 91.5 314 86.9 315.8 84.8 314.7 86.3 311.3 86.8 310.2 87.3 308.2 87.6 306.8 87.9 305.4 88.4 303.6 88.8 302.8 89.2 302 89.8 299.9 90.2 298 90.6 296.1 91.2 294 91.6 293.2 92 292.4 92.5 290.6 92.8 289.2 93.1 287.8 93.6 285.8 94.1 284.8 94.5 283.8 95.1 281.7 95.4 280.1 95.7 278.5 96.4 276.3 96.9 275.3 98.3 272.2 98.3 269.1 96.8 266.3 96.2 265 95.6 263.7 95.6 263.3 95.6 262.9 95.1 261.7 94.6 260.6 94 259.5 93.3 257.7 92.9 256.6 92.6 255.5 92.1 254.3 91.8 254 91.5 253.6 90.8 252.5 90.4 251.4 89.9 250.3 89.2 249 88.8 248.6 88.4 248.2 87.9 247.1 87.6 246.2 87.3 245.3 86.7 244 86.2 243.2 85.7 242.4 85.2 241.2 85 240.4 84.8 239.6 84.3 238.3 83.8 237.3 83.2 236.4 82.6 234.6 82.3 233.3 82 232.1 81.4 230.3 81 229.4 80.6 228.5 79.9 225.9 79.4 223.6 78.9 221.3 78.2 218.5 77.9 217.3 75.6 209.6 75.7 181.5 78.1 173 78.5 171.5 79.2 168.6 79.6 166.6 80 164.6 80.7 162.2 81.1 161.2 81.5 160.2 82.1 158.6 82.3 157.5 82.6 156.5 83.3 154.8 83.8 153.8 84.4 152.7 84.8 151.6 84.8 151.2 84.8 150.6 87.4 145 88.7 142.8 89 142.3 89.5 141.2 89.8 140.4 90.2 139.6 90.6 138.7 90.8 138.4 91 138.1 91.5 137.3 91.9 136.7 92.3 136 93 134.9 93.5 134.3 94 133.6 94.7 132.3 95.2 131.5 96.5 129.2 102 121.9 104.6 119.1 108.5 114.8 112.6 110.7 115.2 108.4 116.8 107 118.7 105.3 119.4 104.6 120.8 103.3 122.3 102.2 125.9 99.7 127.1 98.9 128.7 97.7 129.4 97.1 130.1 96.5 131.3 95.7 132.1 95.4 132.8 95.1 134 94.4 134.8 93.8 135.5 93.3 136.4 92.8 136.6 92.8 136.9 92.8 137.7 92.3 138.3 91.8 139 91.2 140.4 90.5 141.5 90.1 142.5 89.8 143.8 89.2 144.3 88.8 144.8 88.4 145.9 87.8 146.7 87.6 147.5 87.3 148.8 86.7 149.6 86.2 150.4 85.7 152 85.1 153.2 84.8 154.4 84.6 155.9 84 156.6 83.6 157.2 83.2 158.9 82.6 160.3 82.2 161.7 81.9 163.7 81.2 164.7 80.8 165.8 80.4 167.9 79.9 169.5 79.6 171.2 79.4 173.7 78.8 175.3 78.4 178.7 77.5 184 76.9 192.6 76.5 199.4 76.1 201.4 76.2 212.2 76.8M147.3 129.6C143.2 130 142.5 130.3 140.2 131.9 136.3 134.8 131 140.9 129.7 144 129.4 144.8 128.9 145.7 128.6 146 124.8 150.3 122.9 170.4 125.6 176.8 126.1 177.7 126.7 179.6 127 180.9 127.4 182.3 128.1 184.1 128.6 185 129.1 185.9 129.7 187.3 130 188.2 130.3 189.1 130.8 190.2 131.2 190.6 131.7 191.1 132.2 192.1 132.4 192.8 132.7 193.6 133.2 194.6 133.6 195 134 195.4 134.7 196.6 135.2 197.6 135.6 198.6 136.8 200.5 137.8 201.8 138.8 203.1 139.9 204.7 140.2 205.3 140.6 206 141.5 207.3 142.2 208.3 143 209.4 144.1 210.9 144.7 211.7 145.3 212.6 146.2 213.7 146.6 214.2 147.5 215.2 149.5 217.6 150.6 219.2 151.8 220.9 155.7 225.6 157.4 227.5 158.3 228.5 159.6 229.9 160.4 230.8 165.8 237 173.8 244.5 178.4 247.6 179.6 248.4 181.3 249.6 182.2 250.3 183.2 251 184.1 251.6 184.3 251.6 184.4 251.6 185.6 252.3 186.9 253.2 188.2 254.1 189.5 254.8 189.7 254.8 189.9 254.8 190.6 255.2 191.3 255.8 192 256.3 193.3 256.9 194.1 257.2 194.9 257.4 196 258 196.5 258.4 197 258.8 198.1 259.3 199 259.6 199.9 259.9 201.3 260.5 202.2 261 203.1 261.5 204.5 262.1 205.4 262.2 206.3 262.4 208.2 263 209.6 263.6 213.4 265.2 219.3 267.1 222.8 267.8 224.5 268.1 226.6 268.6 227.5 268.9 229.2 269.6 231 269.8 240.3 271 250.9 272.3 259.4 268.8 269.2 259.2 274 254.4 275.1 252.1 276.1 244.4 277.3 234.7 277.3 234.5 271.7 231.8 269.6 230.8 267.5 229.8 267.2 229.6 264.6 228.1 258.6 225.2 258.2 225.2 257.9 225.2 257 224.7 256.2 224.2 255.4 223.6 253.7 222.8 252.6 222.4 251.4 221.9 250.3 221.3 250 221 249.7 220.7 248.7 220.2 247.6 219.8 246.5 219.4 245.2 218.8 244.7 218.4 243.3 217.3 240.3 216.7 238.5 217.2 236.8 217.6 234.6 220 229.2 227 227.1 229.8 222.7 234.9 222 235.5 220.6 236.6 214.1 235.9 212 234.4 211.5 234 210.3 233.5 209.4 233.2 208.5 232.9 207.4 232.4 207 232 206.6 231.6 205.5 231 204.7 230.6 203.8 230.3 201.9 229 200.4 227.9 198.9 226.7 197 225.4 196.3 224.9 195.6 224.4 194.1 223.4 193 222.7 189.6 220.3 180.4 212 177.1 208.2 173.9 204.6 172.4 202.7 168.5 197.4 167.4 195.9 166.1 194.1 165.6 193.5 162.6 189.6 163 186.3 166.9 181.9 175.9 171.9 177.2 168 173.8 161.2 173.3 160.1 172.6 158.4 172.4 157.3 172.1 156.3 171.5 154.8 171.1 154 170.7 153.2 170.1 151.8 169.7 150.7 169.4 149.7 168.6 147.8 168 146.6 167.3 145.3 166.8 144 166.8 143.7 166.8 143.3 166.4 142.4 165.9 141.6 165.3 140.8 164.7 139.5 164.4 138.7 164.2 137.9 163.4 136.6 162.8 135.8 162.1 135 161.6 134.1 161.6 133.8 161.6 133.6 160.8 132.6 159.9 131.7 157.6 129.4 154.4 128.9 147.3 129.6" fill="#fbf9f9"/><path d="M24.9 0.4C24.7 0.7 23.8 0.9 23 0.9 20.9 0.9 19.7 1.4 19.4 2.4 19.1 3.2 18.8 3.4 16.3 3.8 15.2 4 14.7 4.3 14.6 5 14.4 5.6 13.9 6 13.1 6.3 12.1 6.5 11.8 6.9 11.7 7.7 11.6 8.5 11.3 8.8 10.4 8.9 9.5 9.1 9.1 9.5 8.9 10.4 8.8 11.3 8.5 11.6 7.7 11.7 6.9 11.8 6.5 12.1 6.3 13 6.1 13.7 5.5 14.4 5.1 14.6 4.5 14.9 4 15.6 3.7 17 3.4 18.1 3.1 19 2.9 19.1 1.3 19.6 0.9 20.6 0.8 24.3 0.8 24.8 0.6 25.1 0.4 25 0.1 24.8 0 83.3 0 199.9 0 322.9 0.1 375.2 0.4 375.3 0.7 375.4 0.9 376.2 0.9 377.2 0.9 379.1 1.7 380.8 2.6 380.8 2.9 380.8 3.3 381.6 3.6 383 3.9 384.6 4.3 385.2 4.8 385.4 5.3 385.5 5.9 386.3 6.2 387 6.5 387.9 7.1 388.5 7.8 388.6 8.4 388.8 8.8 389.2 8.8 389.6 8.8 390.4 9.5 391.1 10.6 391.3 11 391.3 11.5 391.8 11.6 392.4 11.8 393.1 12.2 393.5 13.1 393.7 13.8 394 14.4 394.3 14.4 394.6 14.4 395.5 15.5 396.3 17.3 396.6 18.6 396.8 19.1 397.1 19.6 398 20 398.6 20.8 399.2 21.4 399.4 23.3 400 372.4 400.1 376.2 399.6 379.3 399.2 380.8 398.4 380.8 397.4 380.8 397.1 381.6 396.8 382.6 396.6 384 396.4 384.6 396.1 385.3 395.2 385.7 394.6 386.5 394 387.1 393.8 387.7 393.7 388.2 393.1 388.5 392.4 388.8 391.5 389.1 391.2 389.8 391.2 390.6 391.2 390.9 390.9 391.1 390 391.2 389.2 391.6 388.7 392.4 388.4 393.1 388.2 393.7 387.7 393.8 387.1 394 386.5 394.6 385.7 395.2 385.3 396.1 384.6 396.4 384 396.6 382.6 396.8 381.2 397.1 380.7 397.8 380.6 400.1 380 400.1 388.4 399.9 198 399.8 10 399.9 20 397.8 19.4 397 19.2 396.8 18.9 396.6 17.4 396.3 15.5 395.6 14.4 394.7 14.4 394.4 14.4 394 13.8 393.8 13.1 393.5 12.2 393.1 11.8 392.4 11.6 391.8 11.5 391.3 11 391.3 10.6 391.1 9.5 390.4 8.8 389.6 8.8 389.2 8.8 388.8 8.4 388.6 7.8 388.5 7.1 387.9 6.5 387 6.2 386.3 5.9 385.5 5.3 385.4 4.8 385.2 4.3 384.6 3.9 383 3.6 381.5 3.3 380.8 3 380.7 2.4 380.4 1.5 378.9 0.8 377 0.8 376.2 0.8 375.6 0.6 375.6 0.4 375.6-0.2 25.5-0.2 24.9 0.4M218.4 49C219.6 49.3 223.1 49.9 226.1 50.2 229.2 50.5 232.4 51.1 233.6 51.6 234.6 52 237.1 52.6 238.9 53 240.8 53.3 243.2 53.9 244.3 54.4 245.3 54.8 247.3 55.4 248.7 55.8 250.1 56.1 251.6 56.6 252.1 57 252.6 57.3 254 57.8 255.3 58.2 256.6 58.6 258.7 59.4 259.9 60 261.1 60.7 262.4 61.2 262.8 61.2 263.1 61.2 264 61.6 264.8 62.2 265.5 62.7 267 63.5 268 63.8 269.1 64.2 270.1 64.7 270.4 65 270.7 65.3 271.7 65.8 272.8 66.2 273.8 66.5 275.1 67.3 275.6 67.8 276.1 68.4 276.8 68.8 277 68.8 277.3 68.8 278.4 69.4 279.5 70.2 280.7 71 281.7 71.6 281.9 71.6 282.2 71.6 283.9 72.8 289 76.6 290.5 77.7 292.1 78.9 292.5 79.2 301.4 85.4 315.1 99.6 323.5 111.3 324 112 325.1 113.6 326 114.8 326.9 116 328 117.8 328.4 118.8 328.8 119.7 329.7 121 330.2 121.7 330.8 122.3 331.2 123.1 331.2 123.3 331.2 123.6 331.8 124.7 332.6 125.7 333.3 126.8 334 128.1 334.2 128.6 334.3 129.1 334.9 130.2 335.4 131 336 131.9 336.4 132.7 336.4 133 336.4 133.2 337 134.7 337.8 136.2 340.1 141.1 341.5 144.5 342 146.6 342.2 147.7 342.8 149.1 343.2 149.8 343.6 150.5 344.2 152.3 344.6 153.9 344.9 155.4 345.5 157.6 346 158.7 346.4 159.8 346.9 161.7 347 162.9 347.2 164 347.7 166.4 348.3 168.2 348.9 170.2 349.5 174.2 350 179.4 351.8 197.9 351.9 201.4 351 209.1 350.7 211.8 350.1 216.7 349.8 220 349.5 223.3 348.8 227.1 348.4 228.5 348 229.9 347.5 232.2 347.2 233.6 347 235 346.3 237.5 345.8 239 345.3 240.5 344.8 242.6 344.6 243.6 344.4 244.6 343.9 246.2 343.4 247.3 342.9 248.3 342.2 250 342 251.1 341.7 252.1 341.1 253.8 340.6 254.8 340.1 255.8 339.5 257.3 339.2 258.2 338.9 259.1 338.3 260.4 337.7 261.2 337.2 262 336.8 262.8 336.8 263 336.8 263.5 333.3 270.7 332.2 272.3 331.4 273.5 330.8 274.5 328.6 278.2 326.4 281.9 325.8 282.9 324.6 284.4 323.9 285.2 322.7 287 321.8 288.2 319.4 291.7 311.1 301.3 307 305.4 299.4 312.9 286.8 323 281.1 326 279.9 326.6 278.7 327.4 278.6 327.6 278.5 327.8 277.6 328.3 276.7 328.7 275.8 329.1 274.8 329.8 274.5 330.1 274.2 330.5 273.3 331 272.5 331.2 271.7 331.5 270.4 332.1 269.6 332.7 268.8 333.2 268 333.6 267.8 333.6 267.4 333.6 262.2 336 258.8 337.8 257.8 338.3 256.1 339 255 339.2 253.9 339.5 252.4 340 251.8 340.4 251.1 340.8 249.3 341.5 247.9 341.8 246.4 342.1 244.3 342.8 243.2 343.2 242.1 343.6 240 344.2 238.5 344.4 237 344.7 234.5 345.3 233 345.8 231.4 346.4 228.3 346.9 225.6 347.2 223.1 347.4 219.1 348 216.8 348.5 210.5 349.8 192.6 349.7 185 348.5 182.1 348 178.1 347.4 175.9 347.2 173.8 347 170.7 346.4 168.9 345.8 167.2 345.3 164.8 344.8 163.6 344.6 162.4 344.4 160.1 343.8 158.5 343.2 156.9 342.5 155.3 342 154.9 342 154.5 342 153.1 341.5 151.8 341 150.5 340.4 148.4 339.7 147.2 339.3 146 339 144.4 338.4 143.6 337.9 142.8 337.5 141.3 336.8 140.2 336.5 139.1 336.2 137.8 335.6 137.3 335.2 136.8 334.8 135.7 334.2 134.9 334 134.1 333.7 132.7 333 131.8 332.4 129.8 331.1 126.8 331.1 123.2 332.5 121.8 333.1 119.3 333.7 117.7 334 116.1 334.2 114 334.7 112.9 335.2 111.8 335.6 109.4 336.2 107.4 336.6 105.5 337 103.4 337.5 102.7 337.8 102.1 338.2 99.9 338.7 97.9 339.2 95.9 339.6 93.5 340.2 92.6 340.6 91.8 340.9 89.6 341.5 87.8 341.8 86.1 342.1 83.4 342.8 82 343.3 80.6 343.9 78.4 344.4 77.2 344.6 76 344.8 73.9 345.3 72.6 345.8 71.2 346.3 69 346.9 67.6 347.2 66.2 347.4 63.9 348.1 62.6 348.6 61.3 349.1 59.3 349.6 58.2 349.8 57.1 349.9 55.1 350.4 53.7 350.9 50.8 351.9 50 351.6 50 349.3 50 347.1 50.8 342.8 51.6 340.9 52 340 52.6 337.8 53 336.1 53.3 334.4 53.9 332 54.4 330.9 54.8 329.7 55.4 327.5 55.6 325.9 55.9 324.3 56.5 322 57 320.8 57.5 319.6 58.1 317.4 58.4 315.9 58.6 314.4 59.2 312.2 59.6 311.1 60.1 310 60.7 307.8 61 306.2 61.3 304.7 61.9 302.5 62.4 301.5 62.8 300.4 63.4 298.4 63.6 296.9 63.9 295.4 64.5 293.4 64.9 292.4 65.3 291.4 65.9 289.3 66.3 287.6 66.6 286 67.3 283.8 67.7 282.8 70.1 277.6 69.9 270.9 67.4 267.9 66.8 267.3 66.4 266.5 66.4 266.2 66.4 266 65.8 264.6 65.1 263.2 64.3 261.8 63.6 260.1 63.4 259.4 63.3 258.8 62.8 257.7 62.3 257.1 61.9 256.5 61.2 254.9 60.9 253.7 60.6 252.4 60 250.8 59.6 250.2 59.2 249.5 58.6 248 58.4 246.8 58.1 245.6 57.5 243.6 57 242.4 56.5 241.2 55.9 239 55.6 237.6 55.4 236.2 54.7 233.7 54.2 232.2 53.7 230.7 53.2 228.1 53 226.6 52.9 225.1 52.3 221.4 51.7 218.4 50.2 210.8 50.1 185.8 51.5 179.8 52 177.8 52.6 174 53 171.3 53.3 168.7 53.8 165.8 54.2 164.9 54.6 164.1 55.2 161.7 55.6 159.5 56 157.4 56.7 155 57.1 154.1 57.5 153.3 58.1 151.6 58.4 150.4 58.7 149.2 59.3 147.4 59.9 146.3 60.4 145.3 60.8 144.1 60.8 143.7 60.8 143.2 61.3 141.9 62 140.7 62.6 139.5 63.3 137.8 63.6 136.9 63.9 136.1 64.5 134.9 64.9 134.3 65.3 133.7 65.9 132.5 66.2 131.6 66.5 130.6 67.2 129.3 67.7 128.5 68.2 127.7 68.9 126.4 69.4 125.6 69.8 124.7 70.7 123.2 71.3 122.1 71.9 121 72.6 119.9 72.8 119.8 73.1 119.6 73.6 118.7 74 117.8 74.4 116.9 75.6 115 76.7 113.6 80 109.2 80.8 108.2 81.5 107 84.9 101.4 102.5 83.8 109.4 79.1 110.3 78.5 111.8 77.4 112.8 76.6 115.8 74.3 119.8 71.6 120.3 71.6 120.5 71.6 121.4 71.1 122.2 70.4 123 69.8 124.1 69.1 124.5 69 125 68.8 125.9 68.3 126.6 67.8 128.4 66.5 133.8 63.6 134.5 63.6 134.8 63.6 135.9 63.1 136.8 62.5 137.8 61.8 139.3 61.1 140.2 60.8 141 60.5 142.3 60 143 59.6 143.6 59.2 145.1 58.6 146.2 58.4 147.3 58.1 149.3 57.4 150.6 56.7 151.9 56.1 153.3 55.6 153.7 55.6 154.1 55.6 155.5 55.2 156.8 54.6 158.1 54.1 160.8 53.3 162.8 53 164.8 52.6 167.2 52 168.2 51.6 169.3 51.1 171.6 50.6 174.3 50.4 176.7 50.2 180.4 49.6 182.6 49.2 188.2 48.1 188.3 48.1 203 48.2 213.7 48.3 216.6 48.4 218.4 49M192.6 76.5C184 76.9 178.7 77.5 175.3 78.4 173.7 78.8 171.2 79.4 169.5 79.6 167.9 79.9 165.8 80.4 164.7 80.8 163.7 81.2 161.7 81.9 160.3 82.2 158.9 82.6 157.2 83.2 156.6 83.6 155.9 84 154.4 84.6 153.2 84.8 152 85.1 150.4 85.7 149.6 86.2 148.8 86.7 147.5 87.3 146.7 87.6 145.9 87.8 144.8 88.4 144.3 88.8 143.8 89.2 142.5 89.8 141.5 90.1 140.4 90.5 139 91.2 138.3 91.8 137.7 92.3 136.9 92.8 136.6 92.8 136.4 92.8 135.5 93.3 134.8 93.8 134 94.4 132.8 95.1 132.1 95.4 131.3 95.7 130.1 96.5 129.4 97.1 128.7 97.7 127.1 98.9 125.9 99.7 122.3 102.2 120.8 103.3 119.4 104.6 118.7 105.3 116.8 107 115.2 108.4 112.6 110.7 108.5 114.8 104.6 119.1 102 121.9 96.5 129.2 95.2 131.5 94.7 132.3 94 133.6 93.5 134.3 93 134.9 92.3 136 91.9 136.7 91.5 137.3 91 138.1 90.8 138.4 90.6 138.7 90.2 139.6 89.8 140.4 89.5 141.2 89 142.3 88.7 142.8 87.4 145 84.8 150.6 84.8 151.2 84.8 151.6 84.4 152.7 83.8 153.8 83.3 154.8 82.6 156.5 82.3 157.5 82.1 158.6 81.5 160.2 81.1 161.2 80.7 162.2 80 164.6 79.6 166.6 79.2 168.6 78.5 171.5 78.1 173 75.7 181.5 75.6 209.6 77.9 217.3 78.2 218.5 78.9 221.3 79.4 223.6 79.9 225.9 80.6 228.5 81 229.4 81.4 230.3 82 232.1 82.3 233.3 82.6 234.6 83.2 236.4 83.8 237.3 84.3 238.3 84.8 239.6 85 240.4 85.2 241.2 85.7 242.4 86.2 243.2 86.7 244 87.3 245.3 87.6 246.2 87.9 247.1 88.4 248.2 88.8 248.6 89.2 249 89.9 250.3 90.4 251.4 90.8 252.5 91.5 253.6 91.8 254 92.1 254.3 92.6 255.5 92.9 256.6 93.3 257.7 94 259.5 94.6 260.6 95.1 261.7 95.6 262.9 95.6 263.3 95.6 263.7 96.2 265 96.8 266.3 98.3 269.1 98.3 272.2 96.9 275.3 96.4 276.3 95.7 278.5 95.4 280.1 95.1 281.7 94.5 283.8 94.1 284.8 93.6 285.8 93.1 287.8 92.8 289.2 92.5 290.6 92 292.4 91.6 293.2 91.2 294 90.6 296.1 90.2 298 89.8 299.9 89.2 302 88.8 302.8 88.4 303.6 87.9 305.4 87.6 306.8 87.3 308.2 86.8 310.2 86.3 311.3 84.8 314.7 86.9 315.8 91.5 314 92.6 313.6 95.1 312.9 97.1 312.6 99 312.2 101.1 311.7 101.7 311.3 102.3 311 104.6 310.4 106.8 310 108.9 309.6 111.4 309 112.2 308.6 113.1 308.2 115.2 307.7 116.8 307.4 118.4 307 120.9 306.3 122.2 305.8 123.5 305.3 125.6 304.8 126.8 304.6 128 304.4 130 303.9 131.2 303.4 136.9 301 142.4 300.9 146 303.4 146.8 303.9 147.9 304.4 148.6 304.6 149.3 304.7 150.8 305.4 152 306 153.2 306.6 154.9 307.2 155.8 307.4 156.6 307.5 158.2 308.1 159.2 308.6 160.2 309.1 162.2 309.7 163.6 310 165 310.2 167 310.8 168.1 311.2 169.2 311.7 171.9 312.3 174.1 312.6 176.4 312.9 180 313.6 182.2 314.1 188.2 315.4 211.5 315.4 216.9 314.1 218.8 313.6 222.1 313 224.1 312.8 226.1 312.5 229.1 311.9 230.7 311.3 232.3 310.8 234.6 310.2 235.8 310 237 309.8 239 309.2 240.1 308.7 241.3 308.1 243.1 307.5 244.2 307.2 245.3 307 246.8 306.4 247.4 306 248.1 305.6 249.4 305.1 250.2 304.8 251.1 304.5 252.4 303.9 253.2 303.4 254 302.9 255.3 302.3 256.2 302 257.1 301.7 258.4 301.1 259.1 300.6 259.8 300 260.5 299.6 260.6 299.6 261.2 299.6 270.4 294 272.9 292.1 283.8 284 290.4 277.8 296.5 270 298.2 267.9 300 265.6 300.7 264.8 301.3 264.1 302.6 262.3 303.5 260.8 304.4 259.4 305.6 257.6 306.2 256.8 306.7 256.1 307.2 255.3 307.2 255 307.2 254.7 307.7 253.8 308.3 252.9 309 252.1 309.7 250.7 310 250 310.2 249.2 310.9 247.9 311.4 247.2 312 246.4 312.4 245.6 312.4 245.4 312.4 245.1 312.9 243.8 313.6 242.6 314.3 241.3 315 239.5 315.3 238.4 315.5 237.4 316.1 236 316.5 235.3 317.5 233.5 319.7 225.5 321.8 215.4 323.9 205.7 323.9 185.1 321.9 176.2 321.3 173.8 320.7 170.8 320.6 169.6 320.4 168.4 319.9 166.3 319.4 165 318.9 163.6 318.3 161.5 318 160.2 317.7 158.9 317.1 157.1 316.6 156.2 316.1 155.3 315.5 153.8 315.3 152.8 315 151.7 314.3 149.9 313.6 148.6 312.9 147.4 312.4 146.1 312.4 145.8 312.4 145.6 312 144.8 311.4 144 310.9 143.3 310.2 142 310 141.2 309.7 140.4 309.1 139.2 308.6 138.5 308 137.8 307.6 137.1 307.6 136.9 307.6 136.7 307.1 135.9 306.6 135.2 306 134.4 305.1 133 304.6 132 303.6 130.2 303 129.4 299.6 125 298.6 123.7 297.2 121.9 296.4 120.8 295.2 119.1 283.3 107.2 280.6 104.9 279.9 104.4 278.3 103.1 277 102.2 273.5 99.7 272 98.5 270.2 97.1 269.3 96.5 268 95.7 267.2 95.3 266.5 95 265.5 94.5 265.1 94.1 264.3 93.4 262.2 92.2 256.4 89.4 248.2 85.3 247 84.8 246.4 84.8 246 84.8 244.9 84.4 243.9 83.8 242.9 83.3 240.9 82.6 239.4 82.3 237.8 81.9 235.9 81.3 235.1 81 234.3 80.7 231.5 79.9 228.9 79.4 226.3 78.9 223 78.1 221.6 77.8 219.3 77.3 211 76.6 202.2 76.3 200.4 76.2 196.1 76.3 192.6 76.5M155.4 129.6C158.2 130 161.6 132.3 161.6 133.8 161.6 134.1 162.1 135 162.8 135.8 163.4 136.6 164.2 137.9 164.4 138.7 164.7 139.5 165.3 140.8 165.9 141.6 166.4 142.4 166.8 143.3 166.8 143.7 166.8 144 167.3 145.3 168 146.6 168.6 147.8 169.4 149.7 169.7 150.7 170.1 151.8 170.7 153.2 171.1 154 171.5 154.8 172.1 156.3 172.4 157.3 172.6 158.4 173.3 160.1 173.8 161.2 177.2 168 175.9 171.9 166.9 181.9 163 186.3 162.6 189.6 165.6 193.5 166.1 194.1 167.4 195.9 168.5 197.4 172.4 202.7 173.9 204.6 177.1 208.2 180.4 212 189.6 220.3 193 222.7 194.1 223.4 195.6 224.4 196.3 224.9 197 225.4 198.9 226.7 200.4 227.9 201.9 229 203.8 230.3 204.7 230.6 205.5 231 206.6 231.6 207 232 207.4 232.4 208.5 232.9 209.4 233.2 210.3 233.5 211.5 234 212 234.4 214.1 235.9 220.6 236.6 222 235.5 222.7 234.9 227.1 229.8 229.2 227 234.6 220 236.8 217.6 238.5 217.2 240.3 216.7 243.3 217.3 244.7 218.4 245.2 218.8 246.5 219.4 247.6 219.8 248.7 220.2 249.7 220.7 250 221 250.3 221.3 251.4 221.9 252.6 222.4 253.7 222.8 255.4 223.6 256.2 224.2 257 224.7 257.9 225.2 258.2 225.2 258.6 225.2 264.6 228.1 267.2 229.6 267.5 229.8 269.6 230.8 271.7 231.8 277.3 234.5 277.3 234.7 276.1 244.4 275.1 252.1 274 254.4 269.2 259.2 259.4 268.8 250.9 272.3 240.3 271 231 269.8 229.2 269.6 227.5 268.9 226.6 268.6 224.5 268.1 222.8 267.8 219.3 267.1 213.4 265.2 209.6 263.6 208.2 263 206.3 262.4 205.4 262.2 204.5 262.1 203.1 261.5 202.2 261 201.3 260.5 199.9 259.9 199 259.6 198.1 259.3 197 258.8 196.5 258.4 196 258 194.9 257.4 194.1 257.2 193.3 256.9 192 256.3 191.3 255.8 190.6 255.2 189.9 254.8 189.7 254.8 189.5 254.8 188.2 254.1 186.9 253.2 185.6 252.3 184.4 251.6 184.3 251.6 184.1 251.6 183.2 251 182.2 250.3 181.3 249.6 179.6 248.4 178.4 247.6 173.8 244.5 165.8 237 160.4 230.8 159.6 229.9 158.3 228.5 157.4 227.5 155.7 225.6 151.8 220.9 150.6 219.2 149.5 217.6 147.5 215.2 146.6 214.2 146.2 213.7 145.3 212.6 144.7 211.7 144.1 210.9 143 209.4 142.2 208.3 141.5 207.3 140.6 206 140.2 205.3 139.9 204.7 138.8 203.1 137.8 201.8 136.8 200.5 135.6 198.6 135.2 197.6 134.7 196.6 134 195.4 133.6 195 133.2 194.6 132.7 193.6 132.4 192.8 132.2 192.1 131.7 191.1 131.2 190.6 130.8 190.2 130.3 189.1 130 188.2 129.7 187.3 129.1 185.9 128.6 185 128.1 184.1 127.4 182.3 127 180.9 126.7 179.6 126.1 177.7 125.6 176.8 122.9 170.4 124.8 150.3 128.6 146 128.9 145.7 129.4 144.8 129.7 144 131.5 139.7 140 131 143.3 130.2 144.4 129.9 149.4 129.3 151.4 129.3 152.1 129.2 153.9 129.4 155.4 129.6" fill="#44c454"/>
</svg>